<svg id="Capa_1" data-name="Capa 1" xmlns="http://www.w3.org/2000/svg" viewBox="0 0 95.04 92.16"><defs><style>.cls-1{fill:#272525;}.cls-2{fill:#ffe422;}.cls-3{fill:#fff;}</style></defs><title>icono-</title><path class="cls-1" d="M90.11,21.25V9.16a3.5,3.5,0,0,0-3.5-3.49H67.75a3.49,3.49,0,0,0-3.49,3.49V21.25c0,1.51,1.48,2.64,2.71,3.16v4a.68.68,0,0,0,.36.59.65.65,0,0,0,.31.08A.73.73,0,0,0,68,29l6.32-4.25H86.61A3.5,3.5,0,0,0,90.11,21.25Zm-1.35,0a2.15,2.15,0,0,1-2.15,2.14H74.14a.64.64,0,0,0-.38.12l-5.44,3.65V23.94a.68.68,0,0,0-.47-.65c-1.06-.33-2.25-1.25-2.25-2V9.16A2.15,2.15,0,0,1,67.75,7H86.61a2.15,2.15,0,0,1,2.15,2.14Z"/><path class="cls-1" d="M86.42,11.43a1.27,1.27,0,0,0-1.26-1.27H69.25a1.27,1.27,0,1,0,0,2.54H85.16A1.27,1.27,0,0,0,86.42,11.43Zm-.81,0a.46.46,0,0,1-.45.46H69.25a.46.46,0,0,1,0-.92H85.16A.46.46,0,0,1,85.61,11.43Z"/><path class="cls-1" d="M86.42,15.15a1.27,1.27,0,0,0-1.26-1.27H69.25a1.27,1.27,0,1,0,0,2.54H85.16A1.27,1.27,0,0,0,86.42,15.15Zm-.81,0a.46.46,0,0,1-.45.46H69.25a.46.46,0,0,1,0-.92H85.16A.46.46,0,0,1,85.61,15.15Z"/><path class="cls-1" d="M86.42,18.74a1.27,1.27,0,0,0-1.26-1.27H69.25a1.27,1.27,0,1,0,0,2.54H85.16A1.27,1.27,0,0,0,86.42,18.74Zm-.81,0a.46.46,0,0,1-.45.46H69.25a.46.46,0,1,1,0-.92H85.16A.46.46,0,0,1,85.61,18.74Z"/><path class="cls-2" d="M46.16,25.61a23.27,23.27,0,0,1,6.72,2.77,2.23,2.23,0,0,0,2.15.16,11.21,11.21,0,0,1,4.43-.5c-.94.69-1.89,1.05-1.87,2.13.06,0,.15.11.19.09,1.53-.66,1.52-.66,1.55,1a3.12,3.12,0,0,0,.37,1.52c.36-.73.69-1.47,1.08-2.19a17.47,17.47,0,0,1,2.06-2.79c.27-.32.48-.53.85-.13s.45.5.12.9c-.59.7-1.13,1.45-1.67,2.2a1.56,1.56,0,0,0,0,2c.75,1,1.48,2,2.43,3.35a17.54,17.54,0,0,1,.54-5.3c.12-.36,0-1.22.67-.94a1.25,1.25,0,0,1,.84,1.61A14.83,14.83,0,0,0,66.12,33a2.28,2.28,0,0,0,.62,2.49c1,.94,1.5,2.31,2.31,3.43-.28.92-.78-.39-1.11.13a16.21,16.21,0,0,0,1.21,2.89,59.33,59.33,0,0,1,2,6.08l-1.27-.68c-.54.32-.08.64,0,1l.13.77.11.44.09.74.14.71a1.48,1.48,0,0,0,.12,1,1.55,1.55,0,0,0,.11,1v4.42l-.15,1a9.69,9.69,0,0,0-.57,2.83,20.69,20.69,0,0,1-1.13,2.73C68,63,68,63,67.4,64.08A16.06,16.06,0,0,1,64,68.27c-.65.59-1.11.84-1.26-.33,0-.23-.08-.52-.33-.6s-.44.27-.59.47a11.75,11.75,0,0,1-2.26,2.46c-.17.13-.54.55-.62.1-.16-1-.57-.32-.85-.17a15.21,15.21,0,0,0-1.29.86c-.78.53-1.1.33-.82-.74l-.69.53c-.18-.44-.69-.24-.83-.33-1.19-.71-1.8.56-2.73.56a2.84,2.84,0,0,0,3.32-.34c.15-.1.19,0,.26.11-.59,1.79-2,2-3.88,1.66.52.52.69,1,1.28.77.24-.09.53,0,.53.28s-.23.32-.51.27a1.07,1.07,0,0,0-1.11.5c.24.25.68-.07.86.4a3.58,3.58,0,0,1-1.8.82,8.5,8.5,0,0,1-6.55-1.19c-.69-.45-1.68-1-1.46-1.85s1.25-1.15,2.12-1.37l.24,0a3.93,3.93,0,0,0,2.88-4.5c-3.73,4.12-8.44,5.21-13.08-.8a8.21,8.21,0,0,0,1.22,4.06A2,2,0,0,0,38.2,71.1a2.18,2.18,0,0,1,1.54.58c1,.72,1.09,1.07.18,1.93-2.36,2.21-5.16,2.51-8.17,1.75a1.29,1.29,0,0,1-1.05-.81l.94-.22c-.55-.55-1.32-.38-2-.93.59-.15,1.09,0,1.45-.28.1-.1.35-.09.27-.29s-.27-.29-.35-.26c-1.62.58-2.46-.35-3.17-1.59-.12-.22-.49-.59-.59-.21-.28,1.1-.78.3-1.1.16a12,12,0,0,1-1.28-.87c-.19-.13-.54-.35-.58,0-.18,1.47-.75.21-.88.09-.91-.9-1.77-1.87-2.72-2.89a5.06,5.06,0,0,0-.26.69c-.16,1-.56,1-1.27.37a14.86,14.86,0,0,1-3.44-4.36c-.56-1.19-.62-1.18-1.46-.12a20.08,20.08,0,0,1-1.31-4l-.06-.52-.18-1.16-.05-1-.13-4.55a24.08,24.08,0,0,1,.64-4.47c0-.19.16-.38,0-.53s-.37-.08-.55,0-.34.45-.75.25a18.63,18.63,0,0,1,1-3l.21-.43v0a5.26,5.26,0,0,0,.67-2.42c.43-.8.86-1.6,1.26-2.41.13-.26.42-.58.08-.83s-.48.16-.7.3-.25.2-.37.3l.25-.72a23.54,23.54,0,0,1,2.68-3.81,1,1,0,0,0,.2-1,16.76,16.76,0,0,0-.63-3,1,1,0,0,1,.07-1.1c.5-.6.81-.8,1.2.1a16.73,16.73,0,0,1,1,6.1c.89-1.23,1.81-2.43,2.63-3.7.34-.53-.05-1.09-.38-1.54-.53-.75-1.13-1.45-1.67-2.2-.23-.33-.92-.63-.33-1.16s.92.17,1.22.47a15.31,15.31,0,0,1,2.94,4.35l.35.73a2.86,2.86,0,0,0,.42-2c-.06-1,.23-1.38,1.18-.72a3.37,3.37,0,0,0,.56.22A2.56,2.56,0,0,0,24,28.19a8.48,8.48,0,0,1,4.33.38,1.51,1.51,0,0,0,1.48.05,29.88,29.88,0,0,1,7.45-3.18l1-.19a.17.17,0,0,0,.2-.05c.48-.07,1,.17,1.42-.28l.69-.15c.52.83-.18,1-.69,1.09A8.79,8.79,0,0,0,35.69,28a3.91,3.91,0,0,1-1.12.68c-.61.24-1.31.68-1.66-.37-.11-.32-.37-.19-.6-.12a10,10,0,0,0-5.55,4.26c.12.06.16.1.18.09a3.42,3.42,0,0,0,.43-.21c2.06-1.31,4.2-2.32,6.75-1.92.19,0,.45.08.48-.2.18-1.75,1.69-1.84,2.88-2.23,1.53-.52,2.67-.18,3,.68s-.27,1.71-1.8,2.32c-1.95.77-3.78,1.74-6.11.72-1.69-.74-5.61,1.71-6.74,3.72.63-.13.63-.12.9-.36a8.71,8.71,0,0,1,6.38-2.23A18.21,18.21,0,0,0,39.59,32c1.38-.45,1.45-.4,1.51,1.2-.72-.62-1,0-1.32.44a3.21,3.21,0,0,1-3.06,1.45,5.59,5.59,0,0,0-3,.35c.29.61.84.45,1.25.33a5.29,5.29,0,0,1,1.17-.19A16.64,16.64,0,0,0,40.39,35c.61-.19,1.57.68,2.36-.15,0,0,.2.1.3.17a3.59,3.59,0,0,0,1.94.5,27.18,27.18,0,0,1,3.82.29c.2.05.41.09.46-.18s-.17-.27-.37-.34a5.7,5.7,0,0,0-2.56-.16,2.7,2.7,0,0,1-2.94-1.5c-.32-.57-.68-1-1.39-.37.27-1.66.27-1.66,1.56-1.23.38.12.77.23,1.16.33a16.67,16.67,0,0,0,5.11.55,8.45,8.45,0,0,1,7.5,3.2c.34-.52,0-.81-.21-1.12a8.07,8.07,0,0,0-4-2.74,5.73,5.73,0,0,0-3.5-.15c-2.08.57-4.31-.37-6.19-1.65a1.33,1.33,0,0,1-.68-1.53,1.53,1.53,0,0,1,1.33-1.06,4.47,4.47,0,0,1,4.48,2.34c.18.41.42.28.67.25A8.89,8.89,0,0,1,55.15,32c.3.19.52.35.85.16a8.77,8.77,0,0,0-4.47-3.72c-.58-.23-1.18-.6-1.51.37-.12.34-.52.32-.85.21a3.45,3.45,0,0,1-1.58-.83,7.58,7.58,0,0,0-4.25-2.29c-.42-.07-1-.14-.91-.86l.81.1,1.48.1.23.05ZM20.76,58.84l0,.09h.09l.28.17.24.17.48.31.24.17a.14.14,0,0,0,.16.09l.33.21a5,5,0,0,0,1.89,1l.26.14.5.08a.71.71,0,0,0,1,0l.48-.13L27,61l.47-.26.42-.24.06,0,.29-.21a.12.12,0,0,0,.16-.1l.55-.37.19-.12a21.47,21.47,0,0,0,3.83-2.93l-.22-.29-3.85,2.62h0l-.36.22-.37.23-.48.27-.48.22-.71.27h-1l-.43-.18A39.31,39.31,0,0,1,21.1,57.3c-.45-.37-.86-.93-1.59-.8a.37.37,0,0,0-.17.42l-.1.48-.1.25-.11.48q-.13.06-.06.18l-.19.52-.45-.08-.79-1.83-.18-.48h0a.8.8,0,0,0-.22-.64s.06-.07.05-.1a1.45,1.45,0,0,0-.09-.22,1.43,1.43,0,0,0-.23-.92c-.37-.23,0-.51-.05-.77A8.09,8.09,0,0,0,16.74,52c-.15-.54-.24,0-.37.1-.41,0-.5.35-.71.59-.64-.66-.14-1.5-.33-2.23a2.56,2.56,0,0,0,.09-1.23.65.65,0,0,0,0-.73v-.65c.09-.17.46-.24.23-.56v-.4c.12-.17.48-.25.24-.57.15-.47.6-.81.56-1.38,0-.32.41-.7,0-.94-.16-.11-.56.14-.85.22-.42-.4,0-.75.12-1.07a29.9,29.9,0,0,1,2.33-4.45c.36-.6.7-1.22,1.05-1.83A27.52,27.52,0,0,0,14.9,44c-.75,1.09.18,1,.84,1-.53,1.66-1.29,3.16-1.3,4.86a4.35,4.35,0,0,0-.21,1.79c-.06,0-.07.09,0,.14a1.53,1.53,0,0,0-.06,1,3.34,3.34,0,0,0,0,1.54,1.27,1.27,0,0,0,.07.94v0c0,1.06,0,1.06.55.74a2.44,2.44,0,0,0,.69-1h.46l.13.7.1.48.08.49.16.51a.17.17,0,0,0,.05.2l.18.56a1.47,1.47,0,0,0,.31.88l.17.39a.65.65,0,0,0,.22.58l.26.61a1.94,1.94,0,0,0,.52,1.05l.2.31,0,0,.3.45.2.26c0,.16.1.28.26.27s.24-.12.2-.29l.06-.23a4.51,4.51,0,0,0,.54-1.7v-.06A.89.89,0,0,0,20,59.8v-.06l.24-.63.2-.27h.29ZM27,48.46a2.74,2.74,0,0,1,.65.5c1.21,1.78,2.72,2.88,5,2.42.5-.09.69.19.71.7a2.2,2.2,0,0,1-.54,1.54c-.66.79-1.31,1.6-2,2.4,2-1.27,4.44-2.17,4.35-5.2,0-1,.55-1.88.42-3.07-1,1-1.57.55-2.31-.23-2.17-2.29-3.91-4.74-3.66-8.43a4.6,4.6,0,0,0-.82,2.54,10.5,10.5,0,0,0,.5,3.78c.12.36.3.78-.38.63a12.55,12.55,0,0,1-3.54-1.1c-1.26-.71-1.54-1.89-1.43-3.31-.87.4-.74,1.33-1.42,1.85-.3-2.76.4-5.28.89-7.83-2.5,3.33-4.6,6.81-5.23,11,.56-.54,1-1.14,1.51-1.7.19-.22.41-.58.78-.43s.19.49.23.75a22.27,22.27,0,0,0,1,4.2A9.79,9.79,0,0,0,24.58,54c-.65-2.48-1.5-4.93-1-7.9,1.3,2.47,2.53,4.61,4.59,6a10.79,10.79,0,0,1-1.35-3.46Zm32.62-2.29a13.29,13.29,0,0,1-1,7c-.09.2-.38.39-.09.58s.46,0,.62-.2.41-.49.59-.75a16.28,16.28,0,0,0,2.68-7.49c0-.3-.18-.71.17-.88s.61.27.87.48.26.31.41.44.32.68.71.44c.22-.15.13-.51,0-.79a28.66,28.66,0,0,0-4.18-8.59c-.19-.26-.42-.61-.75-.39s0,.55.07.85a16,16,0,0,1,.92,5.65c0,.29,0,.6-.24.83-.5-.51-.39-1.44-1.33-1.67a3,3,0,0,1-2.28,3.65,12.91,12.91,0,0,1-1.85.49c-1.28.24-1.26.23-1-1a8.8,8.8,0,0,0-.29-5.52,4.47,4.47,0,0,0-.19.71,10.1,10.1,0,0,1-2.94,6.77c-.83.91-1.52,2.29-3.16,1a10.07,10.07,0,0,0,.44,2.4c.15.79.31,1.57.42,2.36.15,1,2.26,2.77,3.47,2.77a6.72,6.72,0,0,1-1.85-2.67c-.23-1-.06-1.5,1-1.32a3.9,3.9,0,0,0,4.09-1.84c.33-.46.64-1.06,1.4-1.23a9.88,9.88,0,0,1-1,3.15C57.61,50.29,58.55,48.2,59.64,46.17Zm7.22,5.48c-.53,2.61-.78,5.07-2.28,7.45-.22-.7-.33-1.08-.45-1.46-.46-1.5-.5-1.52-1.75-.59-1.05.79-2.13,1.56-3.16,2.38a3.07,3.07,0,0,1-3.87.18c-1.05-.65-2.14-1.24-3.16-2-.34-.24-.64-.65-1.3-.34,1.63,1.2,3.19,2.36,4.77,3.49a3,3,0,0,0,3.39.15c.84-.46,1.66-1,2.48-1.46,1.22-.76,1.25-.75,1.66.58.2.69.41,1.38.64,2.06.07.21.06.53.36.55s.39-.25.52-.43a12.32,12.32,0,0,0,1.69-3.43c.37-1.24.72-2.49,1.08-3.74.66.21.64,1.11,1.43,1.14a19.86,19.86,0,0,0,0-5.76A26.69,26.69,0,0,0,67.43,45c.51-.27.91.32,1.14-.11.11-.2-.1-.61-.22-.89-.48-1-.93-2-1.47-3a18.54,18.54,0,0,0-2.48-3.74,43.9,43.9,0,0,1,3.37,6.84,1.62,1.62,0,0,1-.47,0c-.29-.09-.62-.38-.88-.11s.07.6.17.88a21.3,21.3,0,0,1,1,3.93,9.43,9.43,0,0,1,0,4.06ZM36.46,44c1.49-1.49,2.86-3.42,5.1-3.34s3.79,1.64,5,3.51c.35-1.12-.39-1.74-.9-2.43-1.25-1.68-3.27-2.74-4-5.31C40.5,39.65,37.05,40.75,36.46,44ZM31.09,60l-.22-.2c-.33.29-.68.56-1,.86a33.67,33.67,0,0,0-3.27,4c-.51.69-1,.83-1.71.34L22.4,63.3A16.13,16.13,0,0,0,25.79,68c.61.59.87.38,1.14-.34a29.08,29.08,0,0,1,2.48-4.92C30,61.82,30.53,60.93,31.09,60Zm29.77,3.56-.21-.22-1.07.84c-1.95,1.51-2.17,1.49-3.62-.44l-.44-.57a12.38,12.38,0,0,0-3.14-3.11c1.33,2.69,3.09,5.13,4.08,8,.13.39.37.37.63.15A17.27,17.27,0,0,0,60.86,63.59ZM55.07,58a2.54,2.54,0,0,0,3.4.51,24.1,24.1,0,0,0,4-3.09c.48-.45.64-1.61,1.76-1,0,0,.19-.14.23-.24a7.6,7.6,0,0,0,.42-3.9c-.53.83-.2,1.88-.81,2-.83.11-1,.7-1.4,1.14C60.59,55.62,58.69,58.12,55.07,58Zm-27,0c-2.41.25-4-1.12-5.59-2.6a16.27,16.27,0,0,1-2.07-2.32c-.55-.77-1.8-.77-1.89-2-.48,1.77-.21,2.34,1.24,3.06.19.1.31.36.46.54a16.79,16.79,0,0,0,4.08,3.67A3.09,3.09,0,0,0,28.1,58Zm16.08-12.2a6.11,6.11,0,0,0-2.31-3.68c-.42-.28-.67,0-.92.26a7.82,7.82,0,0,0-2.06,3.5c.8-.7,1.91-1.05,2.31-2.18a.74.74,0,0,1,.36-.43c.23-.09.36.15.41.33C42.25,44.82,43.51,45,44.18,45.84Zm-13.1-3.76a11.41,11.41,0,0,0,3,5c-.64-1.86-.38-3.85-.81-6C32.46,42.88,32.46,42.88,31.08,42.08Zm21.09,0c-.67-.09-.93.92-1.53.44-.43-.34-.29-1.13-1-1.58A21.64,21.64,0,0,1,49.19,47,11.88,11.88,0,0,0,52.17,42.12Zm-3.39-2.45c-.47-2.19-1.21-2.68-3.9-2.73-.27,0-.72-.32-.8.17s.4.4.7.46A7.31,7.31,0,0,1,48.78,39.67Zm-14.54,0a10,10,0,0,1,4-2.07c.32-.07.93,0,.86-.44-.1-.63-.63,0-1-.13a2.36,2.36,0,0,0-.71,0C35.79,37,34.76,37.77,34.24,39.65ZM48.17,63.16c.93-1.91.52-4.74-.75-5.7Zm-.8-10.1a18.77,18.77,0,0,0-.8-4.84c-.07-.22-.19-.49-.49-.38s-.22.43-.16.63a14.36,14.36,0,0,1,.33,3.07C46.29,52.19,46.67,52.6,47.37,53.06ZM35,62.92c.07-1.71.8-3.38.42-5.13A5.44,5.44,0,0,0,35,62.92Zm1.87-15a15,15,0,0,0-1.07,5C37.1,52.19,37.33,51.05,36.87,47.92ZM32.45,69.64A4.51,4.51,0,0,0,28.6,68C29.58,69.26,30.85,69.39,32.45,69.64Zm18.31,0c1.46-.4,2.73-.33,3.69-1.62A3.81,3.81,0,0,0,50.76,69.69ZM31.41,71.08c-.48-.67-1.48-.24-2.12-.85-.25-.24-.4.67-.87.75.29.23.43.73.91.62C30,71.44,30.83,71.9,31.41,71.08Zm2.29-37.4a5.55,5.55,0,0,0-2.52,2.18C32.36,35.38,33.3,35.06,33.7,33.68Zm15.76,0c.51,1.33,1.4,1.73,2.67,2.21A5.71,5.71,0,0,0,49.46,33.69Z"/><path class="cls-2" d="M43.52,81.9c-2-.19-4,0-6,0a3.87,3.87,0,0,1-4.1-4.2c0-.72.26-1,1-.92s1.28.06,1.9.19a1.88,1.88,0,0,0,2.12-.6,2.29,2.29,0,0,1,2-.51l3.35.17c.19,0,.49,0,.57.09,1.11,1.49,2.61.76,4,.67,1.06-.06,1.5.14,1.36,1.35a3.84,3.84,0,0,1-4,3.75c-.63,0-1.27,0-1.91,0Z"/><path d="M35.36,86.45C35,86,34.49,86.1,34.05,86A34.71,34.71,0,0,1,6.52,51.51C6.7,38.13,15.6,21,36.47,17.69c16-2.53,37.16,8.56,39.28,31.18A34.54,34.54,0,0,1,47.51,86.14c-.3.06-.66,0-.86.31Zm1.13-61.32.95-.16a1.67,1.67,0,0,1,1,.22.17.17,0,0,1-.2,0,1.33,1.33,0,0,0-1,.18,30.1,30.1,0,0,0-7.45,3.18,1.46,1.46,0,0,1-1.48-.05A8.61,8.61,0,0,0,24,28.17a2.59,2.59,0,0,1,1.63,2.18,4.23,4.23,0,0,1-.56-.23c-1-.65-1.24-.32-1.18.73a2.88,2.88,0,0,1-.42,2c-.15-.31-.26-.52-.35-.73a15.33,15.33,0,0,0-2.94-4.34c-.31-.31-.57-1.07-1.22-.48s.09.83.33,1.17c.53.75,1.13,1.45,1.67,2.19.33.46.72,1,.38,1.54-.82,1.28-1.75,2.48-2.63,3.71a16.69,16.69,0,0,0-1-6.1c-.4-.91-.71-.7-1.2-.11a1,1,0,0,0-.08,1.11,16.43,16.43,0,0,1,.64,3,1,1,0,0,1-.2,1,23.6,23.6,0,0,0-2.69,3.81A.71.71,0,0,1,14,38a11.86,11.86,0,0,1,1.45-2.89,3.08,3.08,0,0,0,.44-2.84c-.12-.35,0-.91-.45-1s-.52.43-.72.71A33.33,33.33,0,0,0,8.19,48.8c-.95,10.66,2.36,19.91,10.07,27.26a33.22,33.22,0,0,0,50-43.25,3.63,3.63,0,0,0-.51-.66c-.25-.21-.59-.21-.63.18-.07.75-.38,1.46.15,2.27a15.37,15.37,0,0,1,2,3.74l-.2.56c-.8-1.12-1.27-2.49-2.3-3.43a2.28,2.28,0,0,1-.62-2.5,14.83,14.83,0,0,1,.51-1.46,1.24,1.24,0,0,0-.84-1.6c-.67-.28-.55.57-.68.94a17.52,17.52,0,0,0-.53,5.3c-1-1.31-1.68-2.34-2.43-3.35a1.57,1.57,0,0,1,0-2c.54-.75,1.08-1.49,1.66-2.2.34-.4.15-.61-.12-.9s-.58-.19-.84.13a18.74,18.74,0,0,0-2.07,2.8c-.38.71-.72,1.45-1.07,2.18a3,3,0,0,1-.37-1.51c0-1.71,0-1.71-1.55-1.06,0,0-.13,0-.2-.09,0-1.08.93-1.44,1.88-2.12a11.41,11.41,0,0,0-4.43.49,2.2,2.2,0,0,1-2.15-.16,23.53,23.53,0,0,0-6.72-2.76c-.27-.55-.79-.33-1.21-.37l-.23,0V25a2.67,2.67,0,0,1,1.7,0,1.3,1.3,0,0,0,.82.14,39.1,39.1,0,0,1,4.39,1c2.86.83,5.26-.48,7.75-1.7-7.81-7.17-29.11-7.34-36-.38,2.58,1.95,5.94,2.77,8.53,2a26.77,26.77,0,0,1,4-.9Z"/><path d="M69.25,38.34a2.29,2.29,0,0,1,.68,1.47c0,.24.13.62-.23.69-.16,0-.37-.23-.55-.36s-.22-.38-.41-.17,0,.33.16.45l.36,1-.11.51A17.38,17.38,0,0,1,68,39c.33-.52.83.79,1.1-.12Z"/><path d="M15.26,39.12c-.44-.43-1.73,1-2,1.35A5.28,5.28,0,0,1,14,38a.62.62,0,0,0,.26.58C14.19,38.86,15.19,38.44,15.26,39.12Z"/><path d="M37.44,25a5.68,5.68,0,0,1,2.46-.07c-.41.45-.95.21-1.43.29A1.67,1.67,0,0,0,37.44,25Z"/><path d="M43.25,25.09c.48-.25,1,0,1.48-.05v.15Z"/><path d="M46.17,25.6,45,25.23C45.38,25.27,45.9,25.05,46.17,25.6Z"/><path d="M38.27,25.24l-1,.18A1.33,1.33,0,0,1,38.27,25.24Z"/><path d="M46.43,25.07l.82.14A1.3,1.3,0,0,1,46.43,25.07Z"/><path d="M36,25.2l.51-.07Z"/><path d="M57.46,73.5c-.27-.5.44-.84.16-1.44-1.32.63-2.84.87-3.47,2.52a4.27,4.27,0,0,1-2,2.35c-.53.27-.61.9-.83,1.41-.71,1.73-1.17,3.67-2.9,4.7-1.25.74-2.4,1.8-4.2,1.29a11.76,11.76,0,0,0-6.17.15,2,2,0,0,1-1.36-.22c-3.06-1.2-4.23-3.81-5.1-6.66-.07-.22-.18-.56-.34-.6-1.53-.44-2-1.8-2.52-3-.63-1.41-2.21-1.09-3.08-2-.49.63.38,1,.06,1.53v0c-1.89-.65-3-2.3-4.36-3.6-.46.45.06,1.2-.41,1.33s-.93-.5-1.33-.85A16.45,16.45,0,0,1,16,65.63c-.15-.29-.17-.91-.62-.72s.13.57.12.89a4.22,4.22,0,0,0,.06.58,12.69,12.69,0,0,1-3.16-6.1l.56-.47a20.38,20.38,0,0,0,1.31,4c.84-1.06.89-1.08,1.45.11a14.92,14.92,0,0,0,3.45,4.36c.71.68,1.11.68,1.27-.37a4.32,4.32,0,0,1,.26-.69c1,1,1.8,2,2.72,2.89.12.12.7,1.38.88-.08,0-.32.39-.09.57,0a10.42,10.42,0,0,0,1.29.87c.32.15.82,1,1.1-.15.1-.39.46,0,.59.2.71,1.24,1.55,2.17,3.17,1.6.08,0,.31.14.35.26s-.18.19-.27.28c-.36.34-.86.14-1.45.28.66.55,1.43.39,2,.94l-.94.22a1.33,1.33,0,0,0,1.05.81c3,.75,5.8.46,8.16-1.76.92-.86.87-1.2-.17-1.93a2.23,2.23,0,0,0-1.54-.58,2,2,0,0,1-2.13-1.23,8.24,8.24,0,0,1-1.21-4.06c4.64,6,9.35,4.92,13.08.8a3.94,3.94,0,0,1-2.88,4.5,2,2,0,0,0-.24,0c-.88.22-1.91.57-2.12,1.38s.77,1.4,1.46,1.84a8.5,8.5,0,0,0,6.55,1.19,3.56,3.56,0,0,0,1.8-.81c-.19-.47-.63-.15-.86-.4a1,1,0,0,1,1.1-.5c.28,0,.51.05.51-.28s-.28-.36-.52-.28c-.59.2-.76-.24-1.28-.77,1.88.35,3.28.14,3.88-1.66h0l.7-.54c-.28,1.08,0,1.27.81.74.43-.29.85-.61,1.3-.86.27-.15.69-.83.85.17.07.45.44,0,.61-.09a12.05,12.05,0,0,0,2.27-2.46c.15-.2.23-.58.59-.48s.29.37.32.61c.16,1.17.62.91,1.27.32a15.78,15.78,0,0,0,3.36-4.18c.56-1,.57-1,1.38-.16a19.47,19.47,0,0,0,1.12-2.74,1.14,1.14,0,0,0,.28.79,8.51,8.51,0,0,1-2,3.87c-.13.16-.29.49-.53.32s-.13-.43-.23-.85a17.2,17.2,0,0,1-3.56,4.86c-.12.11-.21.24-.33.34-.37.31-.71.87-1.16.75s-.09-.87-.47-1.34c-1.47,1.18-2.5,3-4.42,3.57ZM43.77,81.9c.63,0,1.27,0,1.91,0a3.85,3.85,0,0,0,4-3.76c.14-1.21-.31-1.41-1.36-1.34-1.35.08-2.85.82-4-.67-.08-.11-.38-.08-.58-.09-1.11-.06-2.22-.13-3.34-.17a2.32,2.32,0,0,0-2,.5,1.89,1.89,0,0,1-2.12.61c-.62-.13-1.27-.11-1.9-.19s-1,.19-1,.92a3.86,3.86,0,0,0,4.09,4.19c2,0,4-.21,6,0Z"/><path d="M40.59,24.76l1.85.23c-.11.71.49.78.91.86a7.46,7.46,0,0,1,4.25,2.29,3.54,3.54,0,0,0,1.58.83c.33.1.73.13.84-.21.33-1,.94-.6,1.52-.38A8.9,8.9,0,0,1,56,32.1c-.33.19-.56,0-.85-.15a9,9,0,0,0-5.9-1.57c-.26,0-.49.16-.67-.24a4.46,4.46,0,0,0-4.48-2.35,1.54,1.54,0,0,0-1.33,1.06,1.32,1.32,0,0,0,.68,1.53c1.87,1.29,4.11,2.23,6.19,1.66a5.74,5.74,0,0,1,3.5.14,8.09,8.09,0,0,1,4,2.75c.24.3.55.6.21,1.11a8.49,8.49,0,0,0-7.5-3.2,16.34,16.34,0,0,1-5.11-.55c-.39-.1-.78-.2-1.16-.33-1.29-.42-1.29-.43-1.56,1.23.71-.59,1.07-.2,1.39.38a2.69,2.69,0,0,0,2.94,1.49,5.7,5.7,0,0,1,2.56.17c.2.06.41.07.37.33s-.26.23-.46.18A25.74,25.74,0,0,0,45,35.46a3.68,3.68,0,0,1-1.94-.5c-.1-.07-.28-.19-.3-.17-.79.83-1.75,0-2.36.15a17.16,17.16,0,0,1-4.24.61,5.18,5.18,0,0,0-1.17.18c-.41.12-1,.28-1.25-.32a5.48,5.48,0,0,1,3-.35,3.23,3.23,0,0,0,3.06-1.46c.32-.42.6-1.06,1.32-.44C41.05,31.57,41,31.51,39.6,32a18.24,18.24,0,0,1-6.51.87,8.71,8.71,0,0,0-6.38,2.24c-.27.23-.28.22-.9.36,1.12-2,5-4.47,6.74-3.72,2.32,1,4.16.05,6.1-.73,1.54-.61,2.09-1.47,1.8-2.32s-1.43-1.19-3-.68c-1.19.4-2.7.49-2.89,2.24,0,.27-.28.23-.47.2-2.55-.41-4.69.6-6.75,1.91a2.84,2.84,0,0,1-.43.21s-.06,0-.18-.09a10.07,10.07,0,0,1,5.55-4.26c.23-.07.49-.2.6.13.35,1.05,1,.61,1.65.37A3.68,3.68,0,0,0,35.69,28a8.87,8.87,0,0,1,4.21-2.17C40.41,25.75,41.1,25.59,40.59,24.76Z"/><path d="M26.83,48.63a10.7,10.7,0,0,0,1.35,3.46c-2.07-1.43-3.29-3.57-4.6-6-.49,3,.36,5.42,1,7.91a9.74,9.74,0,0,1-2.83-4.53,22.16,22.16,0,0,1-1-4.19c0-.26.08-.63-.23-.75s-.59.21-.78.43c-.5.55-1,1.15-1.51,1.7.62-4.17,2.73-7.65,5.22-11-.48,2.56-1.19,5.08-.88,7.83.68-.52.55-1.45,1.42-1.84a3.12,3.12,0,0,0,1.43,3.31A12.57,12.57,0,0,0,29,46c.69.16.5-.26.39-.62a10.32,10.32,0,0,1-.5-3.78,4.58,4.58,0,0,1,.82-2.54c-.26,3.69,1.48,6.13,3.66,8.43.74.77,1.32,1.2,2.31.23.12,1.19-.45,2.12-.42,3.06.09,3-2.33,3.94-4.35,5.2l2-2.4a2.23,2.23,0,0,0,.54-1.54c0-.51-.22-.79-.71-.69-2.29.45-3.81-.64-5-2.42a2.77,2.77,0,0,0-.65-.51l-.18-.1Zm5.84,1.28c-1.64-.63-2.87-2.11-4.86-2.43C29.39,50.16,30,50.49,32.67,49.91Z"/><path d="M59.64,46.16c-1.08,2-2,4.12-4.19,5.28a9.94,9.94,0,0,0,1-3.16c-.76.18-1.07.78-1.4,1.24A3.9,3.9,0,0,1,51,51.36c-1.12-.19-1.28.35-1,1.31a6.65,6.65,0,0,0,1.85,2.67c-1.22,0-3.33-1.76-3.47-2.76-.12-.79-.27-1.58-.42-2.36a10.07,10.07,0,0,1-.44-2.4c1.64,1.23,2.33-.15,3.16-1A10.12,10.12,0,0,0,53.55,40a4,4,0,0,1,.19-.71A8.77,8.77,0,0,1,54,44.8c-.28,1.27-.3,1.29,1,1a13.23,13.23,0,0,0,1.85-.48,3.05,3.05,0,0,0,2.28-3.66c.94.23.83,1.16,1.32,1.67.3-.22.25-.54.25-.82a16,16,0,0,0-.93-5.65c-.1-.3-.38-.64-.06-.86s.55.13.75.4A28.61,28.61,0,0,1,64.65,45c.08.28.17.65-.05.79-.39.25-.51-.23-.72-.43a5.66,5.66,0,0,0-.4-.44c-.26-.21-.45-.67-.87-.48s-.14.58-.17.87a16.24,16.24,0,0,1-2.68,7.49c-.18.26-.39.51-.59.76s-.41.34-.62.2,0-.38.09-.59A13.15,13.15,0,0,0,59.64,46.16ZM50.29,50c2.74.92,4-.58,5.3-2.49C53.48,47.8,52.17,49.21,50.29,50Z"/><path d="M66.87,51.64l.75,1.23a9.43,9.43,0,0,0,0-4.06,20.86,20.86,0,0,0-1.06-3.94c-.1-.28-.43-.6-.16-.87s.59,0,.88.11a2.32,2.32,0,0,0,.47,0,43.36,43.36,0,0,0-3.37-6.83A18.15,18.15,0,0,1,66.88,41c.54,1,1,2,1.47,3,.13.28.33.68.23.88-.23.44-.63-.15-1.14.11A28.25,28.25,0,0,1,69,50.44a20.22,20.22,0,0,1,0,5.76c-.79,0-.77-.92-1.43-1.14-.36,1.25-.71,2.5-1.09,3.74a11.89,11.89,0,0,1-1.68,3.43c-.14.19-.25.46-.52.44s-.29-.34-.36-.55c-.23-.69-.44-1.38-.65-2.07-.4-1.33-.44-1.33-1.66-.57-.81.5-1.63,1-2.47,1.46a3,3,0,0,1-3.39-.15c-1.58-1.13-3.14-2.3-4.78-3.49.67-.32,1,.09,1.31.33,1,.73,2.11,1.31,3.16,2a3.06,3.06,0,0,0,3.87-.18c1-.82,2.1-1.59,3.16-2.37,1.25-.93,1.28-.92,1.75.59.12.38.23.76.44,1.45C66.09,56.7,66.34,54.24,66.87,51.64Z"/><path d="M16.22,56.69l-.08-.48c.25-.23.2-.38-.11-.49l-.12-.7c-.16-.22-.31-.21-.47,0a2.2,2.2,0,0,1-.68,1l-.55-.73h0c0-.31-.05-.62-.07-.93a3.53,3.53,0,0,1,0-1.55l.07-1c0-.06,0-.11,0-.14.42-.56.19-1.19.22-1.8,0-1.7.77-3.19,1.3-4.85-.66,0-1.59,0-.84-1.06.26.1.35.6.76.3.29-.09.69-.34.85-.23.37.25-.06.63,0,1,.05.57-.41.9-.55,1.37l-.24.58v.4l-.23.56v.64c-.1.24-.29.48,0,.73a2.6,2.6,0,0,1-.1,1.24,2.23,2.23,0,0,0-.21,2.15c.1.27.3.54.55.08.2-.24.3-.6.71-.59.48.47,0,1.19.45,1.68.08.25-.33.53,0,.77a1.18,1.18,0,0,0,.24.92.9.9,0,0,1,.08.21s0,.07,0,.11a.74.74,0,0,0,.22.63h0l.18.49c.26.61.53,1.21.79,1.82.11.26.25.31.45.09L19,58.3a.41.41,0,0,0,.05-.19l.12-.47c.15,0,.26-.1.09-.25l.11-.49.17-.42c.72-.13,1.13.44,1.59.8a37.65,37.65,0,0,0,3.94,2.82l.44.19h1c.35.2.53,0,.71-.26l.48-.23.48-.27.37-.23.36-.22h0c.43.07.3.35.24.61l-.2.12a.68.68,0,0,0-.55.36c0,.09-.06.13-.15.1l-.3.21-.05,0-.42.25L27,61l-.21.13-.48.13c-.33,0-.65-.2-1,0l-.51-.09L24.53,61a5,5,0,0,1-1.89-1l-.33-.21a.16.16,0,0,1-.17-.1l-.23-.17-.49-.31-.23-.17a2.61,2.61,0,0,1-.28-.17.53.53,0,0,0-.15-.08l0,0h-.25l-.19.27a.67.67,0,0,0-.24.63v.06a.77.77,0,0,0-.24.67l0,0a2.25,2.25,0,0,0-.54,1.7l-.06.24-.47,0-.19-.26a.56.56,0,0,0-.31-.46l0,0-.2-.3a2,2,0,0,1-.53-1,.65.65,0,0,0-.25-.61.63.63,0,0,1-.22-.59l-.18-.38a1.55,1.55,0,0,1-.3-.88l-.18-.56a.17.17,0,0,1-.05-.21Z"/><path d="M70.18,62a1.14,1.14,0,0,1-.28-.79,10.18,10.18,0,0,1,.58-2.83,1.4,1.4,0,0,0,.15-1c0-1.48,0-3,0-4.43a1.55,1.55,0,0,0-.12-1,1.46,1.46,0,0,1-.11-1l-.14-.71-.1-.74-.1-.43-.13-.78c.19-.32-.06-.64,0-1l1.27.68a56.82,56.82,0,0,0-2.06-6.07l.11-.51a36.75,36.75,0,0,1,4.11,9.9L71.79,50l-.06,0c-.33.54-.12,1.14-.24,1.71a.82.82,0,0,0,0,.84,7.49,7.49,0,0,1-.2,3l-.15.23v2.13a.8.8,0,0,0-.21.63.76.76,0,0,1,0,.81l-.22.38C70.92,60.55,70.13,61.16,70.18,62Z"/><path d="M36.46,44c.6-3.27,4-4.36,5.27-7.57.69,2.57,2.71,3.64,4,5.32.51.68,1.25,1.3.9,2.43-1.23-1.88-2.83-3.44-5-3.52S38,42.51,36.46,44Z"/><path d="M31.1,60c-.57.9-1.14,1.8-1.69,2.7a29.5,29.5,0,0,0-2.47,4.93c-.27.72-.53.92-1.14.33a16,16,0,0,1-3.39-4.68c.84.57,1.68,1.14,2.51,1.72s1.2.34,1.71-.34a33.77,33.77,0,0,1,3.26-4c.31-.31.66-.58,1-.86Z"/><path d="M60.87,63.57a17.46,17.46,0,0,1-3.77,4.62c-.26.22-.5.24-.63-.15-1-2.84-2.75-5.28-4.08-8a12.38,12.38,0,0,1,3.14,3.11l.44.57c1.45,1.92,1.67,1.95,3.61.43l1.08-.84Z"/><path d="M13,59.81l-.56.47a35.2,35.2,0,0,1-.68-9c0-.39.31-1-.24-1.17s-.65.36-.95.58a.67.67,0,0,1-.69.2,29.32,29.32,0,0,1,2.83-7l.36.57v0l-.21.42a18.78,18.78,0,0,0-1,3c.42.2.54-.14.76-.26s.38-.17.55,0,.05.34,0,.54a24.07,24.07,0,0,0-.63,4.47,7.27,7.27,0,0,0,.13,4.54l.05,1c-.33.44,0,.79.18,1.15Z"/><path d="M55.08,58c3.62.14,5.52-2.36,7.56-4.66.38-.43.56-1,1.39-1.14.62-.08.29-1.13.82-2a7.58,7.58,0,0,1-.42,3.9c-.05.1-.2.26-.23.25-1.12-.57-1.28.6-1.76,1a24.71,24.71,0,0,1-4,3.1A2.55,2.55,0,0,1,55.08,58Z"/><path d="M28.11,58a3.07,3.07,0,0,1-3.77.35,16.79,16.79,0,0,1-4.08-3.67c-.15-.18-.27-.44-.47-.54-1.44-.72-1.71-1.29-1.24-3.05.1,1.21,1.35,1.21,1.9,2a16.91,16.91,0,0,0,2.07,2.33C24.07,56.91,25.7,58.28,28.11,58Z"/><path d="M44.19,45.82c-.67-.82-1.94-1-2.22-2.19,0-.18-.18-.42-.41-.33a.76.76,0,0,0-.35.43c-.4,1.13-1.51,1.47-2.31,2.17A7.65,7.65,0,0,1,41,42.41c.25-.25.5-.55.92-.27A6.18,6.18,0,0,1,44.19,45.82Z"/><path d="M31.09,42.07c1.38.8,1.38.8,2.19-1.09.43,2.18.17,4.17.81,6A11.47,11.47,0,0,1,31.09,42.07Z"/><path d="M52.18,42.1a11.88,11.88,0,0,1-3,4.91,21.25,21.25,0,0,0,.45-6c.71.45.57,1.24,1,1.59C51.25,43,51.51,42,52.18,42.1Z"/><path d="M48.79,39.65a7.29,7.29,0,0,0-4-2.09c-.3-.07-.76,0-.7-.47s.53-.17.8-.17C47.58,37,48.32,37.47,48.79,39.65Z"/><path d="M34.25,39.63c.51-1.88,1.55-2.69,3.22-2.66a1.86,1.86,0,0,1,.71,0c.34.13.87-.51,1,.13.07.42-.54.36-.86.43A10.25,10.25,0,0,0,34.25,39.63Z"/><path d="M48.17,63.14l-.74-5.69C48.7,58.4,49.11,61.24,48.17,63.14Z"/><path d="M47.38,53c-.7-.46-1.08-.86-1.13-1.51a13.33,13.33,0,0,0-.33-3.08c-.06-.2-.11-.51.16-.62s.43.15.49.38A18.27,18.27,0,0,1,47.38,53Z"/><path d="M15.67,44.23c-.41.3-.5-.2-.76-.3a27.46,27.46,0,0,1,4.26-7c-.35.61-.69,1.22-1.06,1.82a33.06,33.06,0,0,0-2.33,4.45C15.65,43.48,15.24,43.83,15.67,44.23Z"/><path d="M35,62.9a5.47,5.47,0,0,1,.43-5.13C35.81,59.52,35.08,61.19,35,62.9Z"/><path d="M36.88,47.91c.46,3.12.22,4.26-1.08,5A15.29,15.29,0,0,1,36.88,47.91Z"/><path d="M55.35,70.83c-.07-.08-.11-.21-.26-.11a2.83,2.83,0,0,1-3.32.35c.93,0,1.54-1.27,2.73-.56.14.08.64-.12.82.33Z"/><path d="M32.46,69.62c-1.6-.25-2.87-.38-3.85-1.64A4.5,4.5,0,0,1,32.46,69.62Z"/><path d="M50.77,69.68a3.79,3.79,0,0,1,3.69-1.63C53.5,69.34,52.22,69.28,50.77,69.68Z"/><path d="M29.11,59.68c.06-.26.19-.54-.24-.61l3.85-2.62.22.29A21.52,21.52,0,0,1,29.11,59.68Z"/><path d="M31.41,71.07c-.57.82-1.37.35-2.07.51-.48.12-.62-.39-.91-.61.47-.08.62-1,.87-.76C29.94,70.82,30.94,70.39,31.41,71.07Z"/><path d="M33.71,33.66c-.4,1.38-1.34,1.71-2.52,2.19A5.52,5.52,0,0,1,33.71,33.66Z"/><path d="M12.69,57.13a7.27,7.27,0,0,1-.13-4.54Z"/><path d="M49.46,33.67a5.7,5.7,0,0,1,2.68,2.22C50.86,35.4,50,35,49.46,33.67Z"/><path d="M15.67,52.7c-.25.46-.45.19-.55-.08a2.23,2.23,0,0,1,.21-2.15C15.53,51.2,15,52,15.67,52.7Z"/><path d="M13.05,44.46l-.36-.57c.29-.66,1.86-4.34,2.53-4.77C15.22,40,13.45,43.7,13.05,44.46Z"/><path d="M16.83,53.79c-.41-.49,0-1.21-.45-1.68.13-.06.22-.65.36-.11A7.57,7.57,0,0,1,16.83,53.79Z"/><path d="M19.28,62.2a2.25,2.25,0,0,1,.54-1.7A4.4,4.4,0,0,1,19.28,62.2Z"/><path d="M14.45,49.84c0,.61.2,1.24-.22,1.8A4.4,4.4,0,0,1,14.45,49.84Z"/><path d="M69.94,47.31c-.06.32.19.64,0,1C69.86,48,69.4,47.63,69.94,47.31Z"/><path d="M14.21,55.25l.55.73C14.22,56.31,14.22,56.3,14.21,55.25Z"/><path d="M12.92,59.29c-.19-.36-.51-.71-.18-1.15Z"/><path d="M25.29,61.24c.33-.18.65,0,1,0A.71.71,0,0,1,25.29,61.24Z"/><path d="M15.43,49.23c-.28-.25-.09-.49,0-.73A.65.65,0,0,1,15.43,49.23Z"/><path d="M70.52,51.92a1.55,1.55,0,0,1,.12,1A1.54,1.54,0,0,1,70.52,51.92Z"/><path d="M70.63,57.32a1.4,1.4,0,0,1-.15,1Z"/><path d="M14.21,51.78l-.07,1A1.44,1.44,0,0,1,14.21,51.78Z"/><path d="M27.19,60c-.18.23-.36.46-.71.26Z"/><path d="M14.15,54.33c0,.31,0,.62.07.93A1.2,1.2,0,0,1,14.15,54.33Z"/><path d="M17.11,55.48a1.18,1.18,0,0,1-.24-.92A1.36,1.36,0,0,1,17.11,55.48Z"/><path d="M16,55.72c.31.11.36.26.11.49Z"/><path d="M15.69,46.9l.24-.58C16.17,46.65,15.81,46.72,15.69,46.9Z"/><path d="M18.75,62.46l.47,0c0,.17,0,.28-.2.29S18.78,62.62,18.75,62.46Z"/><path d="M70.27,50.22l.14.71Z"/><path d="M15.45,47.86l.23-.56C15.92,47.61,15.55,47.68,15.45,47.86Z"/><path d="M28.36,60.16a.68.68,0,0,1,.55-.36Z"/><path d="M19.52,56.48l-.17.42A.36.36,0,0,1,19.52,56.48Z"/><path d="M25.49,60.29l-.44-.19Z"/><path d="M16.22,56.69l.16.51Z"/><path d="M27.44,60.75l.42-.25Z"/><path d="M16.43,57.41l.18.56Z"/><path d="M19.24,57.39c.17.15.06.21-.09.25Z"/><path d="M18.25,61.74a.56.56,0,0,1,.31.46Z"/><path d="M70.07,49.05l.1.43Z"/><path d="M15.44,55c.16-.21.31-.22.47,0Z"/><path d="M18.79,58.82c-.2.22-.34.17-.45-.09Z"/><path d="M20,59.72a.67.67,0,0,1,.24-.63Z"/><path d="M17.37,56.43a.74.74,0,0,1-.22-.63A.79.79,0,0,1,17.37,56.43Z"/><path d="M28.15,59.52l-.48.27Z"/><path d="M17.31,59.82a.65.65,0,0,1,.25.61Z"/><path d="M19.8,60.45a.77.77,0,0,1,.24-.67A.87.87,0,0,1,19.8,60.45Z"/><path d="M17.55,56.91l-.18-.49Z"/><path d="M26.75,61.13,27,61Z"/><path d="M21.91,59.56l.23.17Z"/><path d="M18.09,61.48l.2.3Z"/><path d="M12.85,44.86l.21-.42Z"/><path d="M22.31,59.83l.33.21Z"/><path d="M19,58.11a.41.41,0,0,1-.05.19A.12.12,0,0,1,19,58.11Z"/><path d="M20.47,58.82h0Z"/><path d="M16.91,58.85l.18.38Z"/><path d="M20.76,58.83a.53.53,0,0,1,.15.08h-.09Z"/><path d="M21.19,59.08l.23.17Z"/><path d="M27.91,60.47l.3-.21Z"/><path d="M28.88,59.07l-.36.22Z"/><path d="M24.53,61l.25.14Z"/><path d="M71.5,52.54a.82.82,0,0,1,0-.84A1.21,1.21,0,0,1,71.5,52.54Z"/><path d="M70.93,58.51a.8.8,0,0,1,.21-.63C71.14,58.11,71.16,58.35,70.93,58.51Z"/><path d="M70.68,59.7l.22-.38C70.9,59.49,70.87,59.64,70.68,59.7Z"/><path d="M71.73,50l.06,0Z"/><path d="M71.15,55.75l.15-.23Z"/><path d="M25.75,73.5l.06,0h0Z"/><path d="M57.45,73.48l-.06.06.07,0Z"/><path d="M43.53,81.89h0Z"/><path class="cls-3" d="M32.67,49.91c-2.65.58-3.28.25-4.86-2.43C29.8,47.8,31,49.28,32.67,49.91Z"/><path d="M26.83,48.63l0-.29.18.1Z"/><path class="cls-3" d="M50.29,50c1.88-.74,3.19-2.15,5.3-2.49C54.27,49.37,53,50.87,50.29,50Z"/></svg>