<svg id="Capa_1" data-name="Capa 1" xmlns="http://www.w3.org/2000/svg" viewBox="0 0 248.01 240.49"><defs><style>.cls-1{fill:#fff;}</style></defs><title>svg</title><path d="M222,67.79c0-9.84-1.06-10.88-11-10.9C195.46,56.86,84,56.06,84,56.46H60.47c0-5.19,0-10,0-14.73,0-5.42-2.77-7.63-8.08-7.85C36.91,33.24,26.13,43.22,26.09,59q-.16,60.42,0,120.85c0,17.69,9.15,26.78,26.86,26.79q79.17,0,158.34,0c10,0,10.72-.8,10.73-11.1Q222,131.65,222,67.79ZM37.57,61.36c0-10.77,2.28-13.73,11.11-15V159.87l-10.6,2.62c-.2-2.64-.51-4.84-.52-7.05Q37.52,108.4,37.57,61.36ZM210.06,194.7c-2.91.16-5.61.42-8.31.42q-73.49,0-147,0a51.94,51.94,0,0,1-6.11-.26c-6.84-.8-10.68-4.74-10.76-11.6-.08-6.68,4-10.13,10.26-11.31,12.31-2.34,12.32-2.32,12.32-15.11V68.66c8.91,0,17.26-.22,25.57.18,1.7.09,3.67,2.25,4.88,3.91,8.85,12.13,19.19,32.92,26,37.11,2.69,1.65,7,4.22,10.78,4.41,12.47.63,25.57.28,38.07.27,4.42,0,9.73-.37,9.57,5.77s-5.56,5.45-9.9,5.45c-18.88,0-37.76-.16-56.63.06-15,.18-24.94,9.79-24.8,23.34.12,11.83,9,21.65,20.83,22.27a265.94,265.94,0,0,0,29.07,0c2.42-.13,6.24-3,6.68-5.14.94-4.55-2.89-5.8-6.9-5.8-8.17,0-16.33.14-24.49-.07-8.46-.21-13.65-4.62-13.83-11.29-.18-7,5.1-11.52,14.08-11.57,18.63-.1,37.26.21,55.87-.21a32.22,32.22,0,0,0,14.39-3.75c6.12-3.38,8.12-9.68,6.81-16.53s-5.38-11.5-12.28-13.1a47.61,47.61,0,0,0-9.83-1.1c-8.64-.15-17.29,0-26.83,0,7.26-11.34,13.77-21.61,20.44-31.77a5.23,5.23,0,0,1,3.59-2.25c16-.15,32-.1,48.42-.1Z"/><path class="cls-1" d="M130.1,102.36C98.87,97.44,77.68,70.62,93.27,68.41c1.29-.19,67.06.2,68.28.19,16-.15,32-.1,48.43-.1v126c-2.92.15-5.62.42-8.32.42q-73.49,0-146.95,0a51.85,51.85,0,0,1-6.11-.26c-6.85-.81-10.69-4.75-10.77-11.61-.08-6.68,4-10.12,10.26-11.3,12.31-2.34,12.32-2.33,12.32-15.11q0-40.19,0-80.36c0-2.26,0-4.67,0-8,8.9,0,11.12-.13,19.34,0,1.7.08,3.39.08,3.93.43,12.89,18.87,29.37,37.7,33.2,40.73,2.69,2.69,7.55,4.44,11.31,4.63,12.47.63,25,.25,37.49.23,4.42,0,9.73-.36,9.58,5.77s-5.56,5.45-9.9,5.45c-18.88,0-37.76-.16-56.64.07-15,.17-24.94,9.79-24.8,23.33.12,11.84,9,21.65,20.84,22.28a265.76,265.76,0,0,0,29.06,0c2.42-.14,6.24-3,6.69-5.15.94-4.54-2.89-5.8-6.91-5.79-8.16,0-16.33.13-24.49-.07-8.46-.21-13.65-4.62-13.82-11.29-.18-7,5.09-11.53,14.07-11.58,18.63-.1,37.26.22,55.87-.2a32.29,32.29,0,0,0,14.4-3.75c6.11-3.39,8.11-9.68,6.8-16.54s-5.38-11.49-12.28-13.09a46.91,46.91,0,0,0-9.82-1.1C155.72,102.53,139.53,103.84,130.1,102.36Zm39.31,54.71c-2.29-2.16-4.36-5-7.15-6.44-2-1-6.49-1.23-7.2-.11a9.49,9.49,0,0,0-.32,7.88c1.3,2.82,4.21,4.9,8,9-2.65,1.75-5.85,2.81-7.14,5s-2.26,6.6-1,8.48c2.52,3.82,6.16,2.05,9.05-.71,2-1.9,4-3.76,6.24-5.87,2.7,2.55,4.77,5.38,7.56,6.83,2,1.05,6.49,1.23,7.2.11a9.49,9.49,0,0,0,.32-7.88c-1.3-2.82-4.2-4.9-6.16-7,1.61-5.95,13.3-8.87,5.73-15.88C178.2,144.63,175.29,154.63,169.41,157.07Z"/><path class="cls-1" d="M48.59,46.15V159.69L38,162.32c-.2-2.64-.51-4.85-.51-7q0-47,0-94.08C37.51,50.41,39.76,47.46,48.59,46.15Z"/><path d="M169.41,157.07c5.88-2.44,8.79-12.44,15.13-6.57,7.57,7-4.12,9.93-5.73,15.88,2,2.11,4.86,4.19,6.16,7a9.49,9.49,0,0,1-.32,7.88c-.71,1.12-5.18.94-7.2-.11-2.79-1.45-4.86-4.28-7.56-6.83-2.25,2.11-4.26,4-6.24,5.87-2.89,2.76-6.53,4.53-9.05.71-1.24-1.88-.35-6.15,1-8.48s4.49-3.25,7.14-5c-3.81-4.13-6.72-6.21-8-9a9.49,9.49,0,0,1,.32-7.88c.71-1.12,5.18-.94,7.2.11C165.05,152.08,167.12,154.91,169.41,157.07Z"/><polygon class="cls-1" points="180.42 68.49 68.71 68.35 100.82 83.46 180.17 83.46 180.42 68.49"/><path d="M96.56,79.43c5.89-2.44,8.8-12.44,15.13-6.57,7.57,7-4.11,9.92-5.72,15.88,2,2.11,4.86,4.19,6.16,7a9.49,9.49,0,0,1-.32,7.88c-.71,1.12-5.19.94-7.2-.11-2.79-1.46-4.87-4.29-7.57-6.83-2.25,2.11-4.26,4-6.24,5.87-2.88,2.75-6.53,4.52-9,.71-1.24-1.88-.35-6.15,1-8.48s4.49-3.26,7.13-5c-3.81-4.13-6.71-6.21-8-9a9.47,9.47,0,0,1,.33-7.87c.71-1.12,5.18-.94,7.2.11C92.2,74.44,94.27,77.27,96.56,79.43Z"/></svg>