<svg id="Capa_1" data-name="Capa 1" xmlns="http://www.w3.org/2000/svg" viewBox="0 0 248.01 240.49"><defs><style>.cls-1{fill:#fff;}</style></defs><title>svg</title><path d="M60.94,172.06V124.55c0-8.42.22-16.84-.07-25.25-.23-6.53.69-11.92,9.1-13.14-7.72-2.26-9.64-7.13-9.14-14,.52-7.1,0-14.28.23-21.41.61-16.08,12.25-28.1,28.33-28.25q51.66-.49,103.32,0c16.68.14,28.57,12.54,29.2,29.26s.62,16.64-15.7,16.81c-2.23,0-4.46.25-7.49.44v8.62c0,28.57-.12,57.14.08,85.71,0,6.73-.63,12.4-8.94,13.85,9.21,5.74,11.4,14,7.81,28-2.14,8.3-8.35,13.06-18.26,13.09q-64.66.18-129.35,0c-13.79,0-23.87-9.92-24-23.57-.18-25.71-2.9-22.32,21.35-22.52C51.51,172,55.57,172.06,60.94,172.06ZM187,68.49h-7.13q-31.36,0-62.73,0c-9.44,0-10.06-.75-10.28-9.91a59.45,59.45,0,0,0-1-10.6c-1.82-8.68-8.42-14-16.65-13.86-7.94.14-14.71,5.29-15.91,13.71S72.25,65,71.8,73.73c6.49,2.25,12.4,3.91,17.93,6.39,2.16,1,4.84,3.79,4.83,5.75s-2.72,4.75-4.9,5.72c-5.53,2.47-11.42,4.14-18.14,6.46v108.7h7.24q48.19,0,96.4,0c11.25,0,12-1.05,11.93-12.28,0-4.16-1.6-5.91-5.32-6.86S174.23,185.77,171,184c-2.58-1.43-5.51-4-6.14-6.54-.35-1.46,3.29-4.65,5.73-5.86,5.14-2.57,13-2.91,15.44-6.84,2.78-4.44,1-11.82,1-17.93C187,121.06,187,95.33,187,68.49ZM114.09,33.81c2,8.46,3.64,15.72,5.27,22.79h90.27c2.66-11.57-4.75-22.43-17.76-22.69-8.14-.17-16.3-.1-24.45-.1Q140.75,33.79,114.09,33.81Zm-53.63,150H37.61c.22,7.66-2.37,15.78,5.42,20.38,3.08,1.82,8.9,2.1,11.88.37C62.85,199.89,61.05,191.67,60.46,183.77Z"/><path class="cls-1" d="M187,68.49c0,26.84,0,52.57,0,78.29,0,6.11,1.8,13.49-1,17.93-2.45,3.93-10.3,4.27-15.44,6.84-2.44,1.21-6.08,4.4-5.73,5.86.63,2.57,3.56,5.11,6.14,6.54,3.28,1.82,7.13,2.71,10.82,3.65s5.3,2.7,5.32,6.86c0,11.23-.68,12.27-11.93,12.28q-48.21,0-96.4,0H71.52V98.05c6.72-2.32,12.61-4,18.14-6.46,2.18-1,4.88-3.74,4.9-5.72s-2.67-4.78-4.83-5.75C84.2,77.64,78.29,76,71.8,73.73c.45-8.73.29-17.42,1.51-25.91s8-13.57,15.91-13.71C97.45,34,104.05,39.29,105.87,48a59.45,59.45,0,0,1,1,10.6c.22,9.16.84,9.89,10.28,9.91q31.37.06,62.73,0Zm-52.5,91.83c10.95,0,21.89,0,32.84,0,4.23,0,8.49-.9,7.81-5.75-.29-2.13-4.77-5.2-7.4-5.25q-32.44-.63-64.91,0c-2.51,0-5,3.59-7.44,5.52,2.6,1.81,5.11,5,7.8,5.18C113.57,160.68,124,160.32,134.47,160.32Zm.59-23c10.94,0,21.91.35,32.82-.26,2.64-.15,5.11-3.48,7.66-5.34-2.55-1.87-5.06-5.31-7.65-5.36q-32.44-.65-64.9,0c-2.58,0-5.1,3.49-7.65,5.35,2.55,1.87,5,5.2,7.66,5.35C113.65,137.72,124.36,137.36,135.06,137.36Zm.39-23c10.69,0,21.41.35,32.06-.24,2.74-.15,7.2-2.92,7.58-5.07.86-4.84-3.32-5.93-7.59-5.92-21.38,0-42.77-.16-64.14.25-2.69,0-7.19,2.93-7.57,5.08-.86,4.84,3.32,6,7.59,5.92C114.07,114.36,124.76,114.4,135.45,114.4ZM118.2,183.22c5.59,0,11.25.52,16.73-.25,2.2-.31,4-3.45,6-5.3-2-1.85-3.89-5.2-6-5.29-11.15-.53-22.35-.54-33.5,0-2.12.1-4.08,3.45-6.11,5.29,2,1.85,3.88,5,6.13,5.3C107,183.75,112.61,183.22,118.2,183.22Zm17.27-91.86c3.81,0,7.75.59,11.37-.23,2.16-.49,3.8-3.22,5.68-4.95-1.9-2-3.66-5.42-5.71-5.6a137.76,137.76,0,0,0-22.8,0c-2,.15-3.77,3.21-5.65,4.93,1.9,2,3.5,5,5.75,5.62C127.67,92.06,131.66,91.36,135.47,91.36Z"/><path class="cls-1" d="M114.09,33.81q26.64,0,53.33,0c8.15,0,16.31-.07,24.45.1,13,.26,20.42,11.12,17.76,22.69H119.36C117.73,49.53,116.05,42.27,114.09,33.81Z"/><path class="cls-1" d="M60.46,183.77c.59,7.9,2.39,16.12-5.55,20.75-3,1.73-8.8,1.45-11.88-.37-7.79-4.6-5.2-12.72-5.42-20.38Z"/><path d="M134.47,160.32c-10.44,0-20.9.36-31.3-.25-2.69-.16-5.2-3.37-7.8-5.18,2.48-1.93,4.93-5.47,7.44-5.52q32.44-.66,64.91,0c2.63.05,7.11,3.12,7.4,5.25.68,4.85-3.58,5.78-7.81,5.75C156.36,160.27,145.42,160.32,134.47,160.32Z"/><path d="M135.06,137.36c-10.7,0-21.41.36-32.06-.26-2.65-.15-5.11-3.48-7.66-5.35,2.55-1.86,5.07-5.3,7.65-5.35q32.45-.65,64.9,0c2.59,0,5.1,3.49,7.65,5.36-2.55,1.86-5,5.19-7.66,5.34C157,137.71,146,137.36,135.06,137.36Z"/><path d="M135.45,114.4c-10.69,0-21.38,0-32.07,0-4.27,0-8.45-1.08-7.59-5.92.38-2.15,4.88-5,7.57-5.08,21.37-.41,42.76-.2,64.14-.25,4.27,0,8.45,1.08,7.59,5.92-.38,2.15-4.84,4.92-7.58,5.07C156.86,114.75,146.14,114.4,135.45,114.4Z"/><path d="M118.2,183.22c-5.59,0-11.25.53-16.73-.25-2.25-.32-4.1-3.45-6.13-5.3,2-1.84,4-5.19,6.11-5.29,11.15-.54,22.35-.53,33.5,0,2.07.09,4,3.44,6,5.29-2,1.85-3.78,5-6,5.3C129.45,183.74,123.79,183.22,118.2,183.22Z"/><path d="M135.47,91.36c-3.81,0-7.8.7-11.36-.25-2.25-.61-3.85-3.66-5.75-5.62,1.88-1.72,3.65-4.78,5.65-4.93a137.76,137.76,0,0,1,22.8,0c2.05.18,3.81,3.65,5.71,5.6-1.88,1.73-3.52,4.46-5.68,4.95C143.22,92,139.28,91.36,135.47,91.36Z"/></svg>