<svg id="Capa_1" data-name="Capa 1" xmlns="http://www.w3.org/2000/svg" viewBox="0 0 548.41 384.69"><defs><style>.cls-1,.cls-6,.cls-7{opacity:0.35;}.cls-2{fill:#fff;}.cls-3,.cls-4{fill:none;}.cls-3{stroke:#000;stroke-width:0.75px;}.cls-3,.cls-4,.cls-7{stroke-miterlimit:10;}.cls-4{stroke:#d3d3d3;}.cls-5{opacity:0.18;}.cls-7{stroke:#1d1d1b;}.cls-8,.cls-9{font-size:18px;letter-spacing:-0.01em;}.cls-8{font-family:ArialNarrow, Arial;}.cls-9{font-family:ArialNarrow-Bold, Arial;font-weight:700;}</style></defs><title>svg-imagen-horario</title><g class="cls-1"><path d="M47.64,20.17l2.43,2.42-5.21,5.24c1.75,3.18,2.88,4.82,3.37,4.91A2.3,2.3,0,0,0,50,32l1.27,3.16a4.13,4.13,0,0,1-2.43,1.49,5.13,5.13,0,0,1-2.31-.3c-.77-.28-2.21-2.38-4.3-6.3l-.72.77v5.65H38.18V20.53h3.33v5.75Z"/><path d="M58.26,19.36l2.88,1.09-.34,1.12h4.64L65,25H62.43l4,10.77-3.11,1.07-4.12-11L54.61,36.8l-3.15-1L56,25l-3.32,0L53,21.57h4.38Zm1.49,12,1.79,2-3.32,3.33-1.8-2Z"/><path d="M26.11,40.53h10.1a1.74,1.74,0,0,1,1.47,1.37l0,4.71a4,4,0,0,1-1,2.19,9.56,9.56,0,0,1-2.3,1.28l.93,1.48a3.89,3.89,0,0,0,2.92,1.86L38,57l-1.89-.35q-1.83-.37-3.89-3.85l-.74-1.4-1.84.87v4.18l-3.28,0V53.39L25,50.63l1.27-.8,0-4.93L27.91,44H25.37ZM29.59,44v4.51l3.51-1.38c.85-.31,1.27-.82,1.27-1.51V44Z"/><path d="M45.47,39.36l2.88,1.09L48,41.57h4.64L52.18,45H49.64l4,10.77-3.1,1.07-4.13-11L41.83,56.8l-3.15-1L43.22,45l-3.31,0,.25-3.42h4.39Zm1.49,12,1.79,2-3.31,3.33-1.81-2Z"/><path d="M54.64,40.53H65.28l-.44,3.52H61.06v7.6c-.13,1.18.26,1.88,1.19,2.1l-.85,3.3a3.53,3.53,0,0,1-2.71-1,4,4,0,0,1-1.15-2.88V44.75L59.05,44H54.28Z"/><path d="M66.4,40.62H78V44L71.3,44v1.86h5.3l-.38,3.22H71.3v4.14l6.89-.8,1,3.54L67,57.49,66.59,54,68,53.71V49.1H66.52l.33-3H68l0-1.36L69.87,44H66.4Z"/></g><rect x="108.84" y="15" width="204.5" height="46.54" rx="23.27"/><path class="cls-2" d="M157.21,28.27h15v4.32h-8.64V35h6.84l-.48,4.17h-6.36v5.34l8.9-1,1.27,4.57-15.77,2-.49-4.57,1.79-.3v-6h-1.88l.43-3.89h1.48V33.55l2.43-.89-4.48,0Z"/><path class="cls-2" d="M175.36,28.12l11.23,0a3.11,3.11,0,0,1,2.37,2,8.84,8.84,0,0,1,.54,2.78l-4,.79c0-.95-.89-1.35-2.68-1.21h-3.11l9.52,9.32q1.05,1.37.27,4.59-.78,2.05-3.89,2.33H178a3.9,3.9,0,0,1-2.11-1.69,10.56,10.56,0,0,1-1.2-3.1l4.15-1.41c.11,1.15.58,1.71,1.4,1.67l4,0c.61-.15.51-.59-.31-1.34l-8.85-8.66,2.18-1.72h-2.79Z"/><path class="cls-2" d="M191.82,28.15h13.74L205,32.69h-4.89v9.83c-.17,1.52.34,2.42,1.54,2.7l-1.1,4.27A4.65,4.65,0,0,1,197,48.15a5.16,5.16,0,0,1-1.47-3.73V33.6l2-.94h-6.16Z"/><path class="cls-2" d="M215.11,26.64l3.72,1.4-.44,1.46h6L223.77,34H220.5l5.19,13.91-4,1.38-5.33-14.23L210.4,49.16l-4.07-1.24,5.87-14h-4.28l.33-4.42h5.66ZM217,42.08l2.32,2.54-4.29,4.3-2.33-2.52Z"/><path class="cls-2" d="M227.3,28.17h16.25v9.2a12.22,12.22,0,0,1-.45,4.45A10.79,10.79,0,0,1,240.68,46a7.34,7.34,0,0,1-4,2.49c-1.44.32-4.74.41-9.92.29l0-4.3,2.88,0-1.7-.85V32.66h-1.45Zm5.1,4.49V44.54a5.79,5.79,0,0,0,4-.7,5.06,5.06,0,0,0,2.23-2.56c.37-1,.49-3.9.35-8.62Z"/><path class="cls-2" d="M250.14,28l0,20.68h-4.56v-20Z"/><path class="cls-2" d="M256.4,28.1v2l1.18-2h10c1.24.35,1.82,2.08,1.74,5.21V47c-.24,1.11-1.18,1.69-2.83,1.74H254.94a2.55,2.55,0,0,1-3-2.24V29Zm0,4.47V44.23h8.45V32.57Z"/><rect x="336.63" y="15" width="204.5" height="46.54" rx="23.27"/><path class="cls-2" d="M382.24,28.1h4.5l0,10.83,2.57,0-.43,3.63h-2V44h8.09l-.47,4.75-13.94,0L381.2,44h.95V42.64h-1.48l.39-3.7h1.15Z"/><path class="cls-2" d="M404.6,26.64l3.72,1.4-.44,1.46h6L413.26,34H410l5.19,13.91-4,1.38-5.33-14.23-5.95,14.11-4.07-1.24,5.87-14h-4.28l.33-4.42h5.66Zm1.92,15.44,2.32,2.54-4.29,4.3-2.33-2.52Z"/><path class="cls-2" d="M432.07,26.7l4.78,0v1.49H442a2.19,2.19,0,0,1,2.08,2.08L444,44q-.78,3.27-2.17,4.16a6.25,6.25,0,0,1-3.43.88V44.5q1.23.11,1-5.86V32.81H436.9V48.07l-4.88.86,0-16.12h-2V48.33l-4.87.62,0-15.27,1.65-1h-2.1L426,28.23h6.12Z"/><path class="cls-2" d="M450.4,28.1v2l1.18-2h10c1.23.35,1.81,2.08,1.74,5.21V47c-.24,1.11-1.18,1.69-2.83,1.74H448.93a2.54,2.54,0,0,1-3-2.24V29Zm0,4.47V44.23h8.45V32.57Z"/><path class="cls-2" d="M465.16,28.15H478.9l-.56,4.54h-4.89v9.83c-.17,1.52.35,2.42,1.55,2.7l-1.11,4.27a4.62,4.62,0,0,1-3.5-1.34,5.12,5.12,0,0,1-1.48-3.73V33.6l1.95-.94H464.7Z"/><path class="cls-2" d="M488.45,26.64l3.73,1.4-.44,1.46h6L497.11,34h-3.27L499,47.9l-4,1.38-5.33-14.23-5.95,14.11-4.07-1.24,5.88-14h-4.29l.34-4.42h5.66Zm1.93,15.44,2.31,2.54-4.28,4.3-2.33-2.52Z"/><rect class="cls-3" x="13.93" y="70.22" width="520.56" height="299.52"/><line class="cls-4" x1="314.16" y1="70.01" x2="314.16" y2="369.01"/><rect class="cls-5" x="20.94" y="78.47" width="504.27" height="38.25"/><rect class="cls-5" x="20.94" y="127.87" width="504.27" height="38.25"/><rect class="cls-5" x="20.94" y="175.68" width="504.27" height="38.25"/><rect class="cls-5" x="20.94" y="225.09" width="504.27" height="38.25"/><rect class="cls-6" x="20.94" y="272.89" width="504.27" height="38.25"/><rect class="cls-7" x="20.94" y="322.3" width="504.27" height="38.25"/><text class="cls-8" transform="translate(26.2 102.35)">Lunes</text><text class="cls-8" transform="translate(26.2 150.89)">Martes</text><text class="cls-8" transform="translate(26.2 197.4)">Miércoles</text><text class="cls-8" transform="translate(26.2 247.96)">Jueves</text><text class="cls-9" transform="translate(26.2 295.49)">Sábado</text><text class="cls-9" transform="translate(26.2 345.04)">Domingo</text><path d="M196.49,104.79l3.07-5.38-2.83-5h1.78l1.28,2.43c.24.45.44.84.59,1.16.24-.43.46-.81.65-1.13l1.41-2.46h1.69l-2.9,4.87,3.12,5.5h-1.74l-1.73-3.23-.45-.86-2.21,4.09Z"/><path d="M196.49,152.32l3.07-5.39-2.83-5h1.78l1.28,2.42c.24.45.44.84.59,1.17.24-.44.46-.81.65-1.13l1.41-2.46h1.69l-2.9,4.87,3.12,5.5h-1.74l-1.73-3.23-.45-.87-2.21,4.1Z"/><path d="M156.79,200.86V188h4.62a4.82,4.82,0,0,1,2.14.36,2.77,2.77,0,0,1,1.14,1.2,4.18,4.18,0,0,1,.44,1.95,3.57,3.57,0,0,1-.75,2.36,3.48,3.48,0,0,1-2.19,1.15,3.43,3.43,0,0,1,.89.72,9.54,9.54,0,0,1,1.09,1.64l1.82,3.51h-1.74l-1.39-2.68a17.22,17.22,0,0,0-1.22-2.12,2.43,2.43,0,0,0-.8-.74,2.58,2.58,0,0,0-1.08-.19h-1.59v5.73Zm1.38-7.2h3a3.53,3.53,0,0,0,1.47-.24,1.81,1.81,0,0,0,.8-.75,2.27,2.27,0,0,0,.29-1.18,2.07,2.07,0,0,0-.56-1.54,2.29,2.29,0,0,0-1.67-.55h-3.3Z"/><path d="M172,197.85l1.32.2a4.12,4.12,0,0,1-1.19,2.26,3.37,3.37,0,0,1-4.74-.48,5.57,5.57,0,0,1-1-3.56,5.86,5.86,0,0,1,1-3.69,3.09,3.09,0,0,1,2.54-1.27,3,3,0,0,1,2.44,1.25,5.71,5.71,0,0,1,1,3.61v.42h-5.65a4.15,4.15,0,0,0,.73,2.38,1.92,1.92,0,0,0,1.56.8C171,199.77,171.66,199.13,172,197.85Zm-4.21-2.56H172a3.65,3.65,0,0,0-.51-1.81,1.85,1.85,0,0,0-3-.14A3.21,3.21,0,0,0,167.82,195.29Z"/><path d="M174.71,204.43V191.52h1.18v1.21a3,3,0,0,1,1-1.08,2.16,2.16,0,0,1,1.21-.34,2.63,2.63,0,0,1,1.62.54,3.59,3.59,0,0,1,1.15,1.63,6.89,6.89,0,0,1,.44,2.63,6,6,0,0,1-1,3.67,2.87,2.87,0,0,1-2.32,1.29,2.15,2.15,0,0,1-1.1-.31,2.81,2.81,0,0,1-.88-.87v4.54Zm1.16-8.19a4.71,4.71,0,0,0,.6,2.67,1.62,1.62,0,0,0,2.88,0,6.44,6.44,0,0,0,0-5.45,1.71,1.71,0,0,0-1.45-.88,1.76,1.76,0,0,0-1.4.94A4.91,4.91,0,0,0,175.87,196.24Z"/><path d="M182.06,196.19a5.67,5.67,0,0,1,1-3.65,3.22,3.22,0,0,1,5.06,0,5.44,5.44,0,0,1,1,3.55,5.85,5.85,0,0,1-1,3.75,3.22,3.22,0,0,1-5.07,0A5.6,5.6,0,0,1,182.06,196.19Zm1.32,0a4.52,4.52,0,0,0,.65,2.7,1.94,1.94,0,0,0,1.61.89,1.88,1.88,0,0,0,1.55-.9,5.87,5.87,0,0,0,0-5.37,2,2,0,0,0-1.62-.89,1.88,1.88,0,0,0-1.55.89A4.57,4.57,0,0,0,183.38,196.18Z"/><path d="M189.9,198.06l1.27-.25a2.33,2.33,0,0,0,.62,1.47,2.12,2.12,0,0,0,2.62.07,1.38,1.38,0,0,0,.45-1.06,1,1,0,0,0-.39-.86,4.81,4.81,0,0,0-1.3-.53,9.48,9.48,0,0,1-2-.79,2.34,2.34,0,0,1-.78-.87,2.76,2.76,0,0,1-.28-1.24,2.62,2.62,0,0,1,.76-1.94,2.83,2.83,0,0,1,2.09-.75,3.29,3.29,0,0,1,1.48.31,2.35,2.35,0,0,1,1,.82,3.68,3.68,0,0,1,.47,1.49l-1.25.21a1.51,1.51,0,0,0-1.64-1.53,1.87,1.87,0,0,0-1.24.34,1,1,0,0,0-.41.86,1,1,0,0,0,.39.82,7.63,7.63,0,0,0,1.39.56,10.63,10.63,0,0,1,2.06.81,2.11,2.11,0,0,1,.73.83,2.8,2.8,0,0,1,.25,1.24,2.89,2.89,0,0,1-.83,2.17,3.12,3.12,0,0,1-2.29.83C191.24,201.07,190.19,200.06,189.9,198.06Z"/><path d="M197.42,189.79V188h1.27v1.82Zm0,11.07v-9.34h1.27v9.34Z"/><path d="M205.34,197.44l1.26.2a4.36,4.36,0,0,1-1.09,2.55,2.87,2.87,0,0,1-2.1.88,3,3,0,0,1-2.44-1.24,5.87,5.87,0,0,1-1-3.65,5.76,5.76,0,0,1,1-3.65,3,3,0,0,1,2.48-1.22,2.84,2.84,0,0,1,2,.74,3.67,3.67,0,0,1,1,2.21l-1.24.23a2.81,2.81,0,0,0-.64-1.41,1.45,1.45,0,0,0-1.08-.47,1.89,1.89,0,0,0-1.57.85,4.64,4.64,0,0,0-.62,2.69,5,5,0,0,0,.59,2.76,1.81,1.81,0,0,0,1.53.86,1.61,1.61,0,0,0,1.24-.57A3.07,3.07,0,0,0,205.34,197.44Z"/><path d="M207.41,189.79V188h1.28v1.82Zm0,11.07v-9.34h1.28v9.34Z"/><path d="M209.9,196.19a5.67,5.67,0,0,1,1-3.65,3.23,3.23,0,0,1,5.07,0,5.44,5.44,0,0,1,1,3.55,5.92,5.92,0,0,1-1,3.75,3.23,3.23,0,0,1-5.08,0A5.66,5.66,0,0,1,209.9,196.19Zm1.31,0a4.59,4.59,0,0,0,.65,2.7,2,2,0,0,0,1.62.89,1.88,1.88,0,0,0,1.55-.9,4.58,4.58,0,0,0,.64-2.69,4.47,4.47,0,0,0-.65-2.68,1.94,1.94,0,0,0-1.61-.89,1.89,1.89,0,0,0-1.56.89A4.64,4.64,0,0,0,211.21,196.18Zm1.29-5.82.94-2.46h1.68l-1.56,2.46Z"/><path d="M218.23,200.86v-9.34h1.15v1.32a3,3,0,0,1,1-1.15,2.55,2.55,0,0,1,1.38-.38,2.59,2.59,0,0,1,1.12.24,2.29,2.29,0,0,1,.84.64,2.63,2.63,0,0,1,.47,1,8.86,8.86,0,0,1,.16,1.92v5.74h-1.28v-5.69a4.91,4.91,0,0,0-.17-1.5,1.54,1.54,0,0,0-.55-.74,1.45,1.45,0,0,0-.85-.26,1.76,1.76,0,0,0-1.47.7,4,4,0,0,0-.55,2.38v5.11Z"/><path d="M229.69,198.06l1.37-.17c.15,1.1.66,1.65,1.51,1.65a1.38,1.38,0,0,0,1-.34,1.06,1.06,0,0,0,.37-.83.88.88,0,0,0-.52-.84,10.58,10.58,0,0,0-1.26-.44,4,4,0,0,1-1.31-.6,2.14,2.14,0,0,1-.66-.84,2.56,2.56,0,0,1-.25-1.13,2.51,2.51,0,0,1,.32-1.26,2,2,0,0,1,.87-.85,3,3,0,0,1,1.37-.29,2.6,2.6,0,0,1,1.91.67,2.69,2.69,0,0,1,.73,1.93l-1.4.08a1.57,1.57,0,0,0-.4-1,1.3,1.3,0,0,0-.88-.27,1.45,1.45,0,0,0-.87.23.75.75,0,0,0-.31.6.77.77,0,0,0,.28.59,3.89,3.89,0,0,0,1.28.53,4.91,4.91,0,0,1,1.53.65,2.1,2.1,0,0,1,.72.89,3.06,3.06,0,0,1,.25,1.31,2.73,2.73,0,0,1-.68,1.88,2.7,2.7,0,0,1-2.13.76C230.83,201,229.88,200,229.69,198.06Z"/><path d="M235.62,201l1.73-8.88h1L236.61,201Z"/><path d="M238.86,192.27h2.56a3.72,3.72,0,0,1,1.47.22,2.39,2.39,0,0,1,.91.74,3.78,3.78,0,0,1,.65,1.35,7.59,7.59,0,0,1,.24,2.07,6.62,6.62,0,0,1-.25,1.94,4.14,4.14,0,0,1-.63,1.3,2.38,2.38,0,0,1-.92.72,3.46,3.46,0,0,1-1.39.25h-2.64Zm1.4,1.45v5.68h1.06a2.64,2.64,0,0,0,1-.13,1.09,1.09,0,0,0,.49-.38,2.37,2.37,0,0,0,.33-.83,7.33,7.33,0,0,0,.12-1.48,6.6,6.6,0,0,0-.13-1.5,2,2,0,0,0-.4-.87,1.28,1.28,0,0,0-.67-.41,4.86,4.86,0,0,0-1.14-.08Z"/><path d="M196.49,249.39l3.07-5.38-2.83-5h1.78l1.28,2.43c.24.45.44.84.59,1.16.24-.43.46-.81.65-1.12l1.41-2.47h1.69l-2.9,4.87,3.12,5.5h-1.74l-1.73-3.22-.45-.87-2.21,4.09Z"/><path d="M148.07,296.5h-1.28V286.42a7.18,7.18,0,0,1-1.19,1.08,8.63,8.63,0,0,1-1.37.83V286.8a7.8,7.8,0,0,0,1.87-1.51,5.72,5.72,0,0,0,1.14-1.73h.83Z"/><path d="M151.09,290.15a11.13,11.13,0,0,1,.86-4.92,2.76,2.76,0,0,1,2.55-1.67,2.65,2.65,0,0,1,2.35,1.36,10,10,0,0,1,1,5.23A10.87,10.87,0,0,1,157,295a2.73,2.73,0,0,1-2.55,1.68,2.81,2.81,0,0,1-2.44-1.48C151.4,294.26,151.09,292.56,151.09,290.15Zm1.31,0a10,10,0,0,0,.59,4.21,1.76,1.76,0,0,0,1.53,1.07,1.7,1.7,0,0,0,1.47-1.08,9.83,9.83,0,0,0,.59-4.2,10,10,0,0,0-.59-4.21,1.78,1.78,0,0,0-1.55-1.07,1.69,1.69,0,0,0-1.45,1.08A9.86,9.86,0,0,0,152.4,290.14Z"/><path d="M159.69,289v-1.8h1.46V289Zm0,7.53v-1.8h1.46v1.8Z"/><path d="M162.72,290.15a11,11,0,0,1,.86-4.92,2.76,2.76,0,0,1,2.55-1.67,2.65,2.65,0,0,1,2.35,1.36,10,10,0,0,1,1,5.23,10.87,10.87,0,0,1-.86,4.89,2.73,2.73,0,0,1-2.55,1.68,2.81,2.81,0,0,1-2.44-1.48C163,294.26,162.72,292.56,162.72,290.15Zm1.31,0a10,10,0,0,0,.59,4.21,1.76,1.76,0,0,0,1.53,1.07,1.7,1.7,0,0,0,1.47-1.08,9.83,9.83,0,0,0,.59-4.2,10,10,0,0,0-.59-4.21,1.78,1.78,0,0,0-1.55-1.07,1.71,1.71,0,0,0-1.46,1.08A10.07,10.07,0,0,0,164,290.14Z"/><path d="M170.56,290.15a11.13,11.13,0,0,1,.86-4.92,2.76,2.76,0,0,1,2.55-1.67,2.64,2.64,0,0,1,2.35,1.36,10,10,0,0,1,1,5.23,11,11,0,0,1-.85,4.89,2.75,2.75,0,0,1-2.56,1.68,2.81,2.81,0,0,1-2.44-1.48Q170.57,293.77,170.56,290.15Zm1.31,0a9.78,9.78,0,0,0,.6,4.21,1.74,1.74,0,0,0,1.52,1.07,1.7,1.7,0,0,0,1.47-1.08,9.83,9.83,0,0,0,.59-4.2,10,10,0,0,0-.59-4.21,1.77,1.77,0,0,0-1.55-1.07,1.69,1.69,0,0,0-1.45,1.08A9.86,9.86,0,0,0,171.87,290.14Z"/><path d="M181.59,296.5l2.82-9h1l3,9h-1.11l-.85-2.73h-3.07l-.8,2.73Zm2.1-3.7h2.49l-.76-2.5c-.24-.77-.41-1.39-.52-1.87a13,13,0,0,1-.4,1.72Z"/><path d="M189,296.5v-9h1.46l1.73,6.39.35,1.33q.12-.49.39-1.44l1.75-6.28H196v9H195V289l-2.13,7.54H192l-2.12-7.67v7.67Z"/><path d="M206.19,295.35a4.74,4.74,0,0,1-1.33,1,3.21,3.21,0,0,1-1.44.34,2.52,2.52,0,0,1-1.89-.72,2.66,2.66,0,0,1-.7-1.94,3.06,3.06,0,0,1,.33-1.44,2.48,2.48,0,0,1,.9-1,4.55,4.55,0,0,1,1.74-.52,9.66,9.66,0,0,0,2.29-.55v-.41a2,2,0,0,0-.34-1.34,1.81,1.81,0,0,0-1.47-.56,2,2,0,0,0-1.33.37,2.38,2.38,0,0,0-.65,1.41l-1.26-.21a3.06,3.06,0,0,1,3.43-2.88,3.33,3.33,0,0,1,1.87.46,2,2,0,0,1,.86,1.12,8.56,8.56,0,0,1,.17,2v2.11a25,25,0,0,0,.09,2.79,4.09,4.09,0,0,0,.32,1.12h-1.33A4,4,0,0,1,206.19,295.35Zm-.1-3.54a7.72,7.72,0,0,1-2.09.6,4.07,4.07,0,0,0-1.13.32,1.29,1.29,0,0,0-.5.51,1.58,1.58,0,0,0-.18.76,1.42,1.42,0,0,0,.41,1.07,1.53,1.53,0,0,0,1.13.4,2.28,2.28,0,0,0,1.25-.36,2.21,2.21,0,0,0,.83-1,4.25,4.25,0,0,0,.28-1.75Z"/><path d="M217.36,296.5h-1.28V286.42a7.18,7.18,0,0,1-1.19,1.08,8.2,8.2,0,0,1-1.37.83V286.8a7.8,7.8,0,0,0,1.87-1.51,5.72,5.72,0,0,0,1.14-1.73h.83Z"/><path d="M221.14,289v-1.8h1.46V289Zm0,7.53v-1.8h1.46v1.8Z"/><path d="M224.17,290.15a11,11,0,0,1,.86-4.92,2.75,2.75,0,0,1,2.55-1.67,2.65,2.65,0,0,1,2.35,1.36,10.08,10.08,0,0,1,1,5.23,10.87,10.87,0,0,1-.86,4.89,2.73,2.73,0,0,1-2.55,1.68,2.8,2.8,0,0,1-2.44-1.48C224.48,294.26,224.17,292.56,224.17,290.15Zm1.31,0a10,10,0,0,0,.59,4.21,1.76,1.76,0,0,0,1.53,1.07,1.7,1.7,0,0,0,1.47-1.08,10,10,0,0,0,.59-4.2,9.75,9.75,0,0,0-.6-4.21,1.75,1.75,0,0,0-1.54-1.07,1.71,1.71,0,0,0-1.46,1.08A10.07,10.07,0,0,0,225.48,290.14Z"/><path d="M232,290.15a11.13,11.13,0,0,1,.86-4.92,2.76,2.76,0,0,1,2.55-1.67,2.65,2.65,0,0,1,2.35,1.36,10,10,0,0,1,1,5.23A10.87,10.87,0,0,1,238,295a2.73,2.73,0,0,1-2.55,1.68,2.81,2.81,0,0,1-2.44-1.48C232.32,294.26,232,292.56,232,290.15Zm1.31,0a10,10,0,0,0,.59,4.21,1.76,1.76,0,0,0,1.53,1.07,1.7,1.7,0,0,0,1.47-1.08,9.83,9.83,0,0,0,.59-4.2,10,10,0,0,0-.59-4.21,1.78,1.78,0,0,0-1.55-1.07,1.69,1.69,0,0,0-1.45,1.08A9.86,9.86,0,0,0,233.32,290.14Z"/><path d="M243.84,296.5v-9h2.75a4.48,4.48,0,0,1,1.43.17,1.94,1.94,0,0,1,1,.87,3,3,0,0,1,.38,1.56,3.06,3.06,0,0,1-.61,2,2.55,2.55,0,0,1-2.12.77H244.8v3.67Zm1-4.73h1.89a1.8,1.8,0,0,0,1.31-.41,1.63,1.63,0,0,0,.41-1.23,1.87,1.87,0,0,0-.2-.92,1.13,1.13,0,0,0-.49-.52,2.49,2.49,0,0,0-1-.15H244.8Z"/><path d="M250.43,296.5v-9h1.46l1.73,6.39.35,1.33q.12-.49.39-1.44l1.75-6.28h1.3v9h-.93V289l-2.13,7.54h-.87l-2.12-7.67v7.67Z"/><path d="M146.75,344.08l1.23-.14c.2,1.36.77,2,1.74,2a1.75,1.75,0,0,0,1.16-.45,3.36,3.36,0,0,0,.89-1.57,8.48,8.48,0,0,0,.37-2.65V341a3.24,3.24,0,0,1-1.08,1.23,2.4,2.4,0,0,1-1.38.46,2.75,2.75,0,0,1-2.2-1.13,4.71,4.71,0,0,1-.92-3.09,4.85,4.85,0,0,1,1-3.18,2.89,2.89,0,0,1,2.33-1.17,2.93,2.93,0,0,1,1.81.65,4.15,4.15,0,0,1,1.3,1.92,11.09,11.09,0,0,1,.46,3.65,13.46,13.46,0,0,1-.49,4.12,4.51,4.51,0,0,1-1.34,2.14,3,3,0,0,1-1.9.68,2.66,2.66,0,0,1-2-.82A3.85,3.85,0,0,1,146.75,344.08Zm5.25-5.69a3.44,3.44,0,0,0-.61-2.17,1.76,1.76,0,0,0-1.4-.8,1.83,1.83,0,0,0-1.47.85,3.54,3.54,0,0,0-.65,2.25,3.08,3.08,0,0,0,.61,2,1.88,1.88,0,0,0,1.48.75,1.8,1.8,0,0,0,1.45-.75A3.46,3.46,0,0,0,152,338.39Z"/><path d="M155.16,339.53v-1.8h1.46v1.8Zm0,7.53v-1.8h1.46v1.8Z"/><path d="M158.19,340.71a11,11,0,0,1,.86-4.92,2.74,2.74,0,0,1,2.55-1.67,2.65,2.65,0,0,1,2.35,1.36,10.08,10.08,0,0,1,1,5.23,11,11,0,0,1-.86,4.89,2.73,2.73,0,0,1-2.55,1.68,2.8,2.8,0,0,1-2.44-1.48C158.5,344.82,158.19,343.12,158.19,340.71Zm1.31,0a9.83,9.83,0,0,0,.59,4.21,1.76,1.76,0,0,0,1.53,1.07,1.73,1.73,0,0,0,1.47-1.08,10,10,0,0,0,.59-4.2,9.75,9.75,0,0,0-.6-4.21,1.75,1.75,0,0,0-1.54-1.07,1.7,1.7,0,0,0-1.46,1.09A10,10,0,0,0,159.5,340.7Z"/><path d="M166,340.71a11,11,0,0,1,.86-4.92,2.75,2.75,0,0,1,2.55-1.67,2.65,2.65,0,0,1,2.35,1.36,10.08,10.08,0,0,1,1,5.23,10.87,10.87,0,0,1-.86,4.89,2.73,2.73,0,0,1-2.55,1.68A2.81,2.81,0,0,1,167,345.8C166.34,344.82,166,343.12,166,340.71Zm1.31,0a10,10,0,0,0,.59,4.21,1.76,1.76,0,0,0,1.53,1.07,1.7,1.7,0,0,0,1.47-1.08,15.28,15.28,0,0,0,0-8.41,1.78,1.78,0,0,0-1.55-1.07,1.71,1.71,0,0,0-1.46,1.09A10,10,0,0,0,167.34,340.7Z"/><path d="M177.06,347.06l2.82-9h1l3,9h-1.1l-.85-2.73h-3.08l-.79,2.73Zm2.1-3.7h2.49l-.76-2.5c-.24-.77-.41-1.39-.52-1.87a13,13,0,0,1-.4,1.72Z"/><path d="M184.45,347.06v-9h1.46l1.73,6.39.35,1.33q.12-.5.39-1.44l1.75-6.28h1.3v9h-.93v-7.54l-2.13,7.54h-.87l-2.12-7.67v7.67Z"/><path d="M201.66,345.91a4.88,4.88,0,0,1-1.33,1,3.24,3.24,0,0,1-1.44.34,2.52,2.52,0,0,1-1.89-.72,2.66,2.66,0,0,1-.7-1.94,3,3,0,0,1,.33-1.43,2.44,2.44,0,0,1,.9-1,4.74,4.74,0,0,1,1.74-.52,9.66,9.66,0,0,0,2.29-.55v-.41a2.08,2.08,0,0,0-.34-1.34,1.81,1.81,0,0,0-1.47-.56,2.06,2.06,0,0,0-1.34.37,2.5,2.5,0,0,0-.65,1.41l-1.25-.21a3,3,0,0,1,3.43-2.87,3.34,3.34,0,0,1,1.87.45,1.89,1.89,0,0,1,.85,1.12,7.92,7.92,0,0,1,.18,2v2.11c0,1.48,0,2.41.08,2.79a4.49,4.49,0,0,0,.33,1.12h-1.34A4.06,4.06,0,0,1,201.66,345.91Zm-.1-3.53a8.16,8.16,0,0,1-2.09.59,4.07,4.07,0,0,0-1.13.32,1.23,1.23,0,0,0-.5.51,1.58,1.58,0,0,0-.18.76,1.42,1.42,0,0,0,.41,1.07,1.53,1.53,0,0,0,1.13.4,2.25,2.25,0,0,0,1.24-.36,2.17,2.17,0,0,0,.84-1,4.25,4.25,0,0,0,.28-1.75Z"/><path d="M212.83,347.06h-1.28V337a7.61,7.61,0,0,1-1.19,1.08,8.63,8.63,0,0,1-1.37.83v-1.53a7.8,7.8,0,0,0,1.87-1.51,5.61,5.61,0,0,0,1.14-1.73h.83Z"/><path d="M222.6,345.54v1.52h-6.9a4.43,4.43,0,0,1,.55-2.07,11.93,11.93,0,0,1,2.11-2.7,15.07,15.07,0,0,0,2.36-2.8,3.78,3.78,0,0,0,.55-1.84,2.3,2.3,0,0,0-.57-1.61,1.83,1.83,0,0,0-1.4-.62,1.89,1.89,0,0,0-1.47.67,2.91,2.91,0,0,0-.57,1.93l-1.32-.17a4.34,4.34,0,0,1,1-2.79,3.16,3.16,0,0,1,2.37-.94,2.84,2.84,0,0,1,2.41,1.09,4,4,0,0,1,.82,2.48,4.68,4.68,0,0,1-.64,2.36,17.6,17.6,0,0,1-2.44,3c-.76.79-1.26,1.33-1.48,1.62a4.71,4.71,0,0,0-.54.86Z"/><path d="M224.45,339.53v-1.8h1.46v1.8Zm0,7.53v-1.8h1.46v1.8Z"/><path d="M227.48,340.71a11,11,0,0,1,.86-4.92,2.75,2.75,0,0,1,2.55-1.67,2.65,2.65,0,0,1,2.35,1.36,10.08,10.08,0,0,1,1,5.23,11,11,0,0,1-.86,4.89,2.73,2.73,0,0,1-2.55,1.68,2.8,2.8,0,0,1-2.44-1.48C227.79,344.82,227.48,343.12,227.48,340.71Zm1.31,0a9.83,9.83,0,0,0,.59,4.21,1.76,1.76,0,0,0,1.53,1.07,1.73,1.73,0,0,0,1.47-1.08,10,10,0,0,0,.59-4.2,9.75,9.75,0,0,0-.6-4.21,1.75,1.75,0,0,0-1.54-1.07,1.71,1.71,0,0,0-1.46,1.09A10,10,0,0,0,228.79,340.7Z"/><path d="M235.32,340.71a11,11,0,0,1,.86-4.92,2.75,2.75,0,0,1,2.55-1.67,2.65,2.65,0,0,1,2.35,1.36,10.08,10.08,0,0,1,1,5.23,10.87,10.87,0,0,1-.86,4.89,2.73,2.73,0,0,1-2.55,1.68,2.81,2.81,0,0,1-2.44-1.48C235.63,344.82,235.32,343.12,235.32,340.71Zm1.31,0a10,10,0,0,0,.59,4.21,1.76,1.76,0,0,0,1.53,1.07,1.7,1.7,0,0,0,1.47-1.08,15.28,15.28,0,0,0,0-8.41,1.78,1.78,0,0,0-1.55-1.07,1.71,1.71,0,0,0-1.46,1.09A10,10,0,0,0,236.63,340.7Z"/><path d="M247.12,347.06v-9h1.46l1.73,6.39.35,1.33q.12-.5.39-1.44L252.8,338h1.3v9h-.93v-7.54L251,347.06h-.87l-2.12-7.67v7.67Z"/><path d="M383.62,100l1.34-.14a3.29,3.29,0,0,0,.71,1.83,1.7,1.7,0,0,0,1.28.6,1.93,1.93,0,0,0,1.57-.85,3.7,3.7,0,0,0,.66-2.32,3.22,3.22,0,0,0-.64-2.14,2,2,0,0,0-2.69-.43,2.33,2.33,0,0,0-.8.92l-1.21-.2,1-6.62H390v1.51h-4.16l-.56,3.47a2.84,2.84,0,0,1,4.25.32,4.55,4.55,0,0,1,1,3,5.45,5.45,0,0,1-1,3.24,3,3,0,0,1-2.6,1.35,3.1,3.1,0,0,1-2.29-1A4.08,4.08,0,0,1,383.62,100Z"/><path d="M392.22,95.83V94h1.46v1.8Zm0,7.53v-1.8h1.46v1.8Z"/><path d="M395.25,97a11,11,0,0,1,.86-4.92,2.76,2.76,0,0,1,2.55-1.67A2.65,2.65,0,0,1,401,91.78a10,10,0,0,1,1,5.23,11,11,0,0,1-.86,4.9,2.74,2.74,0,0,1-2.55,1.67,2.81,2.81,0,0,1-2.44-1.48C395.56,101.12,395.25,99.42,395.25,97Zm1.31,0a10,10,0,0,0,.59,4.21,1.76,1.76,0,0,0,1.53,1.07,1.7,1.7,0,0,0,1.47-1.08,9.83,9.83,0,0,0,.59-4.2,10,10,0,0,0-.59-4.21,1.78,1.78,0,0,0-1.55-1.07,1.68,1.68,0,0,0-1.45,1.09A9.81,9.81,0,0,0,396.56,97Z"/><path d="M403.09,97a11.13,11.13,0,0,1,.86-4.92,2.76,2.76,0,0,1,2.55-1.67,2.64,2.64,0,0,1,2.35,1.36,10,10,0,0,1,1,5.23,11.09,11.09,0,0,1-.86,4.9,2.76,2.76,0,0,1-2.56,1.67A2.81,2.81,0,0,1,404,102.1Q403.1,100.63,403.09,97Zm1.31,0a9.75,9.75,0,0,0,.6,4.21,1.74,1.74,0,0,0,1.52,1.07A1.7,1.7,0,0,0,408,101.2a9.83,9.83,0,0,0,.59-4.2,9.79,9.79,0,0,0-.59-4.21,1.77,1.77,0,0,0-1.55-1.07A1.68,1.68,0,0,0,405,92.81,10,10,0,0,0,404.4,97Z"/><path d="M420,102.21a4.74,4.74,0,0,1-1.33,1,3.24,3.24,0,0,1-1.44.34,2.52,2.52,0,0,1-1.89-.72,2.66,2.66,0,0,1-.7-1.94,3,3,0,0,1,.33-1.43,2.44,2.44,0,0,1,.9-1,4.74,4.74,0,0,1,1.74-.52,9.66,9.66,0,0,0,2.29-.55V97a2,2,0,0,0-.34-1.34,1.81,1.81,0,0,0-1.47-.56,2,2,0,0,0-1.33.37,2.38,2.38,0,0,0-.65,1.41l-1.26-.21a3,3,0,0,1,3.43-2.87,3.34,3.34,0,0,1,1.87.45,2,2,0,0,1,.86,1.12,8.56,8.56,0,0,1,.17,2v2.11a24.87,24.87,0,0,0,.09,2.79,4.09,4.09,0,0,0,.32,1.12h-1.33A4,4,0,0,1,420,102.21Zm-.1-3.53a8.16,8.16,0,0,1-2.09.59,4,4,0,0,0-1.13.33,1.27,1.27,0,0,0-.5.5,1.58,1.58,0,0,0-.18.76,1.42,1.42,0,0,0,.41,1.07,1.53,1.53,0,0,0,1.13.4,2.22,2.22,0,0,0,1.24-.36,2.17,2.17,0,0,0,.84-1,4.25,4.25,0,0,0,.28-1.75Z"/><path d="M426.43,92.16V90.64h6.75v1.23a19.52,19.52,0,0,0-2.66,5.18,22.44,22.44,0,0,0-1.32,6.31h-1.31a19.3,19.3,0,0,1,.51-3.77,22.84,22.84,0,0,1,1.32-4.1,18.37,18.37,0,0,1,1.81-3.33Z"/><path d="M435,95.83V94h1.46v1.8Zm0,7.53v-1.8h1.46v1.8Z"/><path d="M438,97a11,11,0,0,1,.86-4.92,2.74,2.74,0,0,1,2.55-1.67,2.65,2.65,0,0,1,2.35,1.36,10.08,10.08,0,0,1,1,5.23,11.09,11.09,0,0,1-.86,4.9,2.74,2.74,0,0,1-2.55,1.67,2.8,2.8,0,0,1-2.44-1.48C438.29,101.12,438,99.42,438,97Zm1.31,0a9.79,9.79,0,0,0,.59,4.21,1.76,1.76,0,0,0,1.53,1.07,1.73,1.73,0,0,0,1.47-1.08,10,10,0,0,0,.59-4.2,9.75,9.75,0,0,0-.6-4.21,1.75,1.75,0,0,0-1.54-1.07,1.7,1.7,0,0,0-1.46,1.09A10,10,0,0,0,439.29,97Z"/><path d="M445.82,97a11,11,0,0,1,.86-4.92,2.75,2.75,0,0,1,2.55-1.67,2.65,2.65,0,0,1,2.35,1.36,10.08,10.08,0,0,1,1,5.23,11,11,0,0,1-.86,4.9,2.74,2.74,0,0,1-2.55,1.67,2.81,2.81,0,0,1-2.44-1.48C446.13,101.12,445.82,99.42,445.82,97Zm1.31,0a10,10,0,0,0,.59,4.21,1.76,1.76,0,0,0,1.53,1.07,1.7,1.7,0,0,0,1.47-1.08,10,10,0,0,0,.59-4.2,10,10,0,0,0-.59-4.21,1.78,1.78,0,0,0-1.55-1.07,1.71,1.71,0,0,0-1.46,1.09A10,10,0,0,0,447.13,97Z"/><path d="M457.65,103.36v-9h2.75a4.48,4.48,0,0,1,1.43.17,1.94,1.94,0,0,1,1,.87,3,3,0,0,1,.38,1.56,3.11,3.11,0,0,1-.61,2,2.58,2.58,0,0,1-2.12.76h-1.88v3.67Zm1-4.73h1.89a1.82,1.82,0,0,0,1.31-.41,1.63,1.63,0,0,0,.41-1.23,1.87,1.87,0,0,0-.2-.92,1.18,1.18,0,0,0-.49-.52,2.53,2.53,0,0,0-1-.14h-1.88Z"/><path d="M464.24,103.36v-9h1.46l1.73,6.39.35,1.33q.12-.5.39-1.44l1.75-6.28h1.3v9h-.93V95.82l-2.13,7.54h-.87l-2.12-7.67v7.67Z"/><path d="M383.62,147.51l1.34-.14a3.29,3.29,0,0,0,.71,1.83,1.68,1.68,0,0,0,1.28.61,2,2,0,0,0,1.57-.85,3.7,3.7,0,0,0,.66-2.32,3.25,3.25,0,0,0-.64-2.15,2,2,0,0,0-2.69-.43,2.4,2.4,0,0,0-.8.92l-1.21-.19,1-6.62H390v1.51h-4.16l-.56,3.47a3,3,0,0,1,2-.81,2.91,2.91,0,0,1,2.28,1.13,4.54,4.54,0,0,1,1,3,5.46,5.46,0,0,1-1,3.25,3.19,3.19,0,0,1-4.89.39A4,4,0,0,1,383.62,147.51Z"/><path d="M392.22,143.35v-1.8h1.46v1.8Zm0,7.54v-1.8h1.46v1.8Z"/><path d="M395.25,144.53a10.94,10.94,0,0,1,.86-4.91,2.76,2.76,0,0,1,2.55-1.67A2.66,2.66,0,0,1,401,139.3a10,10,0,0,1,1,5.23,10.92,10.92,0,0,1-.86,4.9,2.73,2.73,0,0,1-2.55,1.68,2.84,2.84,0,0,1-2.44-1.48C395.56,148.65,395.25,147,395.25,144.53Zm1.31,0a10,10,0,0,0,.59,4.21,1.76,1.76,0,0,0,1.53,1.07,1.7,1.7,0,0,0,1.47-1.09,9.81,9.81,0,0,0,.59-4.19,10,10,0,0,0-.59-4.22,1.77,1.77,0,0,0-1.55-1.06,1.69,1.69,0,0,0-1.45,1.08A9.83,9.83,0,0,0,396.56,144.53Z"/><path d="M403.09,144.53a11.08,11.08,0,0,1,.86-4.91A2.76,2.76,0,0,1,406.5,138a2.65,2.65,0,0,1,2.35,1.35,10,10,0,0,1,1,5.23,11.06,11.06,0,0,1-.86,4.9,2.75,2.75,0,0,1-2.56,1.68,2.84,2.84,0,0,1-2.44-1.48Q403.1,148.16,403.09,144.53Zm1.31,0a9.81,9.81,0,0,0,.6,4.21,1.74,1.74,0,0,0,1.52,1.07,1.7,1.7,0,0,0,1.47-1.09,9.81,9.81,0,0,0,.59-4.19,9.85,9.85,0,0,0-.59-4.22,1.76,1.76,0,0,0-1.55-1.06,1.69,1.69,0,0,0-1.45,1.08A10,10,0,0,0,404.4,144.53Z"/><path d="M420,149.74a4.74,4.74,0,0,1-1.33,1,3.38,3.38,0,0,1-1.44.34,2.52,2.52,0,0,1-1.89-.72,2.66,2.66,0,0,1-.7-1.94A3.06,3.06,0,0,1,415,147a2.48,2.48,0,0,1,.9-1,4.55,4.55,0,0,1,1.74-.52,9.57,9.57,0,0,0,2.29-.56v-.4a2,2,0,0,0-.34-1.34,1.81,1.81,0,0,0-1.47-.57,2,2,0,0,0-1.33.38,2.38,2.38,0,0,0-.65,1.41l-1.26-.21a3.06,3.06,0,0,1,3.43-2.88,3.25,3.25,0,0,1,1.87.46,2,2,0,0,1,.86,1.12,8.56,8.56,0,0,1,.17,2V147a25.13,25.13,0,0,0,.09,2.79,4.19,4.19,0,0,0,.32,1.12h-1.33A4.13,4.13,0,0,1,420,149.74Zm-.1-3.54a7.72,7.72,0,0,1-2.09.6,3.74,3.74,0,0,0-1.13.32,1.29,1.29,0,0,0-.5.51,1.55,1.55,0,0,0-.18.76,1.44,1.44,0,0,0,.41,1.07,1.53,1.53,0,0,0,1.13.4,2.22,2.22,0,0,0,1.24-.36,2.17,2.17,0,0,0,.84-1,4.27,4.27,0,0,0,.28-1.76Z"/><path d="M426.43,139.69v-1.52h6.75v1.23a19.44,19.44,0,0,0-2.66,5.17,22.58,22.58,0,0,0-1.32,6.32h-1.31a19.2,19.2,0,0,1,.51-3.77,22.94,22.94,0,0,1,1.32-4.11,17.93,17.93,0,0,1,1.81-3.32Z"/><path d="M435,143.35v-1.8h1.46v1.8Zm0,7.54v-1.8h1.46v1.8Z"/><path d="M438,144.53a10.94,10.94,0,0,1,.86-4.91,2.74,2.74,0,0,1,2.55-1.67,2.66,2.66,0,0,1,2.35,1.35,10.11,10.11,0,0,1,1,5.23,11.06,11.06,0,0,1-.86,4.9,2.73,2.73,0,0,1-2.55,1.68,2.82,2.82,0,0,1-2.44-1.48C438.29,148.65,438,147,438,144.53Zm1.31,0a9.86,9.86,0,0,0,.59,4.21,1.76,1.76,0,0,0,1.53,1.07,1.72,1.72,0,0,0,1.47-1.09,10,10,0,0,0,.59-4.19,9.81,9.81,0,0,0-.6-4.22,1.74,1.74,0,0,0-1.54-1.06,1.7,1.7,0,0,0-1.46,1.08A10,10,0,0,0,439.29,144.53Z"/><path d="M445.82,144.53a10.94,10.94,0,0,1,.86-4.91,2.75,2.75,0,0,1,2.55-1.67,2.66,2.66,0,0,1,2.35,1.35,10.11,10.11,0,0,1,1,5.23,10.92,10.92,0,0,1-.86,4.9,2.73,2.73,0,0,1-2.55,1.68,2.84,2.84,0,0,1-2.44-1.48C446.13,148.65,445.82,147,445.82,144.53Zm1.31,0a10,10,0,0,0,.59,4.21,1.76,1.76,0,0,0,1.53,1.07,1.7,1.7,0,0,0,1.47-1.09,10,10,0,0,0,.59-4.19,10,10,0,0,0-.59-4.22,1.77,1.77,0,0,0-1.55-1.06,1.71,1.71,0,0,0-1.46,1.08A10,10,0,0,0,447.13,144.53Z"/><path d="M457.65,150.89v-9h2.75a4.48,4.48,0,0,1,1.43.17,1.9,1.9,0,0,1,1,.87,3,3,0,0,1,.38,1.55,3.07,3.07,0,0,1-.61,2,2.58,2.58,0,0,1-2.12.77h-1.88v3.67Zm1-4.73h1.89a1.82,1.82,0,0,0,1.31-.41,1.67,1.67,0,0,0,.41-1.24,1.85,1.85,0,0,0-.2-.91,1.21,1.21,0,0,0-.49-.53,2.71,2.71,0,0,0-1-.14h-1.88Z"/><path d="M464.24,150.89v-9h1.46l1.73,6.38.35,1.34c.08-.33.21-.82.39-1.45l1.75-6.27h1.3v9h-.93v-7.55l-2.13,7.55h-.87l-2.12-7.68v7.68Z"/><path d="M383.62,196.05l1.34-.14a3.29,3.29,0,0,0,.71,1.83,1.7,1.7,0,0,0,1.28.6,1.93,1.93,0,0,0,1.57-.85,3.68,3.68,0,0,0,.66-2.32,3.22,3.22,0,0,0-.64-2.14,2,2,0,0,0-2.69-.43,2.4,2.4,0,0,0-.8.92l-1.21-.19,1-6.62H390v1.51h-4.16l-.56,3.47a2.82,2.82,0,0,1,4.25.31,4.57,4.57,0,0,1,1,3.05,5.45,5.45,0,0,1-1,3.24,3.2,3.2,0,0,1-4.89.4A4.06,4.06,0,0,1,383.62,196.05Z"/><path d="M392.22,191.89v-1.8h1.46v1.8Zm0,7.53v-1.8h1.46v1.8Z"/><path d="M395.25,193.07a10.94,10.94,0,0,1,.86-4.91,2.74,2.74,0,0,1,2.55-1.67,2.66,2.66,0,0,1,2.35,1.35,10,10,0,0,1,1,5.23,11,11,0,0,1-.86,4.9,2.72,2.72,0,0,1-2.55,1.67,2.82,2.82,0,0,1-2.44-1.47C395.56,197.18,395.25,195.48,395.25,193.07Zm1.31,0a10,10,0,0,0,.59,4.21,1.74,1.74,0,0,0,1.53,1.07,1.7,1.7,0,0,0,1.47-1.08,9.83,9.83,0,0,0,.59-4.2,10,10,0,0,0-.59-4.21,1.77,1.77,0,0,0-1.55-1.06,1.69,1.69,0,0,0-1.45,1.08A9.81,9.81,0,0,0,396.56,193.06Z"/><path d="M403.09,193.07a11.08,11.08,0,0,1,.86-4.91,2.74,2.74,0,0,1,2.55-1.67,2.65,2.65,0,0,1,2.35,1.35,10,10,0,0,1,1,5.23A11.09,11.09,0,0,1,409,198a2.74,2.74,0,0,1-2.56,1.67,2.82,2.82,0,0,1-2.44-1.47Q403.1,196.69,403.09,193.07Zm1.31,0a9.75,9.75,0,0,0,.6,4.21,1.72,1.72,0,0,0,1.52,1.07,1.7,1.7,0,0,0,1.47-1.08,15.28,15.28,0,0,0,0-8.41,1.76,1.76,0,0,0-1.55-1.06,1.69,1.69,0,0,0-1.45,1.08A10,10,0,0,0,404.4,193.06Z"/><path d="M420,198.27a4.74,4.74,0,0,1-1.33,1,3.25,3.25,0,0,1-1.44.35,2.49,2.49,0,0,1-1.89-.73,2.64,2.64,0,0,1-.7-1.94,3,3,0,0,1,.33-1.43,2.51,2.51,0,0,1,.9-1,4.76,4.76,0,0,1,1.74-.51,9.57,9.57,0,0,0,2.29-.56v-.4a2.05,2.05,0,0,0-.34-1.35,1.84,1.84,0,0,0-1.47-.56,2,2,0,0,0-1.33.38,2.38,2.38,0,0,0-.65,1.4l-1.26-.21a3,3,0,0,1,3.43-2.87,3.34,3.34,0,0,1,1.87.45,2,2,0,0,1,.86,1.12,8.68,8.68,0,0,1,.17,2v2.11a24.87,24.87,0,0,0,.09,2.79,4,4,0,0,0,.32,1.12h-1.33A4,4,0,0,1,420,198.27Zm-.1-3.53a8.52,8.52,0,0,1-2.09.6,3.74,3.74,0,0,0-1.13.32,1.29,1.29,0,0,0-.5.51,1.55,1.55,0,0,0-.18.76,1.46,1.46,0,0,0,.41,1.07,1.57,1.57,0,0,0,1.13.4,2.22,2.22,0,0,0,1.24-.36,2.14,2.14,0,0,0,.84-1,4.22,4.22,0,0,0,.28-1.75Z"/><path d="M426.43,188.23v-1.52h6.75v1.23a19.44,19.44,0,0,0-2.66,5.17,22.51,22.51,0,0,0-1.32,6.31h-1.31a19.4,19.4,0,0,1,.51-3.77,23.1,23.1,0,0,1,1.32-4.1,17.93,17.93,0,0,1,1.81-3.32Z"/><path d="M435,191.89v-1.8h1.46v1.8Zm0,7.53v-1.8h1.46v1.8Z"/><path d="M438,193.07a10.94,10.94,0,0,1,.86-4.91,2.72,2.72,0,0,1,2.55-1.67,2.66,2.66,0,0,1,2.35,1.35,10.08,10.08,0,0,1,1,5.23,11.09,11.09,0,0,1-.86,4.9,2.72,2.72,0,0,1-2.55,1.67,2.81,2.81,0,0,1-2.44-1.47C438.29,197.18,438,195.48,438,193.07Zm1.31,0a9.79,9.79,0,0,0,.59,4.21,1.74,1.74,0,0,0,1.53,1.07,1.73,1.73,0,0,0,1.47-1.08,10,10,0,0,0,.59-4.2,9.78,9.78,0,0,0-.6-4.21,1.74,1.74,0,0,0-1.54-1.06,1.7,1.7,0,0,0-1.46,1.08A10,10,0,0,0,439.29,193.06Z"/><path d="M445.82,193.07a10.94,10.94,0,0,1,.86-4.91,2.73,2.73,0,0,1,2.55-1.67,2.66,2.66,0,0,1,2.35,1.35,10.08,10.08,0,0,1,1,5.23,11,11,0,0,1-.86,4.9,2.72,2.72,0,0,1-2.55,1.67,2.82,2.82,0,0,1-2.44-1.47C446.13,197.18,445.82,195.48,445.82,193.07Zm1.31,0a10,10,0,0,0,.59,4.21,1.74,1.74,0,0,0,1.53,1.07,1.7,1.7,0,0,0,1.47-1.08,15.28,15.28,0,0,0,0-8.41,1.77,1.77,0,0,0-1.55-1.06,1.71,1.71,0,0,0-1.46,1.08A10,10,0,0,0,447.13,193.06Z"/><path d="M457.65,199.42v-9h2.75a4.16,4.16,0,0,1,1.43.18,1.88,1.88,0,0,1,1,.86,3.05,3.05,0,0,1,.38,1.56,3.09,3.09,0,0,1-.61,2,2.58,2.58,0,0,1-2.12.77h-1.88v3.66Zm1-4.73h1.89a1.78,1.78,0,0,0,1.31-.41,1.63,1.63,0,0,0,.41-1.23,1.89,1.89,0,0,0-.2-.92,1.24,1.24,0,0,0-.49-.52,2.71,2.71,0,0,0-1-.14h-1.88Z"/><path d="M464.24,199.42v-9h1.46l1.73,6.39.35,1.34c.08-.34.21-.82.39-1.45l1.75-6.28h1.3v9h-.93v-7.54l-2.13,7.54h-.87l-2.12-7.67v7.67Z"/><path d="M383.62,244.59l1.34-.14a3.29,3.29,0,0,0,.71,1.83,1.7,1.7,0,0,0,1.28.6,1.93,1.93,0,0,0,1.57-.85,3.68,3.68,0,0,0,.66-2.32,3.22,3.22,0,0,0-.64-2.14,2,2,0,0,0-2.69-.43,2.4,2.4,0,0,0-.8.92l-1.21-.19,1-6.63H390v1.52h-4.16l-.56,3.46a2.84,2.84,0,0,1,4.25.32,4.55,4.55,0,0,1,1,3.05,5.45,5.45,0,0,1-1,3.24,3,3,0,0,1-2.6,1.35,3.1,3.1,0,0,1-2.29-1A4.08,4.08,0,0,1,383.62,244.59Z"/><path d="M392.22,240.43v-1.8h1.46v1.8Zm0,7.53v-1.8h1.46V248Z"/><path d="M395.25,241.61a11,11,0,0,1,.86-4.92,2.76,2.76,0,0,1,2.55-1.67,2.67,2.67,0,0,1,2.35,1.36,10,10,0,0,1,1,5.23,11,11,0,0,1-.86,4.9,2.74,2.74,0,0,1-2.55,1.67,2.82,2.82,0,0,1-2.44-1.47C395.56,245.72,395.25,244,395.25,241.61Zm1.31,0a10,10,0,0,0,.59,4.21,1.76,1.76,0,0,0,1.53,1.07,1.7,1.7,0,0,0,1.47-1.08,9.83,9.83,0,0,0,.59-4.2,10,10,0,0,0-.59-4.21,1.77,1.77,0,0,0-1.55-1.06,1.69,1.69,0,0,0-1.45,1.08A9.81,9.81,0,0,0,396.56,241.6Z"/><path d="M403.09,241.61a11.16,11.16,0,0,1,.86-4.92A2.76,2.76,0,0,1,406.5,235a2.66,2.66,0,0,1,2.35,1.36,10,10,0,0,1,1,5.23,11.09,11.09,0,0,1-.86,4.9,2.76,2.76,0,0,1-2.56,1.67,2.82,2.82,0,0,1-2.44-1.47Q403.1,245.23,403.09,241.61Zm1.31,0a9.75,9.75,0,0,0,.6,4.21,1.74,1.74,0,0,0,1.52,1.07A1.7,1.7,0,0,0,408,245.8a15.28,15.28,0,0,0,0-8.41,1.76,1.76,0,0,0-1.55-1.06,1.69,1.69,0,0,0-1.45,1.08A10,10,0,0,0,404.4,241.6Z"/><path d="M420,246.81a4.74,4.74,0,0,1-1.33,1,3.24,3.24,0,0,1-1.44.34,2.52,2.52,0,0,1-1.89-.72,2.66,2.66,0,0,1-.7-1.94,3,3,0,0,1,.33-1.43,2.51,2.51,0,0,1,.9-1,4.74,4.74,0,0,1,1.74-.52,9.66,9.66,0,0,0,2.29-.55v-.4a2.05,2.05,0,0,0-.34-1.35,1.84,1.84,0,0,0-1.47-.56,2,2,0,0,0-1.33.37,2.38,2.38,0,0,0-.65,1.41l-1.26-.21a3,3,0,0,1,3.43-2.87,3.34,3.34,0,0,1,1.87.45A2,2,0,0,1,421,240a8.68,8.68,0,0,1,.17,1.95v2.11a24.87,24.87,0,0,0,.09,2.79,4,4,0,0,0,.32,1.12h-1.33A4,4,0,0,1,420,246.81Zm-.1-3.53a8.52,8.52,0,0,1-2.09.6,3.74,3.74,0,0,0-1.13.32,1.29,1.29,0,0,0-.5.51,1.55,1.55,0,0,0-.18.76,1.42,1.42,0,0,0,.41,1.06,1.53,1.53,0,0,0,1.13.4,2.22,2.22,0,0,0,1.24-.36,2.17,2.17,0,0,0,.84-1,4.22,4.22,0,0,0,.28-1.75Z"/><path d="M426.43,236.77v-1.53h6.75v1.24a19.29,19.29,0,0,0-2.66,5.17A22.51,22.51,0,0,0,429.2,248h-1.31a19.3,19.3,0,0,1,.51-3.77,23.1,23.1,0,0,1,1.32-4.1,17.93,17.93,0,0,1,1.81-3.32Z"/><path d="M435,240.43v-1.8h1.46v1.8Zm0,7.53v-1.8h1.46V248Z"/><path d="M438,241.61a11,11,0,0,1,.86-4.92,2.74,2.74,0,0,1,2.55-1.67,2.67,2.67,0,0,1,2.35,1.36,10.08,10.08,0,0,1,1,5.23,11.09,11.09,0,0,1-.86,4.9,2.74,2.74,0,0,1-2.55,1.67,2.81,2.81,0,0,1-2.44-1.47C438.29,245.72,438,244,438,241.61Zm1.31,0a9.79,9.79,0,0,0,.59,4.21,1.76,1.76,0,0,0,1.53,1.07,1.73,1.73,0,0,0,1.47-1.08,10,10,0,0,0,.59-4.2,9.75,9.75,0,0,0-.6-4.21,1.74,1.74,0,0,0-1.54-1.06,1.7,1.7,0,0,0-1.46,1.08A10,10,0,0,0,439.29,241.6Z"/><path d="M445.82,241.61a11,11,0,0,1,.86-4.92,2.75,2.75,0,0,1,2.55-1.67,2.67,2.67,0,0,1,2.35,1.36,10.08,10.08,0,0,1,1,5.23,11,11,0,0,1-.86,4.9,2.74,2.74,0,0,1-2.55,1.67,2.82,2.82,0,0,1-2.44-1.47C446.13,245.72,445.82,244,445.82,241.61Zm1.31,0a10,10,0,0,0,.59,4.21,1.76,1.76,0,0,0,1.53,1.07,1.7,1.7,0,0,0,1.47-1.08,15.28,15.28,0,0,0,0-8.41,1.77,1.77,0,0,0-1.55-1.06,1.71,1.71,0,0,0-1.46,1.08A10,10,0,0,0,447.13,241.6Z"/><path d="M457.65,248v-9h2.75a4.16,4.16,0,0,1,1.43.18,1.88,1.88,0,0,1,1,.86,3,3,0,0,1,.38,1.56,3.11,3.11,0,0,1-.61,2,2.58,2.58,0,0,1-2.12.77h-1.88V248Zm1-4.73h1.89a1.78,1.78,0,0,0,1.31-.41,1.63,1.63,0,0,0,.41-1.23,1.89,1.89,0,0,0-.2-.92,1.18,1.18,0,0,0-.49-.52,2.53,2.53,0,0,0-1-.14h-1.88Z"/><path d="M464.24,248v-9h1.46l1.73,6.39.35,1.33q.12-.49.39-1.44l1.75-6.28h1.3v9h-.93v-7.54L468.16,248h-.87l-2.12-7.67V248Z"/><path d="M423.58,297.93l3.07-5.38-2.83-5h1.78l1.28,2.43c.24.45.44.83.59,1.16.24-.43.46-.81.65-1.13l1.41-2.46h1.69l-2.9,4.87,3.12,5.5H429.7L428,294.7l-.45-.87-2.21,4.1Z"/><path d="M423.58,348.49l3.07-5.38-2.83-5h1.78l1.28,2.43c.24.45.44.83.59,1.16.24-.43.46-.81.65-1.13l1.41-2.46h1.69l-2.9,4.87,3.12,5.5H429.7L428,345.26l-.45-.86-2.21,4.09Z"/></svg>