<svg id="Capa_1" data-name="Capa 1" xmlns="http://www.w3.org/2000/svg" xmlns:xlink="http://www.w3.org/1999/xlink" viewBox="0 0 561.37 384.69"><defs><style>.cls-1,.cls-3,.cls-6{fill:none;}.cls-2{clip-path:url(#clip-path);}.cls-3{stroke:#000;stroke-width:0.75px;}.cls-3,.cls-6,.cls-9{stroke-miterlimit:10;}.cls-4,.cls-8,.cls-9{opacity:0.35;}.cls-4{font-size:24px;}.cls-4,.cls-5{font-family:GangofThree, Gang of Three;}.cls-5{font-size:31px;fill:#fff;}.cls-6{stroke:#d3d3d3;}.cls-7{opacity:0.18;}.cls-9{stroke:#1d1d1b;}.cls-10,.cls-11{font-size:18px;letter-spacing:-0.01em;}.cls-10,.cls-12,.cls-14{font-family:ArialNarrow, Arial;}.cls-11,.cls-13{font-family:ArialNarrow-Bold, Arial;font-weight:700;}.cls-12,.cls-14{font-size:20px;}.cls-12{letter-spacing:-0.01em;}.cls-13{font-size:14px;letter-spacing:-0.01em;}.cls-14{letter-spacing:-0.01em;}</style><clipPath id="clip-path"><rect class="cls-1" x="332.76" y="-307.37" width="249.37" height="110.07"/></clipPath></defs><title>svg-</title><g class="cls-2"><image width="255" height="247" transform="translate(112.39 -595.74) scale(2.7)" xlink:href="../../../CLASES/CLASE%202/ENTREGA%20LAURA%20HENAO%20TOVAR/PAGINA%20MAQUETA%201/imagenes/IMG-_inder.png"/></g><rect class="cls-3" x="18.61" y="70.22" width="527.04" height="299.52"/><text class="cls-4" transform="translate(40.33 59.92)">Día</text><rect x="108.84" y="15" width="204.5" height="46.54" rx="23.27"/><text class="cls-5" transform="translate(156.32 48.74)">estadio</text><rect x="336.63" y="15" width="204.5" height="46.54" rx="23.27"/><text class="cls-5" transform="translate(379.94 48.74)">la mota</text><line class="cls-6" x1="322.58" y1="70.01" x2="322.58" y2="369.01"/><rect class="cls-7" x="25.71" y="78.47" width="510.55" height="38.25"/><rect class="cls-7" x="25.71" y="127.87" width="510.55" height="38.25"/><rect class="cls-7" x="25.71" y="175.68" width="510.55" height="38.25"/><rect class="cls-7" x="25.71" y="225.09" width="510.55" height="38.25"/><rect class="cls-8" x="25.71" y="272.89" width="510.55" height="38.25"/><rect class="cls-9" x="25.71" y="322.3" width="510.55" height="38.25"/><text class="cls-10" transform="translate(30.88 102.35)">Lunes</text><text class="cls-10" transform="translate(30.88 150.89)">Martes</text><text class="cls-10" transform="translate(30.88 197.4)">Miércoles</text><text class="cls-10" transform="translate(30.88 247.96)">Jueves</text><text class="cls-11" transform="translate(30.88 295.49)">Sábado</text><text class="cls-11" transform="translate(30.88 345.04)">Domingo</text><text class="cls-12" transform="translate(205.25 104.79)"><tspan xml:space="preserve">x  </tspan></text><text class="cls-12" transform="translate(205.25 152.32)"><tspan xml:space="preserve">x  </tspan></text><text class="cls-12" transform="translate(158.79 200.86)">Reposición <tspan class="cls-13" x="82.39" y="0">S/D </tspan></text><text class="cls-12" transform="translate(205.25 249.39)"><tspan xml:space="preserve">x  </tspan></text><text class="cls-12" transform="translate(144.38 297.93)">10:00 </text><text class="cls-14" transform="translate(188.18 297.93) scale(0.7)">AM</text><text class="cls-12" transform="translate(204.98 297.93)"><tspan xml:space="preserve"> a 1:00 </tspan></text><text class="cls-14" transform="translate(257.31 297.93) scale(0.7)">PM</text><text class="cls-12" transform="translate(274.11 297.93)"><tspan xml:space="preserve">  </tspan></text><text class="cls-12" transform="translate(148.1 348.49)">9:00 </text><text class="cls-14" transform="translate(183.08 348.49) scale(0.7)">AM</text><text class="cls-12" transform="translate(199.88 348.49)"><tspan xml:space="preserve"> a 12:00 </tspan></text><text class="cls-14" transform="translate(261.03 348.49) scale(0.7)">M</text><text class="cls-12" transform="translate(270.39 348.49)"><tspan xml:space="preserve">  </tspan></text><text class="cls-12" transform="translate(379.76 104.79)">5:00 a 7:00 </text><text class="cls-14" transform="translate(462.81 104.79) scale(0.7)">PM</text><text class="cls-12" transform="translate(479.61 104.79)"> </text><text class="cls-12" transform="translate(379.76 152.32)">5:00 a 7:00 </text><text class="cls-14" transform="translate(462.81 152.32) scale(0.7)">PM</text><text class="cls-12" transform="translate(479.61 152.32)"> </text><text class="cls-12" transform="translate(379.76 200.86)">5:00 a 7:00 </text><text class="cls-14" transform="translate(462.81 200.86) scale(0.7)">PM</text><text class="cls-12" transform="translate(479.61 200.86)"><tspan xml:space="preserve">  </tspan></text><text class="cls-12" transform="translate(379.76 249.39)">5:00 a 7:00 </text><text class="cls-14" transform="translate(462.81 249.39) scale(0.7)">PM</text><text class="cls-12" transform="translate(479.61 249.39)"><tspan xml:space="preserve">   </tspan></text><text class="cls-12" transform="translate(425.69 297.93)"><tspan xml:space="preserve">x  </tspan></text><text class="cls-12" transform="translate(425.69 348.49)">x </text></svg>