<svg id="Capa_1" data-name="Capa 1" xmlns="http://www.w3.org/2000/svg" viewBox="0 0 548.41 384.69"><defs><style>.cls-1,.cls-6,.cls-7{opacity:0.35;}.cls-1{font-size:24px;}.cls-1,.cls-2{font-family:GangofThree, Gang of Three;}.cls-2{font-size:31px;fill:#fff;}.cls-3,.cls-4{fill:none;}.cls-3{stroke:#000;stroke-width:0.75px;}.cls-3,.cls-4,.cls-7{stroke-miterlimit:10;}.cls-4{stroke:#d3d3d3;}.cls-5{opacity:0.18;}.cls-7{stroke:#1d1d1b;}.cls-11,.cls-14,.cls-8,.cls-9{font-size:18px;}.cls-10,.cls-11,.cls-14,.cls-8{font-family:ArialNarrow, Arial;}.cls-8,.cls-9{letter-spacing:-0.01em;}.cls-13,.cls-9{font-family:ArialNarrow-Bold, Arial;font-weight:700;}.cls-10,.cls-12{font-size:20px;letter-spacing:-0.01em;}.cls-11{letter-spacing:-0.01em;}.cls-13{font-size:12px;}.cls-14{letter-spacing:-0.01em;}</style></defs><title>svg</title><text class="cls-1" transform="translate(37.57 36.47)">ka<tspan x="-12.74" y="20">rate</tspan></text><rect x="108.84" y="15" width="204.5" height="46.54" rx="23.27"/><text class="cls-2" transform="translate(156.32 48.74)">estadio</text><rect x="336.63" y="15" width="204.5" height="46.54" rx="23.27"/><text class="cls-2" transform="translate(379.94 48.74)">la mota</text><rect class="cls-3" x="13.93" y="70.22" width="520.56" height="299.52"/><line class="cls-4" x1="314.16" y1="70.01" x2="314.16" y2="369.01"/><rect class="cls-5" x="20.94" y="78.47" width="504.27" height="38.25"/><rect class="cls-5" x="20.94" y="127.87" width="504.27" height="38.25"/><rect class="cls-5" x="20.94" y="175.68" width="504.27" height="38.25"/><rect class="cls-5" x="20.94" y="225.09" width="504.27" height="38.25"/><rect class="cls-6" x="20.94" y="272.89" width="504.27" height="38.25"/><rect class="cls-7" x="20.94" y="322.3" width="504.27" height="38.25"/><text class="cls-8" transform="translate(26.2 102.35)">Lunes</text><text class="cls-8" transform="translate(26.2 150.89)">Martes</text><text class="cls-8" transform="translate(26.2 197.4)">Miércoles</text><text class="cls-8" transform="translate(26.2 247.96)">Jueves</text><text class="cls-9" transform="translate(26.2 295.49)">Sábado</text><text class="cls-9" transform="translate(26.2 345.04)">Domingo</text><text class="cls-10" transform="translate(196.37 104.79) scale(0.99 1)"><tspan xml:space="preserve">x  </tspan></text><text class="cls-10" transform="translate(196.37 152.32) scale(0.99 1)"><tspan xml:space="preserve">x  </tspan></text><text class="cls-11" transform="translate(155.67 200.86) scale(0.99 1)">Reposición<tspan class="cls-12" x="70.32" y="0"> </tspan><tspan class="cls-13" x="74.58" y="0">S/D </tspan></text><text class="cls-10" transform="translate(196.37 249.39) scale(0.99 1)"><tspan xml:space="preserve">x  </tspan></text><text class="cls-11" transform="translate(142.66 296.5) scale(0.99 1)">10:00 </text><text class="cls-14" transform="translate(181.61 296.5) scale(0.69 0.7)">AM</text><text class="cls-11" transform="translate(196.54 296.5) scale(0.99 1)"><tspan xml:space="preserve"> a 1:00 </tspan></text><text class="cls-14" transform="translate(243.05 296.5) scale(0.69 0.7)">PM</text><text class="cls-11" transform="translate(257.99 296.5) scale(0.99 1)"><tspan xml:space="preserve">  </tspan></text><text class="cls-11" transform="translate(145.97 347.06) scale(0.99 1)">9:00 </text><text class="cls-14" transform="translate(177.07 347.06) scale(0.69 0.7)">AM</text><text class="cls-11" transform="translate(192.01 347.06) scale(0.99 1)"><tspan xml:space="preserve"> a 12:00 </tspan></text><text class="cls-14" transform="translate(246.36 347.06) scale(0.69 0.7)">M</text><text class="cls-11" transform="translate(254.68 347.06) scale(0.99 1)"><tspan xml:space="preserve">  </tspan></text><text class="cls-11" transform="translate(383.04 103.36) scale(0.99 1)">5:00 a 7:00 </text><text class="cls-14" transform="translate(456.86 103.36) scale(0.69 0.7)">PM</text><text class="cls-11" transform="translate(471.8 103.36) scale(0.99 1)"> </text><text class="cls-11" transform="translate(383.04 150.89) scale(0.99 1)">5:00 a 7:00 </text><text class="cls-14" transform="translate(456.86 150.89) scale(0.69 0.7)">PM</text><text class="cls-11" transform="translate(471.8 150.89) scale(0.99 1)"> </text><text class="cls-11" transform="translate(383.04 199.42) scale(0.99 1)">5:00 a 7:00 </text><text class="cls-14" transform="translate(456.86 199.42) scale(0.69 0.7)">PM</text><text class="cls-11" transform="translate(471.8 199.42) scale(0.99 1)"><tspan xml:space="preserve">  </tspan></text><text class="cls-11" transform="translate(383.04 247.96) scale(0.99 1)">5:00 a 7:00 </text><text class="cls-14" transform="translate(456.86 247.96) scale(0.69 0.7)">PM</text><text class="cls-11" transform="translate(471.8 247.96) scale(0.99 1)"><tspan xml:space="preserve">   </tspan></text><text class="cls-10" transform="translate(423.46 297.93) scale(0.99 1)"><tspan xml:space="preserve">x  </tspan></text><text class="cls-10" transform="translate(423.46 348.49) scale(0.99 1)">x </text></svg>