<svg id="Capa_1" data-name="Capa 1" xmlns="http://www.w3.org/2000/svg" viewBox="0 0 159.41 157.8"><defs><style>.cls-1{fill:#00ba39;}.cls-2{fill:#fff;}.cls-3{fill:none;}.cls-3,.cls-4,.cls-5{stroke:#000;stroke-miterlimit:10;}.cls-4,.cls-7{fill:#ffe422;}.cls-5{fill:#271ac6;}.cls-6{fill:#ef2020;}</style></defs><title>svg-</title><path class="cls-1" d="M79.7,4.36V18.23a60.67,60.67,0,0,1,0,121.34v13.87a74.54,74.54,0,0,0,0-149.08Z"/><path class="cls-2" d="M79.7,4.36V18.23a60.67,60.67,0,0,0,0,121.34v13.87a74.54,74.54,0,0,1,0-149.08Z"/><circle class="cls-3" cx="79.7" cy="78.9" r="74.54"/><circle class="cls-4" cx="79.7" cy="78.9" r="60.67"/><circle class="cls-5" cx="79.7" cy="78.9" r="51.87"/><circle class="cls-6" cx="79.7" cy="78.9" r="41.49"/><path class="cls-7" d="M86,46.6A28.64,28.64,0,0,1,94.16,50a2.69,2.69,0,0,0,2.62.19c1.59-.67,3.3-.59,5.4-.6-1.15.83-2.3,1.27-2.28,2.59.08,0,.18.13.24.11,1.85-.8,1.84-.8,1.88,1.28a3.91,3.91,0,0,0,.45,1.85c.44-.89.84-1.79,1.32-2.66a22,22,0,0,1,2.51-3.41c.33-.39.59-.64,1-.16s.55.61.14,1.1c-.72.86-1.38,1.77-2,2.68a1.89,1.89,0,0,0,0,2.43c.91,1.24,1.8,2.49,3,4.09a21.62,21.62,0,0,1,.66-6.46c.15-.45,0-1.49.82-1.15a1.53,1.53,0,0,1,1,2,13.88,13.88,0,0,0-.62,1.78,2.76,2.76,0,0,0,.75,3c1.26,1.15,1.83,2.82,2.81,4.18-.34,1.12-1-.48-1.35.16A20.79,20.79,0,0,0,114,66.5a72.3,72.3,0,0,1,2.51,7.41L115,73.09c-.66.38-.1.78,0,1.17l.16.94.13.53.11.9.18.87a1.77,1.77,0,0,0,.13,1.2,2,2,0,0,0,.14,1.19v5.4l-.19,1.24a12,12,0,0,0-.7,3.45c-.56,1.06-.65,2.32-1.38,3.34-1-1.07-1-1.08-1.67.19a19.3,19.3,0,0,1-4.11,5.11c-.79.72-1.35,1-1.54-.4,0-.28-.09-.64-.39-.73s-.54.33-.73.57a13.82,13.82,0,0,1-2.76,3c-.2.16-.65.67-.74.12-.2-1.23-.71-.39-1-.21-.55.3-1.06.7-1.58,1-1,.64-1.34.41-1-.91l-.85.66c-.22-.54-.84-.3-1-.4-1.46-.87-2.2.68-3.34.68,1.85.71,2.47.62,4-.42.18-.12.24,0,.32.13-.73,2.19-2.43,2.45-4.73,2,.63.64.84,1.18,1.56.93.3-.1.64,0,.64.35s-.28.39-.62.33a1.31,1.31,0,0,0-1.35.61c.29.31.82-.08,1,.49a4.43,4.43,0,0,1-2.2,1,10.38,10.38,0,0,1-8-1.46c-.83-.54-2-1.21-1.78-2.24s1.52-1.42,2.59-1.69a2.58,2.58,0,0,1,.29,0c2.2-.3,4.13-3.31,3.52-5.49-4.55,5-10.3,6.34-16-1a9.93,9.93,0,0,0,1.48,5,2.47,2.47,0,0,0,2.59,1.51,2.68,2.68,0,0,1,1.87.7c1.28.89,1.34,1.31.22,2.36-2.88,2.7-6.29,3.06-9.95,2.14a1.59,1.59,0,0,1-1.29-1l1.15-.27c-.67-.67-1.61-.47-2.41-1.14.72-.18,1.33.07,1.76-.34.12-.12.43-.1.34-.35s-.33-.35-.43-.31c-2,.7-3-.44-3.87-2-.15-.26-.6-.72-.72-.25-.34,1.34-1,.37-1.34.19A13.11,13.11,0,0,1,60,100.8c-.22-.15-.65-.43-.7,0-.22,1.78-.92.25-1.07.1-1.12-1.1-2.16-2.27-3.32-3.52a4.84,4.84,0,0,0-.31.84c-.2,1.28-.69,1.27-1.55.45a18.15,18.15,0,0,1-4.21-5.32c-.68-1.45-.74-1.43-1.77-.14-.91-1.5-1-3.24-1.59-4.84l-.08-.64-.22-1.41-.07-1.22L45,79.52a28.75,28.75,0,0,1,.78-5.46c0-.24.19-.46,0-.65a.56.56,0,0,0-.67,0c-.27.15-.42.55-.92.31a21.72,21.72,0,0,1,1.19-3.66l.25-.51v0a6.28,6.28,0,0,0,.83-3c.51-1,1-1.94,1.53-2.93.16-.31.52-.71.09-1s-.58.19-.84.37a3.94,3.94,0,0,0-.45.36l.3-.88a28.33,28.33,0,0,1,3.27-4.64,1.27,1.27,0,0,0,.25-1.22A20.4,20.4,0,0,0,49.78,53a1.2,1.2,0,0,1,.09-1.35c.61-.72,1-1,1.46.13,1,2.35,1.07,4.81,1.2,7.44,1.08-1.5,2.21-3,3.21-4.52.41-.64-.07-1.32-.47-1.88-.65-.9-1.38-1.76-2-2.67-.29-.41-1.12-.77-.4-1.42s1.11.2,1.48.58a18.55,18.55,0,0,1,3.58,5.3c.12.25.25.5.43.89A3.43,3.43,0,0,0,58.84,53c-.07-1.27.28-1.68,1.44-.88a4.08,4.08,0,0,0,.68.27,3.15,3.15,0,0,0-2-2.65,10.4,10.4,0,0,1,5.28.47,1.83,1.83,0,0,0,1.81.06,36.46,36.46,0,0,1,9.08-3.88l1.19-.22a.22.22,0,0,0,.24-.06c.59-.09,1.25.2,1.73-.36l.85-.17c.63,1-.22,1.21-.84,1.33a10.67,10.67,0,0,0-5.13,2.64,4.9,4.9,0,0,1-1.36.84c-.74.28-1.59.82-2-.46-.13-.39-.45-.23-.73-.15A12.26,12.26,0,0,0,62.31,55c.14.08.19.13.22.12a5,5,0,0,0,.52-.26c2.51-1.6,5.13-2.83,8.23-2.34.24,0,.55.09.58-.24.22-2.13,2.07-2.24,3.52-2.73,1.87-.62,3.26-.22,3.62.83s-.32,2.09-2.2,2.83c-2.37,1-4.61,2.13-7.45.88-2.06-.9-6.84,2.08-8.21,4.54.76-.16.77-.15,1.09-.44A10.62,10.62,0,0,1,70,55.44,22.27,22.27,0,0,0,78,54.37c1.68-.55,1.77-.49,1.84,1.46-.87-.76-1.21,0-1.6.53a3.92,3.92,0,0,1-3.73,1.78,6.73,6.73,0,0,0-3.65.43c.35.73,1,.54,1.53.39a6.18,6.18,0,0,1,1.42-.22A20.9,20.9,0,0,0,78.93,58c.74-.23,1.92.83,2.88-.18a1.22,1.22,0,0,1,.36.21,4.58,4.58,0,0,0,2.37.61,31.44,31.44,0,0,1,4.65.35c.25.06.51.11.57-.22s-.21-.33-.45-.42a7,7,0,0,0-3.12-.19,3.31,3.31,0,0,1-3.59-1.83c-.39-.7-.83-1.17-1.7-.45.33-2,.33-2,1.91-1.5.46.15.93.28,1.41.4a20.21,20.21,0,0,0,6.23.67,10.32,10.32,0,0,1,9.15,3.9c.42-.63,0-1-.26-1.36a9.79,9.79,0,0,0-4.87-3.35,7,7,0,0,0-4.26-.17c-2.54.69-5.26-.46-7.55-2a1.63,1.63,0,0,1-.83-1.87,1.88,1.88,0,0,1,1.62-1.29,5.44,5.44,0,0,1,5.46,2.86c.22.49.51.33.82.3a10.9,10.9,0,0,1,7.2,1.9c.36.23.63.43,1,.2-.75-1.65-3.13-3.65-5.46-4.54-.7-.27-1.44-.73-1.84.46-.14.41-.63.38-1,.26a4.31,4.31,0,0,1-1.92-1,9.19,9.19,0,0,0-5.18-2.79c-.52-.1-1.24-.18-1.12-1l1,.12,1.81.12.28.06ZM55,87.13l.06.1h.12l.33.21.29.2.59.38.29.21a.18.18,0,0,0,.2.12l.4.25a6.13,6.13,0,0,0,2.31,1.19l.31.17.61.1a.89.89,0,0,0,1.2,0l.58-.16.27-.16.58-.32.51-.29.06,0,.36-.26c.11,0,.18,0,.19-.12l.67-.44.24-.15a26.73,26.73,0,0,0,4.67-3.57l-.27-.36-4.69,3.19h0l-.44.27L64,88l-.59.33-.58.27L62,88.9H60.75l-.53-.23a46.69,46.69,0,0,1-4.81-3.44c-.56-.45-1.06-1.13-1.94-1a.44.44,0,0,0-.21.51l-.13.59-.11.31-.14.58a.14.14,0,0,0-.08.22l-.22.63L52,87l-1-2.22-.23-.6v0a1,1,0,0,0-.27-.78s.06-.09.05-.13a2,2,0,0,0-.1-.26,1.71,1.71,0,0,0-.29-1.12c-.45-.29,0-.63-.05-.94a9.84,9.84,0,0,0-.11-2.18c-.18-.66-.29.06-.44.13-.5,0-.62.43-.86.72-.79-.81-.18-1.83-.42-2.72a3.07,3.07,0,0,0,.12-1.5.82.82,0,0,0,0-.9v-.78c.12-.22.57-.3.28-.68v-.49c.14-.22.58-.31.29-.7.18-.58.73-1,.68-1.68,0-.39.5-.85,0-1.15-.19-.14-.68.17-1,.27-.51-.49,0-.92.14-1.31a38.46,38.46,0,0,1,2.85-5.43c.44-.73.86-1.48,1.28-2.22A33.43,33.43,0,0,0,47.85,69c-.92,1.34.22,1.24,1,1.29-.64,2-1.58,3.85-1.58,5.92A5.42,5.42,0,0,0,47,78.36a.1.1,0,0,0,0,.17,1.83,1.83,0,0,0-.08,1.22,4.16,4.16,0,0,0,0,1.89A1.55,1.55,0,0,0,47,82.78v0c0,1.29,0,1.29.68.9a2.86,2.86,0,0,0,.83-1.17h.57l.15.86.12.59.1.59.2.63a.19.19,0,0,0,.06.24l.22.69a1.89,1.89,0,0,0,.37,1.07l.22.47a.76.76,0,0,0,.26.71l.31.75a2.45,2.45,0,0,0,.65,1.28l.23.37,0,0,.36.55.25.32c0,.19.12.34.32.33s.29-.14.24-.35l.08-.29a5.62,5.62,0,0,0,.65-2.08l0-.06a1.07,1.07,0,0,0,.3-.81v-.07l.29-.77.24-.33h.3Zm7.64-12.67a3.5,3.5,0,0,1,.79.62c1.47,2.17,3.31,3.5,6.1,3,.61-.12.84.22.87.84a2.66,2.66,0,0,1-.66,1.88l-2.39,2.93c2.47-1.55,5.42-2.64,5.31-6.34,0-1.16.66-2.29.51-3.74-1.2,1.19-1.91.66-2.81-.28-2.66-2.8-4.78-5.78-4.47-10.28a5.7,5.7,0,0,0-1,3.1,12.67,12.67,0,0,0,.62,4.61c.13.44.35,1-.48.76a15.51,15.51,0,0,1-4.31-1.33c-1.53-.87-1.88-2.32-1.75-4-1.05.48-.9,1.62-1.72,2.25-.38-3.36.49-6.43,1.07-9.55-3,4.07-5.6,8.31-6.36,13.4.67-.67,1.22-1.4,1.83-2.08.24-.26.5-.7.95-.52s.24.6.29.91a26.41,26.41,0,0,0,1.18,5.12,12,12,0,0,0,3.45,5.52c-.8-3-1.83-6-1.22-9.64,1.59,3,3.08,5.62,5.6,7.36-.63-1.41-1.53-2.64-1.65-4.22Zm39.77-2.79a16.07,16.07,0,0,1-1.23,8.58c-.11.26-.46.48-.11.72s.56,0,.76-.25.49-.6.72-.92a19.8,19.8,0,0,0,3.26-9.13c0-.36-.22-.87.22-1.07s.73.33,1,.59.32.37.5.54.39.82.86.52c.28-.17.17-.62.07-1a35,35,0,0,0-5.1-10.47c-.23-.32-.52-.75-.92-.48s0,.68.09,1a19.73,19.73,0,0,1,1.13,6.89c0,.35.06.74-.3,1-.61-.63-.47-1.76-1.62-2C102.14,68.61,101,70,99,70.7a15.63,15.63,0,0,1-2.26.59c-1.55.3-1.53.28-1.19-1.27a10.65,10.65,0,0,0-.36-6.72,5.33,5.33,0,0,0-.22.86,12.33,12.33,0,0,1-3.6,8.26c-1,1.1-1.84,2.78-3.84,1.28a12.07,12.07,0,0,0,.53,2.93c.19,1,.37,1.91.51,2.87.18,1.23,2.75,3.38,4.24,3.37-.9-1.05-1.94-1.89-2.26-3.25-.29-1.18-.08-1.83,1.28-1.6a4.77,4.77,0,0,0,5-2.25,3,3,0,0,1,1.7-1.51,11.84,11.84,0,0,1-1.24,3.85C99.92,76.7,101.07,74.15,102.4,71.67Zm8.81,6.69c-.65,3.17-1,6.17-2.79,9.08l-.54-1.78c-.57-1.84-.61-1.85-2.13-.72-1.29,1-2.6,1.9-3.86,2.9a3.74,3.74,0,0,1-4.72.21c-1.28-.79-2.62-1.5-3.85-2.38-.41-.3-.79-.79-1.59-.41,2,1.45,3.89,2.88,5.82,4.25a3.65,3.65,0,0,0,4.13.18c1-.55,2-1.16,3-1.77,1.49-.93,1.54-.92,2,.7.26.84.51,1.68.79,2.51.08.26.07.65.44.68s.47-.31.63-.54a14.42,14.42,0,0,0,2.06-4.18c.46-1.51.88-3,1.32-4.56.8.27.79,1.36,1.75,1.39a24.29,24.29,0,0,0,0-7,32.86,32.86,0,0,0-1.85-6.61c.62-.32,1.11.4,1.39-.13.13-.25-.12-.74-.27-1.08-.58-1.24-1.14-2.49-1.79-3.68a22.35,22.35,0,0,0-3-4.55,52.83,52.83,0,0,1,4.1,8.33,3.29,3.29,0,0,1-.56,0c-.36-.11-.76-.47-1.08-.14s.08.73.2,1.07a24.84,24.84,0,0,1,1.29,4.8,11.29,11.29,0,0,1,0,4.94ZM74.13,69.05C76,67.23,77.62,64.88,80.36,65s4.61,2,6.12,4.29c.42-1.37-.48-2.13-1.1-3-1.53-2-4-3.35-4.83-6.49C79.06,63.72,74.86,65.06,74.13,69.05ZM67.59,88.57l-.28-.24c-.4.35-.82.68-1.19,1a39.52,39.52,0,0,0-4,4.87c-.62.83-1.24,1-2.09.41l-3-2.1a19.26,19.26,0,0,0,4.12,5.72c.75.72,1.07.46,1.4-.41a35.9,35.9,0,0,1,3-6C66.2,90.76,66.9,89.67,67.59,88.57Zm36.3,4.34-.26-.27-1.31,1c-2.37,1.85-2.63,1.82-4.4-.53l-.54-.69a15.16,15.16,0,0,0-3.83-3.79c1.62,3.28,3.77,6.25,5,9.71.17.48.45.45.77.19A21.14,21.14,0,0,0,103.89,92.91Zm-7.06-6.83c1.43,1.32,2.69,1.5,4.14.63a28.85,28.85,0,0,0,4.83-3.78c.59-.54.79-2,2.15-1.27,0,0,.23-.17.28-.3a9.27,9.27,0,0,0,.51-4.75c-.65,1-.24,2.3-1,2.4-1,.13-1.24.86-1.7,1.39C103.56,83.2,101.25,86.25,96.83,86.08ZM64,86.15c-3,.3-4.93-1.37-6.82-3.17a19.47,19.47,0,0,1-2.53-2.84c-.67-.94-2.2-.94-2.31-2.42-.57,2.15-.25,2.85,1.51,3.73.24.12.38.43.57.66a20.61,20.61,0,0,0,5,4.47A3.75,3.75,0,0,0,64,86.15Zm19.6-14.89a7.54,7.54,0,0,0-2.81-4.48c-.52-.34-.82,0-1.13.32a9.5,9.5,0,0,0-2.51,4.26c1-.85,2.33-1.27,2.82-2.65a.87.87,0,0,1,.43-.52c.28-.11.45.18.5.4C81.19,70,82.73,70.26,83.55,71.26Zm-16-4.57a14,14,0,0,0,3.65,6c-.77-2.28-.46-4.71-1-7.37C69.26,67.67,69.26,67.67,67.58,66.69Zm25.72,0c-.82-.1-1.14,1.13-1.87.54-.53-.42-.35-1.38-1.22-1.93a25.69,25.69,0,0,1-.55,7.37A14.41,14.41,0,0,0,93.3,66.73Zm-4.14-3c-.57-2.66-1.48-3.26-4.76-3.32-.32,0-.87-.4-1,.2s.49.49.85.57A8.93,8.93,0,0,1,89.16,63.74Zm-17.73,0a12.28,12.28,0,0,1,4.93-2.53c.39-.08,1.13,0,1-.53-.13-.77-.77,0-1.18-.16a2.52,2.52,0,0,0-.87,0C73.32,60.43,72.06,61.43,71.43,63.72Zm17,28.67c1.14-2.32.64-5.78-.91-7Zm-1-12.32a22.53,22.53,0,0,0-1-5.89c-.08-.28-.23-.61-.6-.47s-.27.52-.19.76a17,17,0,0,1,.4,3.75C86.12,79,86.59,79.51,87.44,80.07Zm-15.09,12c.09-2.08,1-4.12.52-6.25A6.65,6.65,0,0,0,72.35,92.09Zm2.29-18.28a18.16,18.16,0,0,0-1.31,6.09C74.91,79,75.2,77.62,74.64,73.81Zm-5.39,26.48a5.49,5.49,0,0,0-4.7-2C65.75,99.82,67.3,100,69.25,100.29Zm22.33.07c1.77-.49,3.32-.42,4.5-2A4.61,4.61,0,0,0,91.58,100.36ZM68,102.05c-.57-.82-1.79-.3-2.57-1-.31-.3-.5.82-1.07.92.36.27.53.89,1.11.75C66.29,102.48,67.27,103.05,68,102.05Zm2.8-45.61A6.71,6.71,0,0,0,67.7,59.1C69.14,58.52,70.28,58.12,70.77,56.44Zm19.21,0c.63,1.62,1.71,2.11,3.26,2.7A7,7,0,0,0,90,56.45Z"/><path class="cls-7" d="M82.74,115.24c-2.43-.23-4.86.06-7.29,0a4.71,4.71,0,0,1-5-5.11c0-.88.32-1.25,1.22-1.12s1.57.07,2.32.23a2.32,2.32,0,0,0,2.59-.74c.59-.73,1.58-.65,2.46-.62,1.36.06,2.72.14,4.08.21.24,0,.6,0,.7.11,1.35,1.82,3.18.92,4.83.82,1.29-.08,1.83.16,1.66,1.64-.34,2.86-2,4.51-4.94,4.58-.78,0-1.56,0-2.34,0Z"/><path d="M72.8,120.79c-.4-.57-1.06-.43-1.6-.54A42.32,42.32,0,0,1,37.63,78.19C37.84,61.87,48.7,41,74.15,37c19.51-3.1,45.3,10.43,47.9,38a42.15,42.15,0,0,1-34.44,45.46c-.37.06-.8,0-1,.37ZM74.17,46l1.17-.21c.42,0,.88,0,1.25.28a.22.22,0,0,1-.24.06,1.58,1.58,0,0,0-1.2.22,36.55,36.55,0,0,0-9.07,3.88,1.83,1.83,0,0,1-1.81-.06A10.52,10.52,0,0,0,59,49.72a3.15,3.15,0,0,1,2,2.66,4.91,4.91,0,0,1-.68-.28c-1.16-.8-1.51-.39-1.44.89a3.46,3.46,0,0,1-.51,2.47c-.18-.39-.31-.64-.43-.89a18.55,18.55,0,0,0-3.58-5.3c-.37-.38-.7-1.3-1.48-.58s.11,1,.4,1.42c.65.91,1.38,1.77,2,2.67.4.56.88,1.24.47,1.89-1,1.55-2.13,3-3.21,4.51-.13-2.63-.17-5.09-1.2-7.44-.48-1.1-.86-.85-1.46-.12A1.18,1.18,0,0,0,49.79,53a20.4,20.4,0,0,1,.78,3.71,1.26,1.26,0,0,1-.25,1.22,28.33,28.33,0,0,0-3.27,4.64.84.84,0,0,1-.29-.77,14.71,14.71,0,0,1,1.77-3.52,3.79,3.79,0,0,0,.54-3.47c-.15-.43,0-1.1-.55-1.21s-.64.52-.88.86a40.51,40.51,0,0,0-8,20.45c-1.16,13,2.87,24.28,12.28,33.24,13.14,12.53,31.92,14.74,47.79,5.92a40.24,40.24,0,0,0,13.19-58.64,4.18,4.18,0,0,0-.63-.81c-.3-.26-.72-.26-.76.21-.09.92-.47,1.79.18,2.77a19.35,19.35,0,0,1,2.4,4.57l-.24.67c-1-1.36-1.56-3-2.81-4.18a2.76,2.76,0,0,1-.75-3,13.88,13.88,0,0,1,.62-1.78,1.53,1.53,0,0,0-1-2c-.81-.34-.67.7-.82,1.15a21.3,21.3,0,0,0-.66,6.46c-1.15-1.6-2-2.85-3-4.08a1.9,1.9,0,0,1,0-2.44c.65-.91,1.31-1.82,2-2.68.41-.49.18-.75-.15-1.1s-.7-.23-1,.16a22,22,0,0,0-2.51,3.41c-.48.87-.88,1.77-1.32,2.66a3.79,3.79,0,0,1-.45-1.85c0-2.08,0-2.08-1.88-1.28-.06,0-.16-.07-.24-.11,0-1.32,1.13-1.76,2.28-2.59-2.1,0-3.81-.07-5.4.6A2.69,2.69,0,0,1,94.17,50,28.93,28.93,0,0,0,86,46.58c-.34-.67-1-.39-1.48-.44l-.28,0v-.18a3.29,3.29,0,0,1,2.08,0,1.55,1.55,0,0,0,1,.17,44.42,44.42,0,0,1,5.35,1.19c3.5,1,6.42-.59,9.45-2.08-9.52-8.74-35.49-8.94-43.87-.46,3.14,2.37,7.25,3.37,10.41,2.44a33.29,33.29,0,0,1,4.92-1.1Z"/><path d="M114.12,62.13a2.75,2.75,0,0,1,.83,1.78c0,.3.15.76-.28.85-.19,0-.45-.28-.68-.44s-.26-.46-.49-.21,0,.4.19.55c.15.4.29.81.44,1.21,0,.2-.09.41-.13.61A20.79,20.79,0,0,1,112.53,63c.4-.64,1,1,1.35-.16Z"/><path d="M48.28,63.07c-.53-.52-2.1,1.21-2.38,1.65a6.48,6.48,0,0,1,.86-3,.77.77,0,0,0,.31.71C47,62.76,48.2,62.24,48.28,63.07Z"/><path d="M75.34,45.81a7.18,7.18,0,0,1,3-.08c-.49.56-1.16.27-1.74.36C76.22,45.78,75.76,45.86,75.34,45.81Z"/><path d="M82.41,46c.59-.31,1.21,0,1.81-.06v.18Z"/><path d="M86,46.58l-1.48-.44C85,46.19,85.64,45.91,86,46.58Z"/><path d="M76.35,46.15l-1.2.22A1.58,1.58,0,0,1,76.35,46.15Z"/><path d="M86.3,45.94l1,.17A1.55,1.55,0,0,1,86.3,45.94Z"/><path d="M73.55,46.1l.62-.08Z"/><path d="M99.75,105c-.34-.61.53-1,.19-1.76-1.61.77-3.47,1.06-4.24,3.08a5.08,5.08,0,0,1-2.39,2.86c-.64.33-.74,1.09-1,1.72-.87,2.11-1.43,4.48-3.54,5.73-1.53.91-2.93,2.19-5.13,1.58a14.34,14.34,0,0,0-7.52.18,2.45,2.45,0,0,1-1.65-.27c-3.73-1.46-5.16-4.64-6.23-8.13-.08-.26-.21-.67-.41-.73-1.86-.53-2.41-2.19-3.08-3.67-.77-1.73-2.69-1.34-3.75-2.46-.6.77.46,1.26.07,1.87l0,0c-2.31-.79-3.64-2.8-5.32-4.39-.56.55.08,1.47-.5,1.63s-1.14-.61-1.62-1a19.8,19.8,0,0,1-4.44-5.76c-.18-.35-.21-1.11-.75-.88s.15.7.14,1.09a5,5,0,0,0,.07.71c-2.25-2.2-3.09-4.8-3.85-7.45l.69-.56c.55,1.6.68,3.34,1.59,4.84,1-1.29,1.09-1.31,1.77.14a18.15,18.15,0,0,0,4.21,5.32c.86.82,1.35.83,1.54-.45a6.21,6.21,0,0,1,.32-.84c1.16,1.25,2.2,2.42,3.32,3.52.15.15.85,1.69,1.07-.1.05-.39.48-.11.7,0a13.11,13.11,0,0,0,1.57,1.06c.39.18,1,1.16,1.34-.19.12-.46.57,0,.72.26.86,1.51,1.89,2.64,3.87,1.94.1,0,.37.17.43.31s-.22.23-.34.35c-.43.41-1,.17-1.77.34.81.67,1.75.47,2.42,1.14l-1.15.27a1.57,1.57,0,0,0,1.28,1c3.67.92,7.08.56,10-2.14,1.12-1,1.06-1.47-.22-2.35a2.69,2.69,0,0,0-1.87-.71,2.47,2.47,0,0,1-2.59-1.51,10,10,0,0,1-1.49-5c5.66,7.32,11.41,6,16,1,.61,2.18-1.32,5.19-3.52,5.49a1.35,1.35,0,0,0-.29,0c-1.07.27-2.33.69-2.59,1.68s.94,1.7,1.78,2.24a10.38,10.38,0,0,0,8,1.46,4.36,4.36,0,0,0,2.19-1c-.22-.57-.75-.18-1-.48a1.3,1.3,0,0,1,1.35-.62c.34.06.62.07.62-.33s-.35-.44-.64-.35c-.72.25-.93-.29-1.56-.93,2.3.42,4,.16,4.73-2h0l.85-.65c-.35,1.31,0,1.54,1,.9.52-.35,1-.75,1.58-1,.33-.18.84-1,1,.21.09.55.54,0,.74-.11a14.1,14.1,0,0,0,2.76-3c.19-.24.29-.7.73-.57s.35.45.39.73c.19,1.43.75,1.12,1.54.4a19.46,19.46,0,0,0,4.11-5.1c.68-1.27.69-1.27,1.67-.2.73-1,.82-2.28,1.38-3.34a1.43,1.43,0,0,0,.33,1,10.44,10.44,0,0,1-2.47,4.72c-.16.2-.35.59-.65.38s-.15-.52-.28-1a20.84,20.84,0,0,1-4.34,5.92,5.44,5.44,0,0,1-.41.42c-.44.37-.86,1.06-1.41.92-.71-.17-.11-1.06-.57-1.64-1.79,1.44-3.05,3.59-5.39,4.36ZM83,115.24c.78,0,1.56,0,2.34,0,2.93-.07,4.6-1.72,4.94-4.58.17-1.48-.38-1.72-1.66-1.64-1.65.1-3.48,1-4.83-.81-.1-.14-.46-.1-.7-.11-1.36-.08-2.72-.16-4.08-.21-.88,0-1.87-.12-2.46.61a2.3,2.3,0,0,1-2.59.74c-.75-.16-1.55-.13-2.32-.23s-1.21.24-1.22,1.12a4.71,4.71,0,0,0,5,5.11c2.43,0,4.86-.25,7.29,0Z"/><path d="M79.17,45.56l2.25.28c-.12.88.6,1,1.12,1a9.19,9.19,0,0,1,5.18,2.79,4.26,4.26,0,0,0,1.92,1c.4.12.9.15,1-.26.4-1.19,1.14-.73,1.84-.46,2.33.9,4.71,2.89,5.46,4.54-.41.23-.68,0-1-.19a11,11,0,0,0-7.2-1.91c-.31,0-.6.2-.82-.3a5.46,5.46,0,0,0-5.46-2.86,1.89,1.89,0,0,0-1.62,1.29,1.63,1.63,0,0,0,.83,1.87c2.29,1.57,5,2.71,7.55,2a7,7,0,0,1,4.26.17A9.9,9.9,0,0,1,99.35,58c.3.37.68.73.26,1.36a10.35,10.35,0,0,0-9.15-3.9,20.21,20.21,0,0,1-6.23-.67c-.48-.12-1-.25-1.41-.4-1.58-.52-1.58-.53-1.91,1.5.87-.72,1.31-.24,1.69.45a3.33,3.33,0,0,0,3.6,1.83,6.89,6.89,0,0,1,3.12.2c.24.08.5.09.45.41s-.32.28-.57.22a31.44,31.44,0,0,0-4.65-.35A4.58,4.58,0,0,1,82.18,58c-.12-.08-.34-.23-.37-.21-1,1-2.13,0-2.87.18a20.44,20.44,0,0,1-5.17.75,7,7,0,0,0-1.43.22c-.5.15-1.17.35-1.52-.39a6.73,6.73,0,0,1,3.65-.43,3.92,3.92,0,0,0,3.73-1.78c.39-.51.73-1.29,1.6-.53-.07-1.94-.16-2-1.84-1.46A22.27,22.27,0,0,1,70,55.42a10.66,10.66,0,0,0-7.79,2.72c-.32.29-.33.28-1.09.44,1.37-2.45,6.15-5.44,8.21-4.53,2.84,1.24,5.08.06,7.45-.88,1.88-.75,2.55-1.8,2.2-2.83s-1.75-1.46-3.62-.84c-1.45.49-3.3.6-3.52,2.73,0,.33-.35.28-.58.24-3.1-.49-5.72.74-8.23,2.34-.17.1-.35.18-.52.26s-.08,0-.22-.11a12.23,12.23,0,0,1,6.77-5.2c.28-.08.6-.24.73.16.43,1.27,1.28.74,2,.45a4.68,4.68,0,0,0,1.36-.84,10.75,10.75,0,0,1,5.13-2.64C79,46.77,79.8,46.57,79.17,45.56Z"/><path d="M62.39,74.67c.12,1.58,1,2.81,1.65,4.22-2.52-1.74-4-4.35-5.6-7.36-.61,3.62.42,6.61,1.22,9.64a12,12,0,0,1-3.45-5.52A26.24,26.24,0,0,1,55,70.53c-.05-.31.09-.76-.29-.91s-.71.26-1,.52c-.61.68-1.16,1.42-1.83,2.08.76-5.09,3.32-9.33,6.36-13.4-.58,3.12-1.45,6.19-1.07,9.55.82-.63.67-1.77,1.72-2.25-.13,1.72.21,3.17,1.75,4A15.51,15.51,0,0,0,65,71.49c.83.19.61-.32.47-.76a12.63,12.63,0,0,1-.61-4.61,5.64,5.64,0,0,1,1-3.1c-.31,4.5,1.81,7.48,4.47,10.28.89,1,1.61,1.47,2.81.28.15,1.45-.55,2.59-.52,3.74.12,3.7-2.83,4.8-5.3,6.34l2.39-2.93a2.64,2.64,0,0,0,.66-1.87c0-.63-.26-1-.87-.85-2.79.55-4.63-.78-6.11-3-.17-.26-.52-.41-.78-.62l-.23-.12Zm7.12,1.57c-2-.77-3.5-2.58-5.93-3C65.51,76.54,66.29,76.93,69.51,76.24Z"/><path d="M102.41,71.66c-1.33,2.47-2.48,5-5.12,6.43a12.11,12.11,0,0,0,1.24-3.84c-.92.21-1.3.94-1.71,1.5a4.75,4.75,0,0,1-5,2.25c-1.36-.23-1.57.43-1.28,1.6.32,1.36,1.36,2.2,2.26,3.25-1.49,0-4.06-2.14-4.24-3.37-.14-1-.33-1.92-.51-2.87a12.07,12.07,0,0,1-.53-2.93c2,1.5,2.84-.18,3.84-1.28A12.32,12.32,0,0,0,95,64.15a5.09,5.09,0,0,1,.22-.87A10.65,10.65,0,0,1,95.56,70c-.34,1.55-.36,1.57,1.19,1.27A15.63,15.63,0,0,0,99,70.68c2-.72,3.14-2.09,2.78-4.45,1.15.28,1,1.41,1.62,2,.36-.27.29-.66.3-1a19.64,19.64,0,0,0-1.13-6.88c-.13-.37-.47-.78-.09-1s.69.15.92.48a34.81,34.81,0,0,1,5.1,10.46c.1.34.21.79-.07,1-.47.3-.61-.28-.86-.52s-.31-.39-.5-.54-.54-.82-1.06-.58-.16.7-.21,1.06a19.8,19.8,0,0,1-3.26,9.13c-.23.32-.48.62-.72.92s-.51.42-.76.25,0-.46.11-.71A16.18,16.18,0,0,0,102.41,71.66ZM91,76.28c3.34,1.13,4.85-.71,6.46-3C94.88,73.66,93.29,75.37,91,76.28Z"/><path d="M111.22,78.34l.91,1.5a11.49,11.49,0,0,0,0-5,25.78,25.78,0,0,0-1.29-4.8c-.12-.34-.52-.73-.2-1.07s.72,0,1.08.14a2.47,2.47,0,0,0,.56,0,52.83,52.83,0,0,0-4.1-8.33,22.44,22.44,0,0,1,3,4.55c.66,1.19,1.22,2.44,1.8,3.68.15.34.4.83.27,1.08-.28.53-.77-.19-1.39.13a32.86,32.86,0,0,1,1.85,6.61,24.29,24.29,0,0,1,0,7c-1,0-1-1.12-1.75-1.38-.44,1.52-.86,3-1.32,4.55a14.6,14.6,0,0,1-2.06,4.19c-.16.22-.3.56-.63.53s-.36-.42-.44-.67c-.28-.84-.53-1.68-.79-2.52-.48-1.62-.53-1.63-2-.7-1,.61-2,1.22-3,1.78a3.67,3.67,0,0,1-4.13-.19c-1.93-1.37-3.83-2.79-5.82-4.25.8-.38,1.18.12,1.59.41,1.23.88,2.57,1.59,3.85,2.39a3.75,3.75,0,0,0,4.72-.22c1.26-1,2.57-1.94,3.86-2.9,1.52-1.13,1.56-1.11,2.13.72l.54,1.78C110.26,84.51,110.57,81.52,111.22,78.34Z"/><path d="M49.45,84.5l-.1-.59c.31-.27.25-.46-.12-.59l-.15-.86c-.19-.26-.38-.25-.57,0a3,3,0,0,1-.83,1.17l-.68-.9v0c0-.38-.06-.76-.08-1.14a4.16,4.16,0,0,1,0-1.89L47,78.51a.1.1,0,0,1,0-.17c.51-.68.23-1.45.27-2.19,0-2.07.94-3.9,1.58-5.92-.8,0-1.94,0-1-1.29.31.12.42.73.92.36.36-.1.85-.4,1-.27.46.3-.08.76,0,1.15,0,.7-.5,1.1-.68,1.68l-.29.7v.49l-.28.68v.78c-.12.3-.36.59,0,.9a3.07,3.07,0,0,1-.12,1.5,2.75,2.75,0,0,0-.26,2.63c.12.33.37.66.68.09.24-.29.36-.73.86-.72.58.58.05,1.45.54,2,.11.31-.39.65.06.94,0,.4,0,.81.28,1.12a1.45,1.45,0,0,1,.11.26s0,.09,0,.13a.93.93,0,0,0,.27.78v0l.23.6L52,87c.13.31.31.38.55.1l.22-.63a.58.58,0,0,0,.08-.22l.14-.58c.18,0,.31-.12.11-.31l.13-.59.21-.51c.88-.16,1.38.52,1.94,1a45.22,45.22,0,0,0,4.81,3.44l.53.23H62c.42.24.64,0,.86-.33l.58-.27L64,88l.45-.27.44-.28h0c.52.08.37.43.29.74l-.24.15a.87.87,0,0,0-.67.44c0,.11-.08.15-.19.12l-.36.26-.06,0-.51.3-.58.31-.27.16-.58.16c-.4,0-.8-.25-1.2,0l-.61-.11-.31-.17a6.13,6.13,0,0,1-2.31-1.19l-.4-.25a.18.18,0,0,1-.2-.12L56.39,88l-.59-.37-.29-.21-.33-.21a.81.81,0,0,0-.18-.1l-.06,0h-.3l-.24.33a.84.84,0,0,0-.29.77v.07a.93.93,0,0,0-.3.81l0,.07a2.7,2.7,0,0,0-.65,2.07l-.08.29-.56,0-.25-.32a.64.64,0,0,0-.37-.55l0,0-.23-.37a2.42,2.42,0,0,1-.65-1.28.81.81,0,0,0-.31-.75.76.76,0,0,1-.26-.71l-.22-.47a1.89,1.89,0,0,1-.37-1.07c-.08-.23-.15-.46-.22-.69a.19.19,0,0,1-.06-.24Z"/><path d="M115.25,90.93a1.43,1.43,0,0,1-.33-1,12,12,0,0,1,.7-3.45,1.68,1.68,0,0,0,.18-1.24c0-1.8,0-3.6,0-5.4a1.85,1.85,0,0,0-.14-1.18,1.81,1.81,0,0,1-.14-1.21l-.17-.87-.11-.9-.13-.53-.16-.94c.23-.39-.07-.78,0-1.17l1.55.82A72.3,72.3,0,0,0,114,66.48c0-.2.09-.41.13-.61a44.69,44.69,0,0,1,5,12.07l-1.92-1.56-.08,0c-.4.65-.14,1.4-.28,2.08a1,1,0,0,0,0,1,9.07,9.07,0,0,1-.24,3.63c-.06.1-.13.19-.19.28V86a.94.94,0,0,0-.26.76.93.93,0,0,1,0,1l-.27.47C116.16,89.2,115.19,90,115.25,90.93Z"/><path d="M74.14,69c.73-4,4.93-5.33,6.42-9.23.84,3.13,3.3,4.43,4.83,6.48.62.83,1.52,1.59,1.1,3C85,67,83,65,80.37,65S76,67.21,74.14,69Z"/><path d="M67.6,88.55c-.69,1.1-1.39,2.19-2.06,3.3a35.43,35.43,0,0,0-3,6c-.33.88-.65,1.13-1.4.41A19.55,19.55,0,0,1,57,92.55c1,.69,2,1.39,3.06,2.09.85.59,1.47.42,2.09-.41a39.52,39.52,0,0,1,4-4.87c.37-.37.79-.7,1.19-1Z"/><path d="M103.9,92.89a21.14,21.14,0,0,1-4.6,5.64c-.32.27-.61.29-.77-.19-1.2-3.46-3.35-6.43-5-9.71a15.16,15.16,0,0,1,3.83,3.79l.54.7c1.77,2.34,2,2.37,4.4.53l1.31-1Z"/><path d="M45.51,88.31l-.69.56a43.33,43.33,0,0,1-.83-11c0-.47.38-1.15-.29-1.43s-.79.44-1.16.72a.81.81,0,0,1-.84.23,36,36,0,0,1,3.45-8.48c.15.23.3.46.44.69v0l-.26.52a22.24,22.24,0,0,0-1.19,3.65c.51.24.66-.16.93-.31s.47-.21.67,0,.06.41,0,.64A28.75,28.75,0,0,0,45,79.5,9,9,0,0,0,45.14,85l.07,1.22c-.41.55,0,1,.22,1.41Z"/><path d="M96.84,86.06c4.42.17,6.73-2.88,9.21-5.68.47-.53.7-1.25,1.71-1.39.75-.1.34-1.38,1-2.4a9.32,9.32,0,0,1-.51,4.76c0,.12-.24.31-.28.29-1.36-.68-1.56.73-2.15,1.28A29.32,29.32,0,0,1,101,86.69C99.53,87.56,98.27,87.38,96.84,86.06Z"/><path d="M64,86.13a3.75,3.75,0,0,1-4.6.43,20.4,20.4,0,0,1-5-4.47c-.19-.22-.33-.54-.57-.66-1.76-.88-2.08-1.58-1.51-3.72.11,1.48,1.64,1.48,2.31,2.42A19.92,19.92,0,0,0,57.14,83C59,84.76,61,86.43,64,86.13Z"/><path d="M83.56,71.24c-.82-1-2.36-1.24-2.7-2.67,0-.22-.22-.51-.5-.4a.9.9,0,0,0-.43.52c-.49,1.38-1.84,1.8-2.82,2.65a9.56,9.56,0,0,1,2.51-4.26c.31-.29.61-.66,1.13-.32A7.54,7.54,0,0,1,83.56,71.24Z"/><path d="M67.59,66.67c1.68,1,1.68,1,2.66-1.33.53,2.67.22,5.09,1,7.37A14,14,0,0,1,67.59,66.67Z"/><path d="M93.31,66.71a14.51,14.51,0,0,1-3.64,6,25.76,25.76,0,0,0,.55-7.38c.86.55.69,1.51,1.21,1.93C92.17,67.84,92.49,66.61,93.31,66.71Z"/><path d="M89.17,63.72a8.93,8.93,0,0,0-4.88-2.55c-.36-.08-.93-.05-.85-.57s.65-.21,1-.2C87.69,60.46,88.6,61.06,89.17,63.72Z"/><path d="M71.44,63.7c.63-2.29,1.89-3.29,3.93-3.25a2.45,2.45,0,0,1,.86,0c.42.17,1.06-.61,1.19.16.08.52-.66.45-1,.53A12.28,12.28,0,0,0,71.44,63.7Z"/><path d="M88.42,92.37l-.91-6.94C89.06,86.59,89.56,90.05,88.42,92.37Z"/><path d="M87.45,80.05c-.85-.56-1.32-1.06-1.37-1.85a17,17,0,0,0-.4-3.75c-.08-.24-.15-.62.19-.76s.52.19.6.47A22.53,22.53,0,0,1,87.45,80.05Z"/><path d="M48.78,69.3c-.5.37-.61-.24-.92-.36a33.43,33.43,0,0,1,5.19-8.6c-.42.74-.84,1.49-1.28,2.23A38.35,38.35,0,0,0,48.92,68C48.76,68.39,48.27,68.81,48.78,69.3Z"/><path d="M72.36,92.07a6.65,6.65,0,0,1,.52-6.25C73.34,88,72.45,90,72.36,92.07Z"/><path d="M74.64,73.79c.57,3.81.28,5.2-1.31,6.09A18.66,18.66,0,0,1,74.64,73.79Z"/><path d="M97.17,101.74c-.08-.1-.14-.25-.32-.13-1.58,1-2.2,1.13-4,.42,1.14,0,1.88-1.55,3.34-.68.16.1.78-.14,1,.4Z"/><path d="M69.26,100.27c-2-.31-3.5-.47-4.7-2A5.52,5.52,0,0,1,69.26,100.27Z"/><path d="M91.59,100.34a4.61,4.61,0,0,1,4.5-2C94.91,99.93,93.36,99.85,91.59,100.34Z"/><path d="M65.17,88.14c.08-.31.23-.66-.29-.74l4.69-3.19.27.36A26.73,26.73,0,0,1,65.17,88.14Z"/><path d="M68,102c-.7,1-1.68.43-2.53.63-.58.14-.75-.48-1.11-.75.57-.1.76-1.22,1.07-.92C66.19,101.73,67.41,101.21,68,102Z"/><path d="M70.78,56.42c-.49,1.69-1.63,2.08-3.08,2.66A6.84,6.84,0,0,1,70.78,56.42Z"/><path d="M45.14,85A9,9,0,0,1,45,79.5Z"/><path d="M90,56.43a7,7,0,0,1,3.26,2.7C91.7,58.54,90.62,58.05,90,56.43Z"/><path d="M48.79,79.63c-.31.57-.56.24-.68-.09a2.75,2.75,0,0,1,.26-2.63C48.61,77.8,48,78.82,48.79,79.63Z"/><path d="M45.59,69.58c-.14-.23-.29-.46-.44-.69.35-.8,2.27-5.29,3.09-5.82C48.24,64.13,46.07,68.65,45.59,69.58Z"/><path d="M50.19,81c-.49-.6,0-1.47-.54-2,.15-.07.26-.78.44-.13A9.28,9.28,0,0,1,50.19,81Z"/><path d="M53.19,91.22a2.7,2.7,0,0,1,.65-2.07A5.63,5.63,0,0,1,53.19,91.22Z"/><path d="M47.3,76.15c0,.74.24,1.51-.27,2.19A5.25,5.25,0,0,1,47.3,76.15Z"/><path d="M115,73.07c-.07.39.23.78,0,1.17C114.86,73.85,114.3,73.46,115,73.07Z"/><path d="M47,82.74l.68.9C47,84,47,84,47,82.74Z"/><path d="M45.43,87.67c-.23-.44-.63-.86-.22-1.41Z"/><path d="M60.51,90.05c.4-.22.8.06,1.2,0A.89.89,0,0,1,60.51,90.05Z"/><path d="M48.49,75.41c-.34-.31-.1-.6,0-.9A.82.82,0,0,1,48.49,75.41Z"/><path d="M115.67,78.69a1.85,1.85,0,0,1,.14,1.18A1.92,1.92,0,0,1,115.67,78.69Z"/><path d="M115.8,85.27a1.68,1.68,0,0,1-.18,1.24Z"/><path d="M47,78.51l-.08,1.22A1.83,1.83,0,0,1,47,78.51Z"/><path d="M62.83,88.55c-.22.29-.44.57-.86.33Z"/><path d="M46.93,81.62c0,.38,0,.76.08,1.14A1.55,1.55,0,0,1,46.93,81.62Z"/><path d="M50.53,83c-.33-.31-.27-.72-.28-1.12A1.66,1.66,0,0,1,50.53,83Z"/><path d="M49.23,83.32c.37.13.43.32.12.59Z"/><path d="M48.81,72.56l.29-.7C49.39,72.25,49,72.34,48.81,72.56Z"/><path d="M52.55,91.53l.56,0c0,.21,0,.35-.24.35S52.57,91.73,52.55,91.53Z"/><path d="M115.36,76.61l.17.87Z"/><path d="M48.52,73.73l.28-.68C49.09,73.43,48.64,73.51,48.52,73.73Z"/><path d="M64.26,88.73a.87.87,0,0,1,.67-.44Z"/><path d="M53.48,84.25l-.21.51A.43.43,0,0,1,53.48,84.25Z"/><path d="M60.76,88.89l-.53-.23Z"/><path d="M49.45,84.5l.2.63Z"/><path d="M63.14,89.45l.51-.3Z"/><path d="M49.71,85.37c.07.23.14.46.22.69C49.85,85.83,49.78,85.6,49.71,85.37Z"/><path d="M53.14,85.35c.2.19.07.26-.11.31Z"/><path d="M51.93,90.66a.64.64,0,0,1,.37.55Z"/><path d="M115.12,75.18l.13.53Z"/><path d="M48.51,82.47c.19-.26.38-.27.57,0Z"/><path d="M52.59,87.09c-.24.28-.42.21-.55-.1Z"/><path d="M54.11,88.2a.84.84,0,0,1,.29-.77Z"/><path d="M50.86,84.19a.93.93,0,0,1-.27-.78A1,1,0,0,1,50.86,84.19Z"/><path d="M64,88l-.59.33Z"/><path d="M50.78,88.31a.81.81,0,0,1,.31.75C51,88.81,50.89,88.56,50.78,88.31Z"/><path d="M53.82,89.08a.93.93,0,0,1,.3-.81A1.05,1.05,0,0,1,53.82,89.08Z"/><path d="M51.08,84.77l-.23-.6Z"/><path d="M62.29,89.92l.27-.16Z"/><path d="M56.39,88l.29.21Z"/><path d="M51.74,90.34l.23.37Z"/><path d="M45.34,70.08l.26-.52Z"/><path d="M56.88,88.33l.4.25Z"/><path d="M52.89,86.24a.58.58,0,0,1-.08.22A.14.14,0,0,1,52.89,86.24Z"/><path d="M54.64,87.1h0Z"/><path d="M50.3,87.13l.22.47Z"/><path d="M55,87.11a.81.81,0,0,1,.18.1h-.12Z"/><path d="M55.51,87.42l.29.21Z"/><path d="M63.71,89.11l.36-.26Z"/><path d="M64.89,87.4l-.44.28Z"/><path d="M59.59,89.77l.31.17Z"/><path d="M116.86,79.44a1,1,0,0,1,0-1A1.52,1.52,0,0,1,116.86,79.44Z"/><path d="M116.17,86.71a.94.94,0,0,1,.26-.76C116.43,86.23,116.45,86.52,116.17,86.71Z"/><path d="M115.86,88.17l.27-.47C116.13,87.91,116.1,88.1,115.86,88.17Z"/><path d="M117.14,76.33l.08,0Z"/><path d="M116.43,83.35c.06-.09.13-.18.19-.28Z"/><path d="M61.07,105l.08,0h-.06Z"/><path d="M99.73,105l-.08.07a.31.31,0,0,1,.1,0Z"/><path d="M82.75,115.23h0Z"/><path class="cls-2" d="M69.51,76.24c-3.22.69-4,.3-5.93-3C66,73.66,67.51,75.47,69.51,76.24Z"/><path d="M62.39,74.67l0-.35.23.12Z"/><path class="cls-2" d="M91,76.28c2.29-.91,3.88-2.62,6.46-3C95.85,75.57,94.34,77.41,91,76.28Z"/><path d="M57.35,139.34a7.78,7.78,0,0,1-6.84,5.11c1.47-1.79,3.36-3.16,3.25-5.58a8.09,8.09,0,0,1-6.71,3.66c1.52-1.59,3.26-2.78,3.57-4.93a8.3,8.3,0,0,1-6.79,2.79c2.59-1.85,4.58-3.76,4.27-7l3.75,1-.22.34a7.66,7.66,0,0,0,1.06.84,3.35,3.35,0,0,0,1,.22c.66.11,1.34.2.77,1.19l3.21.54-.15,1.21,3.68.27v1.8l3.46-.75,1.56,2.42-5.49-.32-.37.88,4.35.7-.95,1.87c-.85-.33-1.62-.61-2.37-.92-1.75-.72-1.75-.73-3,.76l6.5,1.72-2.42,1.82A29.55,29.55,0,0,0,59,147.11a27.52,27.52,0,0,0-3.76-1A7.81,7.81,0,0,0,57.35,139.34Z"/><path d="M110.34,139a7.14,7.14,0,0,1-1.06,6.1c-.84-2.45-.93-5.09-3.8-6.17,1,2.74,1.5,5.37-.62,8.05a22.41,22.41,0,0,0-1.44-4,22.61,22.61,0,0,0-2.77-3.29c.91-.78,1.82-1.64,2.84-2.37.22-.16.8.1,1.48.22.45-.46,1.13-1.09,1.73-1.78s1-.66,1.55.06c.36.51.67,1,1.59.77s1.45-.66,1.36-1.68a3.79,3.79,0,0,1,.43-2.05c.84,1.18,1.45,2.6,2.56,3.46s2.67,1.12,4.29,1.74c-.55.93-1.11,2-1.76,2.92-.1.16-.7.17-1,.05-.78-.36-1.47-.88-2.26-1.24s-1.93-.75-2.9-1.12Z"/><path d="M76.13,150.71c1.2-2.46.94-5-.34-7.64L79.28,142l.62,1.75a10.67,10.67,0,0,0,1.9-1.33c.67-.76,1.19-.84,1.9-.1.41.42.9.78,1.49,1.28a6.27,6.27,0,0,1-4,1.26c-.83-.07-1.58,0-1.11,1.23l4-.91c.15.19.24.25.24.31.18,2.37-.08,2.23-2.45,2-2.08-.2-2.06-.34-3,1.65,2.29-.26,4.46-1.08,7-.47-.57.85-1,1.63-1.59,2.32-.16.18-.72.17-1.06.1a35.29,35.29,0,0,0-3.73-.77A16.94,16.94,0,0,0,76.13,150.71Z"/><path d="M69.63,140.78A28.42,28.42,0,0,1,74,143.16c2.49,1.94,1.91,5.22-1.15,6.15a20.21,20.21,0,0,1-5.63.53,7.94,7.94,0,0,1-2.46-.9,6.43,6.43,0,0,1,1.15-4.44A38.67,38.67,0,0,1,69.63,140.78Zm-1.06,8.38c1.81-.61,3.05-1.53,3.32-3.22s-.78-3.08-2.13-4.35C68.34,144,68.39,146.48,68.57,149.16Z"/><path d="M89.62,148l4.57-.81a2.33,2.33,0,0,1,.19.58c.05,2.33.05,2.27-2.41,2.12-1.74-.11-3.52-.14-4.93,1.25l-.84-.88c1.44-1.6,1.17-3.63-1.08-7.27,1.11-.5,2.2-1,3.33-1.46.15-.06.69.36.79.64a8.34,8.34,0,0,1,.49,5.1A5.7,5.7,0,0,0,89.62,148Z"/><path d="M96.12,149.59l-.93-.58c1.4-2.93,0-5.09-2.25-7.15,1.07-.68,2-1.35,3-1.9.18-.09.83.24,1,.51.85,1.66,1.64,3.36,1.18,5.3a1.57,1.57,0,0,0,0,.46c1.24-.43,2.44-.86,3.64-1.25.81-.27,1.3-.08,1.25.84,0,.54,0,1.09,0,1.78C100.62,147.76,98,147.57,96.12,149.59Z"/><path d="M40.69,29l-1.25-1-.13.1.95,1.61c-2,.68-3.88,1.46-4.43,3.73-.17-.06-.58-.09-.65-.25-1.16-2.69-3.32-4.14-6.47-4.59l1.54-3.35c2.42,1.31,4.38,2.84,5.27,5.28l3.19-3.3A8.25,8.25,0,0,1,36.63,20c1.54,2.42,2.58,5,5.68,5.82.72-3-1.3-5-3-7.15L43,17.06c1.15,2.16,2.1,4.26,1.49,6.68C43.9,25.91,43.06,27.92,40.69,29Z"/><path d="M85.78,15.82c-2.7-1.82-3.52-3.72-2.58-6,.56-1.33,1.82-1.9,3-2.65,1.39-.85,2.67.08,3.71-.33A6.35,6.35,0,0,0,90.88,8a4.34,4.34,0,0,1-.53,7.7,8.28,8.28,0,0,1-5,.82Zm2.4-7.52a4.82,4.82,0,0,0-1,6.92C89.81,13.55,90.27,10.47,88.18,8.3Z"/><path d="M111.33,21.11l-.87-.34c2.09-.15,2.35-1.59,2.74-2.85.57-1.89.54-1.9,2.59-1.35.75.2,1.49.42,2.44.69l-1.49,2.51.15.19a12,12,0,0,0,1.69-.83,1,1,0,0,1,1.65.29c.4.57.89,1.1,1.56,1.91l-5,1.06c1.22,1.76,1.28,3.76.81,6.07-1.1-.43-2.09-.77-3-1.22-.18-.09-.19-.61-.17-.93.1-1.41.24-2.82.37-4.4l-5.42,1.73-.22-.32Z"/><path d="M102.63,20.62l.73-.5c-.19-.28-.38-.57-.58-.85-1.91-2.71-.44-6.13,2.9-7a6.53,6.53,0,0,1,4.53.43c.21.1.3.44.43.69a7,7,0,0,0,.33.67,4.53,4.53,0,0,1-2.91,7.07A9.44,9.44,0,0,1,102.63,20.62Zm5.74-6.9c-2.37.75-4.15,3.37-3.72,5.51a1,1,0,0,0,.86.52C107.93,18.93,109.75,15.76,108.37,13.72Z"/><path d="M76.57,11a1.62,1.62,0,0,0,1.75-1.21,24.07,24.07,0,0,1,1.85-3.05l.37.16-.23,2.95,1.87-.51.27.19c-.93.87.31,2.34-1.27,3.16L82.6,15l-4.32,1.34-.65-3.86c-.94-.33-1.43-.07-1.81.88a12.44,12.44,0,0,1-1.88,2.89c-.52-1.29.43-2.75-.58-3.91.82-1.64-.91-2.63-1.33-4.11l4.19-1.56Z"/><path d="M130.79,35.14c-4.1.6-4.8.6-6.43-.1l1.17-.52a27.38,27.38,0,0,0,3.67-1.73,7.38,7.38,0,0,0,1.72-2.06c.43-.62.81-1.12,1.64-.48s1.67,1.25,2.51,1.86c-1.7,2.19-1.7,2.19-1.23,3.38l3.61.27,0,.4a8.16,8.16,0,0,1-.81.34A6.82,6.82,0,0,0,131.52,41c-.27.82-.65.93-1.45.56-2.61-1.22-2.6-1.22-.75-3.38a23.94,23.94,0,0,0,1.84-2.82Z"/><path d="M50.63,23.07a18,18,0,0,0,1.47-1.42c.57-.68,1.19-1.43.53-2.34s-1.55-.76-2.69-.53l-.33,4.35h-.25a28.34,28.34,0,0,0-2-3.52,31.37,31.37,0,0,0-3-3,6.82,6.82,0,0,1,5.19-3.26,3.94,3.94,0,0,1,1.71.08,1.65,1.65,0,0,1,.85,2.88c-.27.32-.58.62-.89.95A18,18,0,0,1,54,17.12c1.78.16,2.52,1.78,1.27,3a49.94,49.94,0,0,1-4.38,3.33Zm-1.2-5.88.5-.06a3.92,3.92,0,0,0-.3-1.65c-.3-.41-1-.57-1.52-.83l-.19.29Z"/><path d="M123.19,33.54,126,30.61c-1.19-.42-2.2-1.08-3.17-1s-1.7.87-2.68,1.42c-.49-.69-1-1.41-1.51-2.18a.94.94,0,0,1,.22-.85,4.33,4.33,0,0,1,1-.67l-.33-.16c.2-.47.28-1.2.63-1.34.74-.3,1.67-1.47,2.44.05.1.19.55.27.85.31.78.1,1.57.15,2.36.21.24,0,.66.08.71,0,.7-1.4,1.63-.36,2.36-.13,2.18.69,2.18.78,1.26,2.81A8.06,8.06,0,0,1,123.19,33.54Zm3.63-5.65-2.24.5,2.08,1.16Z"/><path d="M63.85,11.87c.43.68,1,.62,1.7.5a22.74,22.74,0,0,1,3.94-.44,2,2,0,0,1,2,1.62,4.53,4.53,0,0,0,.57,1c-1.72,3.35-6.16,3.85-9.4,2.71,1.13-.33,2.2-.58,3.21-1a6,6,0,0,0,1.93-1.05c.36-.33.74-1.13.56-1.42A2.19,2.19,0,0,0,66.82,13c-1,0-2,.22-3,.27A7.24,7.24,0,0,1,62,13.14a1.65,1.65,0,0,1-1.39-2.39c.22-.55.46-1.09.64-1.52L66,8.59l-1.4.94c2,.28,3.61-.47,5.28-1C68.89,10.11,67.46,10.9,63.85,11.87Z"/><path d="M93.06,16.2C94.82,15,96.4,13.87,97.18,12l-3.9-1.62c1-.74,1.67-1.66,2.49-1.78s1.75.58,2.69,1L99,8.82c.14,0,.28.07.28.1.05,1.52,1.31,1.57,2.43,1.77.83.15,1.67.26,2.5.39l0,.34a34.26,34.26,0,0,1-3.44.57c-.79.06-1.15.32-1.19,1-.12,2.2-1.69,3.6-3.2,5a1.06,1.06,0,0,1-.93.15C94.69,17.59,93.94,16.93,93.06,16.2Z"/><path d="M34.66,35c-2.24,3.09-5.83,4-8.31,2.33-2.2-1.53-2.22-5.09.12-8-.21,2.25-.07,4.24,1.92,5.62S32.48,35.71,34.66,35Z"/></svg>