<svg id="Capa_1" data-name="Capa 1" xmlns="http://www.w3.org/2000/svg" viewBox="0 0 548.41 384.69"><defs><style>.cls-1,.cls-5{opacity:0.35;}.cls-1{font-size:24px;}.cls-1,.cls-2{font-family:GangofThree, Gang of Three;}.cls-2{font-size:31px;fill:#fff;}.cls-3{fill:none;stroke:#000;stroke-miterlimit:10;stroke-width:0.75px;}.cls-4{opacity:0.18;}.cls-11,.cls-6,.cls-7,.cls-8,.cls-9{font-size:18px;}.cls-10,.cls-12,.cls-14,.cls-6,.cls-8{font-family:ArialNarrow, Arial;}.cls-6,.cls-7{letter-spacing:-0.01em;}.cls-11,.cls-7,.cls-9{font-family:ArialNarrow-Bold, Arial;font-weight:700;}.cls-11,.cls-8{letter-spacing:-0.01em;}.cls-9{letter-spacing:-0.01em;}.cls-10,.cls-12,.cls-13{font-size:20px;letter-spacing:-0.01em;}.cls-12,.cls-14{font-weight:400;}</style></defs><title>svg</title><text class="cls-1" transform="translate(38.04 36.47)">bo<tspan x="-7.46" y="20">xeo</tspan></text><rect x="108.84" y="15" width="410.88" height="46.54" rx="23.27"/><text class="cls-2" transform="translate(251.36 48.74)">estadio</text><rect class="cls-3" x="13.93" y="70.12" width="520.56" height="153.46"/><rect class="cls-4" x="20.94" y="78.47" width="504.27" height="38.25"/><rect class="cls-4" x="20.94" y="126.92" width="504.27" height="38.25"/><rect class="cls-5" x="20.94" y="175.61" width="504.27" height="38.25"/><text class="cls-6" transform="translate(26.2 102.35)">Lunes</text><text class="cls-6" transform="translate(26.2 148.64)">Miércoles</text><text class="cls-7" transform="translate(26.2 198.21)">Sábado</text><text class="cls-8" transform="translate(157.36 104.79) scale(0.99 1)">6:00 a 7:00 </text><text class="cls-9" transform="translate(231.19 104.79) scale(0.69 0.7)">AM</text><text class="cls-10" transform="translate(246.68 104.79) scale(0.99 1)"> </text><text class="cls-8" transform="translate(157.36 152.15) scale(0.99 1)">6:00 a 7:00 </text><text class="cls-9" transform="translate(231.19 152.15) scale(0.69 0.7)">AM</text><text class="cls-11" transform="translate(246.68 152.15) scale(0.99 1)"> <tspan class="cls-12" x="3.83" y="0"> </tspan></text><text class="cls-8" transform="translate(198.47 199.22) scale(0.99 1)">x</text><text class="cls-8" transform="translate(378.19 104.79) scale(0.99 1)">6:00 a 7:00 </text><text class="cls-9" transform="translate(452.01 104.79) scale(0.69 0.7)">PM</text><text class="cls-8" transform="translate(466.95 104.79) scale(0.99 1)"> <tspan class="cls-13" x="3.83" y="0"> </tspan></text><text class="cls-8" transform="translate(378.19 152.15) scale(0.99 1)">6:00 a 7:00 </text><text class="cls-9" transform="translate(452.01 152.15) scale(0.69 0.7)">PM</text><text class="cls-11" transform="translate(466.95 152.15) scale(0.99 1)"> <tspan class="cls-12" x="3.83" y="0"> </tspan></text><text class="cls-8" transform="translate(378.19 199.22) scale(0.99 1)">1:00 a 2:00 </text><text class="cls-9" transform="translate(452.01 199.22) scale(0.69 0.7)">PM</text><text class="cls-11" transform="translate(466.95 199.22) scale(0.99 1)"> <tspan class="cls-14" x="3.83" y="0"> </tspan></text></svg>