<svg id="Capa_1" data-name="Capa 1" xmlns="http://www.w3.org/2000/svg" viewBox="0 0 248.01 240.49"><defs><style>.cls-1,.cls-2{fill:#fff;}.cls-2{stroke:#000;stroke-miterlimit:10;stroke-width:6px;}</style></defs><title>svg</title><rect class="cls-1" x="46.61" y="47.81" width="144.72" height="149.04" rx="34.56"/><path d="M126.11,170.38c-3.11.11-5.35-1.33-7.36-3.34Q96.7,145,74.63,122.9c-1.1-1.1-2.25-2.17-3.33-3.31a9.17,9.17,0,0,1,.07-13.17c3.78-3.87,7.65-7.65,11.47-11.49,4.58-4.59,10.18-4.51,14.79.14,8.94,9,18,18,26.89,27.05,1.09,1.11,1.77,1.06,2.84,0q27.15-27.21,54.37-54.35,8-8,16.05-16c4.2-4.18,9.43-4.22,13.69-.06q5.94,5.82,11.78,11.73c4.11,4.17,4.11,9.59,0,13.74-8.48,8.48-17,16.88-25.52,25.36-7,7-13.84,14-20.8,20.93-8.72,8.71-17.5,17.34-26.21,26-5.81,5.8-11.57,11.66-17.35,17.49C131.3,169,129.06,170.59,126.11,170.38Z"/><path class="cls-2" d="M192,67.35,175.73,83.63Q154,105.32,132.32,127a8.87,8.87,0,0,1-6.39,2.89h0a8.86,8.86,0,0,1-6.37-2.89q-7.19-7.28-14.42-14.51Q98.88,106.28,92.65,100a4.2,4.2,0,0,0-2.51-1.46h0a4,4,0,0,0-2.34,1.34c-1.41,1.43-2.84,2.84-4.26,4.26-2.37,2.35-4.81,4.78-7.16,7.19a2.21,2.21,0,0,0,0,3.45c.63.65,1.27,1.28,1.92,1.91L79.58,118l7.36,7.36q18.39,18.38,36.77,36.78c1.32,1.32,1.79,1.31,2.15,1.29h.38l.4,0a5.55,5.55,0,0,0,1.72-1.39l5.13-5.18q6.1-6.18,12.24-12.33,6.39-6.39,12.82-12.73,6.7-6.65,13.39-13.31,5.24-5.22,10.42-10.49c3.46-3.49,6.91-7,10.39-10.45q6.13-6.12,12.3-12.21,6.62-6.56,13.21-13.14c1.42-1.42,1.42-2.43,0-3.87-3.82-3.88-7.76-7.8-11.69-11.64-1.5-1.47-2.37-1.47-3.85,0Z"/><path d="M54.71,120.14c0,15.64-.08,31.28,0,46.93a17,17,0,0,0,17.32,17.19c23.81.07,47.62,0,71.43,0,7.31,0,14.61,0,21.92,0A17.37,17.37,0,0,0,183,166.61c0-9,0-18,0-27,0-1.89-.87-24.18.51-25.49,2.09-2,7.62-7.19,9.65-9.21,4.6-2.44,4.83,12.72,4.6,26.81,0,11.93,0,23.86,0,35.79,0,14.85-11.35,28.36-26,31a41.57,41.57,0,0,1-7.38.72q-46.1,0-92.18,0A32.76,32.76,0,0,1,40,170.12c-.43-4.43-.23-8.85-.24-13.28q-.09-41.25,0-82.52A32.53,32.53,0,0,1,61,43.3a25.49,25.49,0,0,1,9.73-1.87c6.58.22,13.16-.15,19.74-.13,7.81,0,15.64,0,23.45,0,7.55,0,15.11-.14,22.67,0,7.88.2,15.76-.07,23.65-.13,5.62,0,11.28,0,16.57,2.18,9.71,4.06,14.42,18.19,11,21.6-1.38,1.39-5.65,5.18-7,6.58-1.18,1.22,0-14.47-10.58-14.82-2-.07-4-.64-6-.63-30.59,0-61.19.07-91.78,0A18,18,0,0,0,54.62,73.8C55,89.24,54.71,104.69,54.71,120.14Z"/></svg>